<svg fill="none" height="46" viewBox="0 0 100 46" width="100" xmlns="http://www.w3.org/2000/svg"><path d="m100 31.05v-9.775c0-5.3985-4.276-9.775-9.5506-9.775h-8.9888v-1.725c0-5.39858-4.2759-9.775-9.5506-9.775h-41.0111c-5.2747 0-9.5506 4.37642-9.5506 9.775v1.725h-11.79774c-5.27463 0-9.55056 4.3765-9.55056 9.775v9.775c0 5.3986 4.27593 9.775 9.55056 9.775h15.16854c0 2.8581 2.2638 5.175 5.0561 5.175h43.2585c2.7925 0 5.0561-2.3169 5.0561-5.175h12.3596c5.2746 0 9.5506-4.3764 9.5506-9.775z" fill="#808080"/></svg>