<svg fill="none" height="133" viewBox="0 0 90 133" width="90" xmlns="http://www.w3.org/2000/svg"><path d="m28.801 43.4041-.0001.0034c-.042.7967-.111 2.0769-.1998 3.1615-.0439.5371-.0951 1.0576-.1545 1.4562-.0282.1898-.0663.408-.1212.601-.0242.0851-.0755.2536-.1738.4303-.0483.0869-.1486.251-.3229.4097-.1808.1645-.5319.4005-1.0314.4005-.6084 0-.987-.3451-1.1274-.4982-.1518-.1655-.2349-.3286-.2715-.4055-.0782-.1646-.1215-.3229-.1437-.4102-.0501-.1972-.0888-.4297-.1199-.6479-.0645-.4525-.1233-1.0407-.1726-1.6288-.095-1.1319-.1664-2.4036-.1703-2.9062-.0692-1.3595-.1951-3.4817-.3234-5.6426l-.0148-.2489c-.134-2.2572-.2682-4.5268-.3385-5.954v-.0009c-.0375-.7695-.0706-1.5294-.1036-2.2847-.0561-1.2859-.1116-2.5584-.1868-3.8428v-.0004c-.0937-1.6098-.1965-3.2304-.2996-4.8553-.1624-2.5619-.3256-5.1347-.455-7.6937v-.0003c-.0087-.172-.0171-.3429-.0255-.5127-.1259-2.55262-.24-4.86597-.9501-7.09037-.2581-.80406-.6104-1.25532-.9383-1.47144-.2798-.18442-.7199-.31788-1.4958-.09535zm0 0c.0521-1.0324.1711-2.8053.3005-4.7322.1937-2.8841.4105-6.1131.4605-7.7204l.0001-.0014c.0348-1.1544.0417-2.2665.0483-3.3572.0118-1.9191.0231-3.7719.1862-5.6723l.0001-.0009c.1571-1.8444.1779-3.6806.1953-5.4554l.0012-.1258c.0171-1.7478.0336-3.4352.1635-5.113v-.0001c.0466-.6029.0851-1.1768.1229-1.74193.0507-.75607.1004-1.49669.1672-2.27102l.0002-.00294c.1001-1.18688.3712-2.24349.8936-3.10669l.0006-.00089c.7492-1.23999 1.9589-1.95697 3.5735-2.22673zm39.7259-41.56033c.9857.07603 1.7703.59806 2.6039 1.56819.4671.54538.9373 1.09878 1.4098 1.65469.7141.84035 1.4331 1.68645 2.1532 2.5193.3223.374.6948.69349.9677.92764.0173.0148.0342.02927.0506.04338.0001.00014.0003.00027.0005.00041l.9775-1.13769m-8.1632-5.57592 17.6456 7.97813m-17.6456-7.97813c-.0005-.00004-.001-.00007-.0015-.00011l.1147-1.495615-.111 1.495885c-.0007-.00005-.0014-.0001-.0022-.00016zm8.1632 5.57592c.6503.56161 1.4042.86615 2.2738.83056.939-.03923 1.878-.08537 2.8181-.13157.4818-.02367.9638-.04736 1.4463-.07014m-6.5382-.62885-.0313-.02689c-.2892-.24843-.5839-.50156-.8303-.78786zm6.5382.62885.0673 1.49849c.0006-.00003.0012-.00005.0018-.00008.0005-.00003.0011-.00005.0016-.00008zm0 0c1.1449-.05142 2.2778 0 3.3868.34013m0 0-.4445 1.43266c.0007.00019.0013.00038.0019.00057m.4426-1.43323c1.9507.60513 3.1434 2.00913 3.307 4.03813l-3.7496-2.6049m.4426-1.43323-.4399 1.43407c-.0009-.00028-.0018-.00056-.0027-.00084m-83.45721 76.3327-.00002.0007c-.02598.8511-.04853 1.7078-.07119 2.5681-.06687 2.5402-.1346 5.1125-.29398 7.6709-.11588 1.8848-.12507 3.7727-.13451 5.7107-.00118.243-.00237.486-.00377.731-.01247 2.176-.04214 4.409-.25222 6.652zm0 0c.0635-2.1116.1224-4.2167.18125-6.3199m-.18125 6.3199.18125-6.3199m.62036-18.0962-.00001.0003c-.0529 1.5323-.11482 3.0261-.17648 4.5134-.07125 1.7187-.14214 3.4289-.19836 5.1801zm0 0c.06415-1.8661.12174-3.7259.17923-5.5825m-.17923 5.5825.17923-5.5825m.85883-16.7453-.00015.0021c-.06112.8208-.12957 1.6232-.19721 2.4162-.1322 1.5496-.2613 3.0631-.3265 4.6061zm0 0c.06082-.8322.10927-1.6614.15337-2.4881m-.15337 2.4881.15337-2.4881m2.25697-17.0842-.0002.0016c-.35988 2.9218-.75005 5.8669-1.24636 8.7955zm0 0c.25582-2.096.99947-3.976 2.19993-5.7759 2.22657-3.3305 4.67087-6.33581 7.73377-8.76147l.0009-.0007m-9.9346 14.53807 9.9346-14.53807m0 0c.9813-.77832 1.813-1.35145 2.7604-1.62386zm-14.00336 74.53437c.07834-2.8001.1566-5.597.2455-8.4018zm.79959-23.6787c.10046-3.2442.20061-6.4786.33495-9.7206zm1.0122-19.2334c.15109-2.7569.53941-5.5009 1.01031-8.2865zm38.90317 84.9474c-1.0234-.013-1.9218.238-2.6846.768-.7367.513-1.2368 1.21-1.6122 1.902-.2835.52-.5041 1.054-.6867 1.558-.6177 1.702-1.9074 2.83-3.7397 3.777-1.3547.697-2.8709.981-4.6149 1.225-2.7214.378-5.4599.371-8.3219.363-.4083-.001-.8191-.002-1.2327-.002-1.0229 0-2.0432.002-3.0616.004-2.7536.006-5.4939.011-8.23667-.024h-.00107c-1.24511-.014-2.51418-.14-3.78779-.331-1.02693-.156-1.74633-.566-2.29443-1.134-.57054-.591-1.01753-1.418-1.35954-2.481l-.00027-.001c-.37197-1.154-.51059-2.39-.47087-3.678l.00012-.004c.02892-1.031.05647-2.059.08399-3.087.04103-1.531.082-3.06.12736-4.592.02086-.691.03285-1.365.04465-2.028.02802-1.575.05493-3.087.1969-4.617zm-15.4491-74.056c-.0002-.0005-.0003-.001-.0004-.0015.0015.0051.0022.008.0023.0086.0001.0007-.0005-.0016-.0019-.0071z" stroke="#000" stroke-width="3"/></svg>