<svg fill="none" height="135" viewBox="0 0 90 135" width="90" xmlns="http://www.w3.org/2000/svg"><path d="m62.6764 2.47439-.0015-.00057c-1.1416-.42488-2.4245-.66481-3.7105-.75815-2.4159-.17158-4.8561-.19051-7.3436-.20174zm0 0c1.6939.62834 3.1388 1.78695 4.3393 3.30295m-4.3393-3.30295 4.3393 3.30295m0 0c.9583 1.21214 1.8388 2.50304 2.7304 3.8412l.0005.00081c.1395.20911.2784.41655.4164.62255.9464 1.4131 1.8515 2.7646 2.6339 4.1843l.0001.0002c.1584.2873.3166.5732.4741.858 1.3095 2.3675 2.5765 4.658 3.6089 7.0737.9506 2.2257 1.7557 4.4957 2.5804 6.8207.1194.3367.2392.6746.36 1.0137l.0004.0012c.6402 1.7926 1.1331 3.5562 1.3692 5.3592.0933.7257.1516 1.4621.2112 2.239l.0075.0982c.0564.7363.1158 1.5106.2099 2.2854l.0002.0016c.0419.3419.081.6985.1212 1.0654.1578 1.4396.333 3.0386.7641 4.538l.0001.0007c.4192 1.4554 1.155 2.838 1.7959 4.0422.1276.2398.2515.4726.3684.6974l.0002.0005c1.3452 2.5859 2.5052 4.8934 2.7675 7.4913l.0004.0031c.0637.6179.117 1.1812.127 1.7311l.0001.004c.0636 3.0588.127 6.1129.1606 9.1619v.0013c.032 2.7052.0543 5.4026.0765 8.1025.0167 2.0302.0335 4.0619.0544 6.0992.014 1.3578.0223 2.7211.0307 4.0878.0229 3.7302.0459 7.4868.1834 11.2318 0 .0002.0001.0004.0001.0006l1.499-.055m-22.5527-92.60356 19.9137 124.30866c.9831-1.58 1.5321-3.278 1.5543-5.039v-.001c.0359-2.715.0059-5.411-.0242-8.128-.017-1.529-.034-3.064-.0395-4.612m1.1484-13.9251c.1683 4.6391.3329 9.2771.3516 13.9201m-.3516-13.9201c-.1367-3.7205-.1595-7.443-.1824-11.166-.0084-1.3715-.0168-2.7431-.0309-4.1146-.0208-2.0296-.0376-4.0599-.0543-6.0905-.0223-2.7041-.0446-5.4088-.0766-8.1136m.3442 29.4847-.3442-29.4847m.6958 43.4048-1.5.005m1.5-.005c.0054 1.523.0222 3.047.0391 4.572.0303 2.731.0605 5.463.0245 8.193l-1.5636-12.76m1.5-.005-1.5.006v-.001m.8042-43.4098c-.0337-3.0576-.0973-6.119-.1609-9.1766m.1609 9.1766-.1609-9.1766m-5.9556-19.7249c-.09-.741-.1471-1.4855-.2042-2.2301-.0616-.8029-.1232-1.6059-.226-2.4049zm0 0c.0469.3827.0892.767.1315 1.1517.1571 1.4263.3146 2.8566.7065 4.2196m-.838-5.3713.838 5.3713m0 0c.3714 1.2897 1.0169 2.5052 1.6567 3.71.1334.2513.2666.5022.3971.7531m-2.0538-4.4631 2.0538 4.4631m0 0c1.328 2.553 2.6336 5.106 2.9291 8.0328.0636.6167.1235 1.2372.1347 1.8577m-3.0638-9.8905 3.0638 9.8905m-83.57874-57.37647-.00041.00018c-1.21552.52706-2.1249 1.19511-2.75661 1.99815-.62382.793-1.03444 1.78987-1.14942 3.07919zm0 0c1.1776-.51103 2.45053-.73948 3.80226-.73948h.0474.04739.04739.04739.04739.04739.04739.04739.04739.04739.04739.04739.04739.04739.04739.04742.0474.0474.0473.0474.0474.0474.0474.0474.0474.0474.0474.0474.0474.0473.0474.0474.0474.0474.0474.0474.0474.0474.0474.0474.0473.0474.0474.0474.0474.0474.0474.0474.0474.0474.0473.0474.0474.0474.0474.0474.0474.0474.0474.0474.0474.0473.0474.0474.0474.0474.0474.0474.0474.0474.0474.0474.0473.0474.0474.0474.0474.0474.0474.0474.0474.0474.0474.0473.0474.0474.0474.0474.0474.0474.0474.0474.0474.0473.0474.0474.0474.0474.0474.0474.0474.0474.0474.0474.0473.0474.0474.0474.0474.0474.0474.0474.0474.0474.0474.0473.0474.0474.0474.0474.0474.0474.0474.0474.0474.0473.0474.0474.0474.0474.0474.0474.0474.0474.0474.0474.0473.0474.0474.0474.0474.0474.0474.0474.0474.0474.0474.0473.0474.0474.0474.0474.0474.0474.0474.0474.0474.0474.0473.0474.0474.0474.0474.0474.0474.0474.0474.0474.0473.0474.0474.0474.0474.0474.0474.0474.0474.0474.0474.0473.0474.0474.0474.0474.0474.0474.0474.0474.0474.0474.0473.0474.0474.0474.0474.0474.0474.0474.0474.0474.0474.0473.0474.0474.0474.0474.0474.0474.0474.0474.0474.0473.0474.0474.0474.0474.0474.0474.0474.0474.0474.0474.0473.0474.0474.0474.0474.0474.0474.0474.0474.0474.0474.0473.0474.0474.0474.0474.0474.0474.0474.0474.0474.0474.0473.0474.0474.0474.0474.0474.0474.0474.0474.0474.0473.0474.0474.0474.0474.0474.0474.0474.0474.0474.0474.0473.0474.0474.0474.0474.0474.0474.0474.0474.0474.0474.0473.0474.0474.0474.0474.0474.0474.0474.0474.0474.0473.0474.0474.0474.0474.0474.0474.0474.0474.0474.0474.0473.0474.0474.0474.0474.0474.0474.0474.0474.0474.0474.0473.0474.0474.0474.0474.0474.0474.0474.0474.0474.0474.0473.0474.0474.0474.0474.0474.0474.0474.0474.0474.0473.0474.0474.0474.0474.0474.0474.0474.0474.0474.0474.0473.0474.0474.0474.0474.0474.0474.0474.0474.0474.0474.0473.0474.0474.0474.0474.0474.0474.0474.0474.0474.0474.0473.0474.0474.0474.0474.0474.0474.0474.0474.0474.0473.0474.0474.0474.0474.0474.0474.0474.0474.0474.0474.0473.0474.0474.0474.0474.0474.0474.0474.0474.0474.0474.0473.0474.0474.0474.0474.0474.0474.0474.0474.0474.0474.0473.0474.0474.0474.0474.0474.0474.0474.0474.0474.0473.0474.0474.0474.0474.0474.0474.0474.0474.0474.0474.0473.0474.0474.0474.0474.0474.0474.0474.0474.0474.0474.0473.0474.0474.0474.0474.0474.0474.0474.0474.0474.0473.0474.0474.0474.0474.0474.0474.0474.0474.0474.0474.0473.0474.0474.0474.0474.0474.0474.0474.0474.0474.0474.0473.0474.0474.0474.0474.0474.0474.0474.0474.0474.0474.0473.0474.0474.0474.0474.0474.0474.0474.0474.0474.0473.0474.0474.0474.0474.0474.0474.0474.0474.0474.0474.0473.0474.0474.0474.0474.0474.0474.0474.0474.0474.0474 1.5m-29.56634.73948 29.56634-.73948m0 0v-.09753m0 .09753v-.09753m0 0c1.2751-.00056 2.5498-.00173 3.8241-.00289 4.251-.00388 8.4981-.00775 12.7455.0107zm35.9435 7.28071c.1371.20559.2747.41101.4124.61646.9433 1.40821 1.8876 2.81791 2.7038 4.29891zm-68.54602 14.21527h-.00003z" stroke="#000" stroke-width="3"/></svg>