<svg fill="none" height="75" viewBox="0 0 76 75" width="76" xmlns="http://www.w3.org/2000/svg"><path d="m52.3158 73.4687h-.0001c-2.9118.0131-5.2836.0051-7.7723-.0033-1.6325-.0055-3.3153-.0111-5.2337-.0111h-4.7147c-2.5135 0-4.2745.009-6.0326.018l-.0027.0001c-1.7564.009-3.5104.018-6.0145.018-1.8715 0-3.7197.0024-5.5597.0048-3.655.0048-7.27771.0096-10.98767-.0048h-.00049c-1.24693-.0045-2.25131-.363-2.9382-.9523-.6644-.5701-1.15925-1.4631-1.22126-2.8195-.06353-1.4236-.06788-2.8357-.07235-4.284-.00171-.5539-.00343-1.113-.00849-1.6802l-.00001-.0012c-.05727-5.8707-.11097-11.7379-.16467-17.6092-.0095-1.0461-.02054-2.0905-.03156-3.1338-.02644-2.5031-.05283-5-.05787-7.5004-.00032-.2044-.00076-.4082-.00119-.6116-.00439-2.0629-.00868-4.0769.1027-6.0797.09228-1.6328.52045-2.665 1.18083-3.4102.68594-.774 1.76862-1.405 3.48425-1.9437h.0001c.86235-.2709 1.75653-.4647 2.72563-.6747l.12492-.0271.00062-.0002c1.35371-.2942 2.51481-.9408 3.48071-1.9473 1.5115-1.5726 2.3016-3.4666 2.5966-5.4912.152-1.038.2865-2.1648.4179-3.266.1031-.8635.2043-1.7113.3106-2.4882.0518-.37598.0959-.73333.1381-1.07455.2006-1.6229.3561-2.88088 1.0685-4.04255l.0001-.00025c.6726-1.09718 1.2735-1.75232 2.0141-2.00205zm0 0c2.5321-.0111 5.0579-.0402 7.5897-.0693 1.5612-.018 3.1246-.036 4.6931-.0498m-12.2828.1191 12.2828-.1191m0 0c.5863-.0052 1.1551-.0046 1.7149-.004 1.0451.0012 2.0587.0023 3.0956-.0348h.001c.7445-.0262 1.475-.1137 2.1498-.2816l.001-.0002c.7725-.1917 1.3297-.5145 1.7252-.9203.393-.4032.6967-.9603.8519-1.7362.1921-.969.2925-1.9819.3228-2.9978.0342-1.1981.0308-2.3563.0273-3.5407-.0023-.7961-.0047-1.604.0043-2.4438v-.0009c.0284-2.5107-.012-4.9558-.3208-7.3681l-.0003-.0021c-.0443-.3496-.0453-.7506-.046-1.0127-.0002-.0704-.0004-.1307-.0014-.1774v-.0001c-.0191-.9322-.0371-1.8623-.055-2.7912-.0357-1.8531-.0714-3.7017-.1166-5.5535-.0346-1.3069-.3817-2.5687-.7856-4.0372-.0317-.1152-.0638-.2317-.096-.3495l-.0001-.0004c-.4527-1.6552-.5669-3.5177-.5706-5.0936v-.0012c-.0007-.4392-.0053-.878-.0099-1.3179-.0185-1.7738-.0372-3.5672.1984-5.4924l1.4889.1822m-9.5788 44.9754 1.674 1.4961c1.0642.0011 2.1279.0021 3.1901-.0359.8234-.0289 1.6611-.1263 2.4594-.3249 1.9939-.4947 3.2791-1.7766 3.6872-3.8203.2112-1.0652.3186-2.1629.3508-3.2462.0346-1.2108.0313-2.4215.0281-3.6323-.0022-.7933-.0044-1.5865.0041-2.3798.0287-2.5312-.0107-5.0588-.3329-7.5756-.0312-.2469-.0322-.4976-.0331-.7493-.0004-.0944-.0007-.1889-.0027-.2834-.0191-.928-.037-1.856-.0549-2.784-.0358-1.8559-.0716-3.7119-.1169-5.5679-.0395-1.499-.4352-2.934-.8296-4.3638-.035-.127-.07-.2539-.1048-.3809-.4009-1.466-.5138-3.174-.5174-4.7014-.0007-.4671-.0054-.9241-.01-1.3751-.018-1.7629-.035-3.4335.1874-5.2507m0 0c.0895-.7369.0697-1.4913.0499-2.2428-.0055-.2097-.011-.4191-.0141-.6279-.009-.6742-.0287-1.3485-.0484-2.0223-.0197-.6721-.0394-1.3438-.0483-2.0146m.0609 6.9076-1.4891-.181c.075-.617.0594-1.2265.0407-1.9538-.0058-.2252-.0119-.4618-.0157-.7134v-.0026c-.0088-.6594-.0281-1.3209-.0478-1.9958l-.0003-.0083c-.0195-.668-.0394-1.3495-.0486-2.032l1.4999-.0207m0 0c-.0251-1.8091-.7983-3.0801-2.5023-3.7481m2.5023 3.7481-1.4999.02m-1.0024-3.7681 1.0024 3.7681m-1.0024-3.7681c-.4117-.1625-.7983-.4008-1.1599-.6572-.5692-.4044-.6372-1.0616-.6694-1.6863-.0272-.5606-.0344-1.1212-.0415-1.6818-.0061-.4721-.0121-.9442-.0301-1.4163-.0752-1.9968-.3437-3.97192-.852-5.90012-.5048-1.91014-1.6253-3.41587-3.1932-4.6219m5.9461 15.96362 1.0024 3.7681m0 0c-.0097-.697-.161-1.1699-.3778-1.5022-.2109-.3231-.5588-.629-1.1721-.8694l-.0032-.0012c-.571-.2254-1.0693-.5399-1.4768-.8289l-.0012-.0008c-1.1986-.8516-1.2673-2.212-1.2967-2.7937-.0006-.0131-.0013-.0258-.0019-.0381l-.0002-.0045c-.0265-.546-.0348-1.0866-.0415-1.6023-.0006-.0437-.0011-.0871-.0017-.1304-.0061-.4756-.0119-.9289-.0291-1.381v-.0007c-.0716-1.8996-.3264-3.76403-.8033-5.5734-.4063-1.53742-1.3058-2.77643-2.6575-3.81607l.9145-1.18905m0 0c-1.2959-.996599-2.7923-1.260192-4.3245-1.480455m4.3245 1.480455-.9146 1.18897m-3.4099-2.669425 3.4099 2.669425m-3.4099-2.669425c-1.6754-.243075-3.3624-.2240961-5.0497-.2051123-.4182.0047044-.8364.0094092-1.2544.0101263-1.7269 0-3.4538-.0116992-5.1808-.0233984zm3.4099 2.669425c-.9512-.73147-2.0801-.96284-3.6233-1.18469l-.002-.00028m3.6253 1.18497-3.6253-1.18497m0 0c-1.5488-.2247-3.089-.20793-4.7624-.18971-.4316.0047-.872.00949-1.3237.01027h-.0026m6.0887.17944-6.0887-.17944m0 0c-1.7294 0-3.4681-.01177-5.2008-.02349-1.1506-.00779-2.2986-.01556-3.4394-.01985l-.0025-.00001m8.6427.04335-8.6427-.04335m0 0c-3.3228-.01806-6.6444-.03609-9.9618-.03609-2.2495 0-4.4979.01836-6.7526.03677-.9031.00737-1.8073.01475-2.7129.02097l-.0025.00001m19.4298-.02166-19.4298.02166m0 0c-.4997.00262-.9599-.00642-1.3967-.015-.9134-.01794-1.7238-.03386-2.5762.06317l-.0009.00011m3.9738-.04828-3.9738.04828m0 0c-1.3055.1478-2.6148.4295-3.8457.84445z" stroke="#000" stroke-width="3"/></svg>