<svg fill="none" height="159" viewBox="0 0 240 159" width="240" xmlns="http://www.w3.org/2000/svg"><path d="m188.553 1.53357-.006-.00049c-.451-.04274-.874-.03549-1.379-.02681-.229.00393-.474.00815-.748.00815h-.121-.121-.121-.121-.121-.121-.121-.121-.121-.121-.121-.121-.121-.121-.121-.121-.121-.121-.121-.121-.121-.121-.121-.121-.121-.121-.121-.122-.121-.121-.121-.121-.121-.121-.121-.121-.121-.121-.121-.121-.121-.121-.121-.121-.121-.121-.121-.121-.121-.121-.121-.121-.121-.121-.121-.121-.121-.121-.121-.121-.121-.121-.122-.121-.121-.121-.121-.121-.121-.121-.121-.121-.121-.121-.121-.121-.121-.121-.121-.121-.121-.121-.121-.121-.121-.121-.121-.121-.121-.121-.121-.121-.121-.121-.121-.121-.121-.121-.121-.121-.121-.121-.122-.121-.121-.121-.121-.121-.121-.121-.121-.121-.121-.121-.121-.121-.121-.121-.121-.121-.121-.121-.121-.121-.121-.121-.121-.121-.121-.121-.121-.121-.121-.121-.121-.121-.121-.121-.121-.121-.121-.121-.121-.121-.121-.121-.121-.121-.122-.121-.121-.121-.121-.121-.121-.121-.121-.121-.121-.121-.121-.121-.121-.121-.121-.121-.121-.121-.121-.121-.121-.121-.121-.121-.121-.121-.121-.121-.121-.121-.121-.121-.121-.121-.121-.121-.121-.121-.121-.121-.121-.121-.121-.121-.121-.121-.121-.121-.121-.121-.121-.121-.121-.121-.121-.121-.122-.121-.121-.121-.121-.121-.121-.121-.121-.121-.121-.121-.121-.121-.121-.121-.121-.121-.121-.121-.121-.121-.121-.121-.121-.121-.121-.121-.121-.121-.121-.121-.121-.121-.121-.121-.121-.121-.121-.121-.121-.121-.121-.121-.121-.121-.121-.121-.121-.121-.121-.121-.121-.121-.121-.121-.121-.121-.121-.121-.121-.121-.121-.121-.121-.121-.121-.121-.121-.121-.121-.121-.121-.121-.121-.121-.121-.121-.121-.121-.121-.122-.121-.121-.121-.121-.121-.121-.121-.121-.121-.121-.121-.121-.121-.121-.121-.121-.121-.121-.121-.121-.121-.121-.121-.121-.121-.121-.121-.121-.121-.121-.121-.121-.121-.121-.121-.121-.121-.121-.121-.121-.121-.121-.121-.121-.121-.121-.121-.121-.121-.121-.121-.121-.121-.121-.121-.121-.121-.121-.121-.121-.121-.121-.121-.121-.121-.121-.121-.121-.121-.121-.121-.121-.121-.121-.121-.121-.121-.121-.121-.121-.121-.121-.121-.121-.121-.121-.121-.121-.121-.121-.121-.121-.121-.121-.121-.121-.121-.121-.121-.121-.121-.121-.121-.121-.121-.121-.121-.121-.121-.121-.121-.121-.121-.121-.121-.121-.121-.121-.121-.121-.121-.121-.121-.121-.121-.121-.121-.121-.121-.121-.121-.121-.121-.121-.122-.121-.121-.121-.121-.121-.121-.121-.121-.121-.121-.121-.121-.121-.121-.121-.121-.121-.121-.121-.121-.121-.121-.121-.121-.121-.121-.121-.121-.121-.121-.121-.121-.121-.121-.121-.121-.121-.121-.121-.121-.121-.121-.121-.121-.121-.121-.121-.121-.121-.121-.121-.121-.121-.121-.121-.121-.121-.121-.121-.121-.121-.121-.121-.121-.121-.121-.121-.121-.121-.121-.121-.121-.121-.121-.121-.121-.088v.12151h-1.5c-1.64 0-3.277-.00226-4.913-.00451-3.266-.0045-6.527-.00899-9.793.00449zm0 0c1.71.15547 2.795 1.30671 2.833 2.99029zm2.89 17.59733v-.0011c-.107-2.1778-.101-4.3717-.095-6.5187.002-.6295.003-1.2551.002-1.8749 0-.0004 0-.0007 0-.001l1.5-.0027c-.002-.85124.011-1.70248.025-2.55371zm0 0c.126 2.5032.977 5.0475 3.257 6.8161l.002.0012m-3.259-6.8173 3.259 6.8173m0 0c1.077.8333 2.316 1.4107 3.417 1.8761l.002.0009m-3.419-1.877 3.419 1.877m0 0c2.615 1.1003 5.095 2.372 7.41 3.9391 3.059 2.0768 5.129 4.7863 6.144 8.3046.385 1.3471.567 2.7137.59 4.1486v.0023m-14.144-16.3946 14.144 16.3946m0 0c.102 5.662.243 11.3225.395 16.9741m-.395-16.9741 1.5-.0268c.101 5.6552.243 11.3104.395 16.9606m0 0-1.5.0399v.0004m1.5-.0403c.028 1.0681.055 2.1362.081 3.2043.1 4.0604.2 8.1201.42 12.1766zm-1.5.0403c.029 1.0609.055 2.1242.081 3.1892.1 4.0632.2 8.1517.422 12.2328v.002c.187 3.3523.443 6.9854 1.845 10.4306m-2.348-25.8546 2.348 25.8546m0 0c0-.0003 0-.0006 0-.0009l1.39-.5645zm0 0c.957 2.3538 2.468 4.3234 4.415 5.8961m-4.415-5.8961-212.93931 32.8325m217.35431-26.9364c.001.0004.001.0008.002.0013l.942-1.1671zm0 0c.911.7379 1.84 1.4457 2.751 2.1384l.151.1145c.864.657 1.712 1.3012 2.543 1.9653l.001.0006c2.323 1.8551 4.619 3.7416 6.923 5.6406l.002.001c.582.479 1.113.944 1.663 1.427.393.344.796.697 1.234 1.069l.001.001c2.224 1.885 3.365 4.339 3.68 7.292.304 2.857.023 5.744-.394 8.743-.069.492-.131.974-.193 1.446-.226 1.74-.436 3.355-.889 4.91-.963 3.284-2.268 6.335-4.353 8.93l-.001.001c-.216.27-.423.532-.624.787-1.001 1.273-1.857 2.359-3.005 3.199-1.16.848-2.334 1.686-3.513 2.504l-.002.001c-.859.598-1.715 1.195-2.569 1.792-2.699 1.884-5.383 3.759-8.102 5.586-2.968 1.99-6.289 3.203-9.866 3.801-2.898.482-5.82.899-8.74 1.267h-.001c-.66.084-1.284.075-2.014.065-.337-.005-.696-.009-1.092-.006h-.005c-1.362.017-2.727.032-4.093.046-2.741.03-5.487.059-8.227.106l.026 1.5m0 0c-2.806.047-5.612.103-8.417.158-3.508.069-7.016.138-10.524.191m18.941-.349c2.735-.047 5.473-.077 8.211-.106 1.367-.014 2.734-.029 4.101-.046m-12.312.152 12.312-.152m-31.253.501-.022-1.499zm0 0c-4.368.066-8.737.117-13.106.168-3.398.04-6.795.079-10.193.126-1.639.022-3.278.062-4.918.101-3.159.075-6.319.15-9.476.107-5.358-.07-10.716-.23-16.075-.389-2.048-.061-4.097-.122-6.146-.178-2.8048-.076-5.6089-.158-8.413-.239-3.36-.097-6.7198-.195-10.0812-.283-3.9429-.101-7.8843-.195-11.8259-.288-3.149-.075-6.2981-.15-9.4482-.228-.7414-.018-1.4828-.032-2.2241-.047-2.2252-.042-4.4497-.085-6.6714-.222-1.6244-.099-3.2387-.347-4.8512-.594-.3626-.056-.725-.111-1.0875-.165m0 0 .2208-1.484s-.0001 0-.0002 0c-.1872-.028-.3742-.055-.5609-.083-2.2326-.332-4.425-.657-6.598-1.08h-.001c-4.1225-.799-7.9963-2.137-11.5231-4.323-.0005 0-.0009 0-.0014-.001l-.7903 1.275m19.2541 5.696c-.1888-.028-.3776-.056-.5664-.084-2.2261-.331-4.4508-.661-6.6583-1.091m7.2247 1.175-7.2247-1.175m-12.0294-4.521c-1.3454-.836-2.7144-1.634-4.0835-2.432-1.6655-.97-3.3309-1.941-4.9537-2.98-2.9035-1.858-5.7633-3.779-8.6234-5.701-1.15455-.776-2.30917-1.552-3.46672-2.324-1.15434-.769-2.30867-1.544-3.44781-2.334-2.20235-1.524-3.250361-3.69-3.3921214-6.313-.1468226-2.699.1772004-5.367.5467894-8.035m27.420462 30.119c3.7162 2.304 7.7715 3.696 12.0294 4.521m-12.0294-4.521 12.0294 4.521m-39.449862-34.64 1.485622.207c.00004 0 .00009 0 .00013-.001m-1.485752-.206c.298709-2.141.597422-4.288.769552-6.445m-.769552 6.445 1.485812.206c-.00002 0-.00004 0-.00006 0m0 0-.7162-6.651m0 0c.25315-3.119 1.7315-5.503 4.21231-7.285 2.50224-1.802 5.0353-3.561 7.568-5.32.8699-.604 1.7398-1.2081 2.6084-1.8139.7289-.5098 1.4704-1.0044 2.212-1.4992 1.571-1.0482 3.1427-2.0968 4.5975-3.2902 3.6453-2.9972 6.8146-6.4552 8.8043-10.8194.2785-.6126.4304-1.3315.4658-2.0099zm32.35791-42.0224c.1156-5.8144.1915-11.6327.2672-17.4424.0138-1.0614.0277-2.1225.0417-3.1833l.0001-.0004.0002-.0206c.0455-3.5051.091-7.0166.091-10.5347 0-2.2328.4666-4.1127 1.3654-5.6757.8966-1.5592 2.2714-2.8872 4.2205-3.9474.689-.3747 1.3878-.6322 2.1922-.9286.3532-.1302.7268-.2678 1.1289-.4262zm0 0v.0003l-1.4998-.0299zm200.0026 66.3544c2.253-2.805 3.63-6.06 4.622-9.447.49-1.679.719-3.443.946-5.2.06-.458.119-.916.183-1.372.42-3.022.724-6.06.4-9.108-.349-3.275-1.64-6.106-4.202-8.277-.397-.338-.79-.681-1.182-1.025-.573-.501-1.145-1.003-1.734-1.487zm0 0c-.196.244-.389.49-.582.735m.582-.735-.582.735m-40.104 18.823c.315-.003.632.001.948.006.782.01 1.565.021 2.333-.077zm-142.1915-131.1554-.0013.0005c-1.7629.7308-3.5564 1.4263-5.3307 2.1143-.8346.3236-1.6649.6456-2.4857.9688zm0 0c1.5638-.6501 2.7917-1.8027 3.58-3.2659l.003-.0056m-3.583 3.2715 3.583-3.2715m0 0c.3857-.7231.6462-1.6345.632-2.5246m-.632 2.5246 18.1837-22.369848m0 0 .0073 1.499978c-1.0679.00521-2.1212.00061-3.1664-.00397-2.0595-.00901-4.0881-.01788-6.1373.04873-1.7109.05789-3.4434.26562-5.1554.57861-1.4671.27148-2.4534 1.1519-3.0542 2.70156-.3112.8063-.3347 1.68085-.3092 2.84201.0271 1.20914.0571 2.42153.0871 3.63583.0703 2.8421.1408 5.6949.1764 8.5425m17.5517-19.845248.0073 1.499978c4.9578-.02433 9.9148-.05028 14.8712-.07623m-14.8785-1.423748 14.8785 1.423748m-32.4302 18.4215v.0027l-1.4999.0187 1.4998-.0252c0 .0013 0 .0025.0001.0038zm32.4302-18.4215c7.4208-.03885 14.8403-.0777 22.2583-.11109zm145.6503 136.55c-1.002 1.276-2.003 2.551-3.332 3.523m3.332-3.523-3.332 3.523m0 0c-1.169.856-2.354 1.701-3.544 2.527z" stroke="#000" stroke-width="3"/></svg>