<svg fill="none" height="75" viewBox="0 0 76 75" width="76" xmlns="http://www.w3.org/2000/svg"><path d="m23.6842 73.4687h.0001c2.9118.0131 5.2836.0051 7.7723-.0033 1.6325-.0055 3.3153-.0111 5.2337-.0111h4.7147c2.5135 0 4.2745.009 6.0326.018l.0027.0001c1.7564.009 3.5104.018 6.0145.018 1.8715 0 3.7197.0024 5.5597.0048 3.655.0048 7.2777.0096 10.9877-.0048h.0005c1.2469-.0045 2.2513-.363 2.9382-.9523.6644-.5701 1.1592-1.4631 1.2212-2.8195.0636-1.4236.0679-2.8357.0724-4.284.0017-.5539.0034-1.113.0085-1.6802v-.0012c.0572-5.8707.1109-11.7379.1646-17.6092.0095-1.0461.0206-2.0905.0316-3.1338.0264-2.5031.0528-5 .0579-7.5004.0003-.2044.0007-.4082.0012-.6116.0043-2.0629.0086-4.0769-.1027-6.0797-.0923-1.6328-.5205-2.665-1.1809-3.4102-.6859-.774-1.7686-1.405-3.4842-1.9437h-.0001c-.8624-.2709-1.7566-.4647-2.7256-.6747l-.125-.0271-.0006-.0002c-1.3537-.2942-2.5148-.9408-3.4807-1.9473-1.5115-1.5726-2.3016-3.4666-2.5966-5.4912-.152-1.038-.2865-2.1648-.4179-3.266-.1031-.8635-.2043-1.7113-.3106-2.4882-.0518-.37598-.0959-.73333-.1381-1.07455-.2006-1.6229-.3561-2.88088-1.0685-4.04255l-.0001-.00025c-.6726-1.09718-1.2735-1.75232-2.0141-2.00205zm0 0c-2.5321-.0111-5.0579-.0402-7.5897-.0693-1.5612-.018-3.1246-.036-4.6931-.0498m12.2828.1191-12.2828-.1191m0 0c-.5863-.0052-1.1551-.0046-1.71495-.004-1.04507.0012-2.05868.0023-3.09551-.0348h-.00105c-.74447-.0262-1.47499-.1137-2.14982-.2816l-.00094-.0002c-.77257-.1917-1.32975-.5145-1.72528-.9203-.39296-.4032-.69663-.9603-.85185-1.7362-.19212-.969-.2925-1.9819-.32276-2.9978-.03423-1.1981-.03083-2.3563-.02737-3.5407.00234-.7961.0047-1.604-.0043-2.4438l-.00001-.0009c-.02841-2.5107.01207-4.9558.32088-7.3681l.00027-.0021c.04425-.3496.04533-.7506.04603-1.0127.00019-.0704.00036-.1307.00132-.1774v-.0001c.01918-.9322.03712-1.8623.05504-2.7912.03574-1.8531.07139-3.7017.11663-5.5535.03461-1.3069.38168-2.5687.78562-4.0372.03168-.1152.06372-.2317.09598-.3495l.00009-.0004c.45743-1.6725.56696-4.0529.57058-5.5936v-.0012c.00071-.4549.00558-.8878.01032-1.3094.01834-1.6306.03478-3.0918-.19871-5.0003-.07492-.6168-.05926-1.2262-.04057-1.9532.00579-.2252.01187-.4618.01563-.7134l.00004-.0026c.00876-.6594.02807-1.3209.04782-1.9958l.00024-.0083c.01954-.668.03948-1.3495.04858-2.032zm3.4704-71.59072-.002.00028c-1.5432.22185-2.6721.45322-3.6233 1.18469zm0 0c1.5488-.2247 3.089-.20793 4.7624-.18971.4316.0047.872.00949 1.3237.01027h.0026m-6.0887.17944 6.0887-.17944m0 0c1.7294 0 3.4681-.01177 5.2008-.02349 1.1506-.00779 2.2986-.01556 3.4394-.01985l.0025-.00001m-8.6427.04335 8.6427-.04335m0 0c3.3228-.01806 6.6444-.03609 9.9618-.03609 2.2495 0 4.4979.01836 6.7526.03677.9031.00737 1.8073.01475 2.7129.02097l.0025.00001m-19.4298-.02166 19.4298.02166m0 0c.4997.00262.9599-.00642 1.3967-.015.9134-.01794 1.7238-.03386 2.5762.06317l.0009.00011m-3.9738-.04828 3.9738.04828m0 0c1.3055.1478 2.6148.4295 3.8457.84445zm-44.41787 5.15397c.40627-1.53742 1.30581-2.77643 2.65747-3.81607l-7.86304 18.54267c.00977-.697.161-1.1699.37785-1.5022.2109-.3231.5588-.629 1.17207-.8694l.00323-.0012c.57097-.2254 1.06925-.5399 1.47679-.8289l.00117-.0008c1.19863-.8516 1.26733-2.212 1.29672-2.7937.00066-.0131.0013-.0258.00194-.0381l.00022-.0045c.0265-.546.03476-1.0866.04146-1.6023.00057-.0437.00112-.0871.00168-.1304.00609-.4756.01189-.9289.02913-1.381l.00003-.0007c.07151-1.8996.32635-3.76403.80328-5.5734z" stroke="#000" stroke-width="3"/></svg>