<svg fill="none" height="37" viewBox="0 0 57 37" width="57" xmlns="http://www.w3.org/2000/svg"><path d="m19.4579 34.5021c.2081.0923.4157.1868.6235.2814.7745.3526 1.5515.7063 2.3622.9473 1.0782.3218 2.1827.4435 3.2951.4842m-6.2808-1.7129 11.5479 1.7093c-.5708.0085-1.1416.0056-1.7125.0028-.2808-.0014-.5616-.0028-.8424-.0028-.0014 0-.0029 0-.0043 0l-.0002-.014-.0093.014v.0065c-.0014 0-.0029 0-.0043 0-.1401.0016-.2802.0034-.4205.0052-.7577.0097-1.5175.0195-2.2736-.0081m-6.2808-1.7129c-1.0949-.4838-2.0275-1.1936-2.9219-1.9893-.8244-.7353-1.7475-1.3878-2.8552-1.6329-.7798-.1719-1.5851-.261-2.3872-.3151zm6.2808 1.7129-2.2549-1.5036h2.1985m.0564 1.5036-.0564-1.5036m0 0h2.7548c.3017 0 .5951.0015.884.0029.5612.0028 1.1057.0055 1.6624-.0027l.0017-.0001c2.8948-.0397 5.4337-.9977 7.6952-2.8321l.0001-.0001c.1002-.0813.2034-.1658.3094-.2525.4128-.3378.8659-.7086 1.3336-1.0477l.0033-.0024c.8183-.5901 1.8716-1.2128 3.1838-1.3566.7949-.0872 1.5922-.1337 2.3431-.1774.0594-.0035.1184-.0069.1771-.0104l.0022-.0001c.3792-.0217.7589-.0435 1.1391-.0654 1.9597-.1128 3.9312-.2263 5.9021-.3174l.0014-.0001c.5172-.0233 1.0577-.2735 1.511-.7155.4588-.4472.7338-1.0006.7976-1.4725.1612-1.1937.1251-2.4539.0644-3.8225l-.0001-.0007c-.107-2.4399-.2836-4.8823-.4742-7.3389-.0192-.2406-.0359-.4724-.0521-.6965-.0744-1.0292-.1373-1.8987-.3644-2.7316l-.0006-.002c-.4495-1.6574-1.338-3.19014-2.4767-4.6808-.4674-.60886-.9293-1.19311-1.3991-1.78725-.3362-.42535-.6765-.85576-1.0257-1.3039l-.0007-.00082c-.9742-1.25219-2.0413-2.07332-3.3759-2.36491l-.0002-.00002c-2.177-.4758-4.2215-.22759-6.1493.83186-.6759.37314-1.345.77073-2.0176 1.18365l-.0008.00051c-.8711.53406-1.8021.78399-2.743.84509l-.004.00025c-.3678.0229-.705.03875-1.0288.05396-.521.02449-1.007.04733-1.5293.09529-2.0256.19019-4.1223.1251-6.1028.06362-.8883-.02758-1.7532-.05443-2.5778-.0572h-.0007c-.8194-.00315-1.6357-.08279-2.3711-.15454-.0843-.00822-.1674-.01633-.2494-.02422l-.0019-.00017c-1.2868-.12534-2.3724-.71403-3.167-1.14488-.0276-.01497-.0548-.02975-.0818-.04432l.7141-1.31908-.713 1.31967c-.3111-.16809-.6195-.35926-.8811-.52146-.0613-.03798-.12-.07437-.1756-.10851-.3173-.19487-.5753-.34394-.8262-.4556l-.0024-.00107c-1.3728-.61369-2.8504-.84221-4.4435-.76554l-.0004.00002c-1.5767.07544-2.84816.69735-3.97366 1.86992zm0 0c-.9854-.0402-1.9107-.1496-2.8096-.418l-.0018-.0005c-.7017-.2085-1.3567-.5063-2.1141-.8507-.2204-.1002-.4495-.2043-.6909-.3113l-.0017-.0008c-.8885-.3926-1.6859-.986-2.5305-1.7374-.8916-.7951-2.0473-1.6496-3.5288-1.9774l-.0012-.0002c-.8808-.1942-1.7674-.2901-2.6079-.3468-1.67009-.1141-3.34308-.2029-5.00315-.291-.29898-.0158-.59754-.0317-.89558-.0476-.4197-.0237-.89252-.0371-1.38356.002-.41423.0289-1.09168-.1773-1.69335-.7164-.57595-.5161-.93032-1.2029-.91993-1.9528l.00001-.0005c.00517-.3842.00992-.7673.01466-1.1495.02755-2.2213.05471-4.4118.16192-6.5988l.00001-.0001c.08512-1.7393.28247-3.4794.48589-5.273.01788-.1577.03581-.3158.05371-.4743.0413-.3577.16597-.7634.35637-1.2365l.00069-.0017c.4682-1.1676 1.06349-2.28137 1.76615-3.36376l.00059-.0009c1.06306-1.64015 2.26141-3.1569 3.61124-4.5644z" stroke="#000" stroke-width="3"/></svg>