<svg fill="none" height="72" viewBox="0 0 203 72" width="203" xmlns="http://www.w3.org/2000/svg"><path d="m7.53977 26.6838.4682.8923.88869-.475 15.08504-8.0629v49.5645 1h1 14.0309 1v-1-65.20544-1h-1-14.0309-.2641l-.2297.13042-21.98169 12.48222-.84116.4776.44944.8566zm78.38793-25.6838c-8.5213 0-15.5501 3.38781-20.4259 9.5179-4.8563 6.1056-7.5134 14.8475-7.5134 25.4821 0 10.6803 2.6567 19.423 7.514 25.5178 4.877 6.1195 11.9063 9.4822 20.4253 9.4822 8.5213 0 15.5503-3.3878 20.4263-9.5179 4.856-6.1056 7.513-14.8475 7.513-25.4821s-2.657-19.3765-7.513-25.4821c-4.876-6.13009-11.905-9.5179-20.4263-9.5179zm0 57.1014c-3.8828 0-6.9085-1.7521-9.0188-5.33-2.1491-3.6438-3.3573-9.2115-3.3573-16.7714s1.2082-13.1276 3.3573-16.7714c2.1103-3.5779 5.136-5.33 9.0188-5.33 3.8827 0 6.9085 1.7521 9.0187 5.33 2.1492 3.6438 3.3574 9.2115 3.3574 16.7714s-1.2082 13.1276-3.3574 16.7714c-2.1102 3.5779-5.136 5.33-9.0187 5.33zm61.1333-57.1014c-8.522 0-15.55 3.38781-20.426 9.5179-4.856 6.1056-7.514 14.8475-7.514 25.4821 0 10.6803 2.657 19.423 7.514 25.5178 4.877 6.1195 11.907 9.4822 20.426 9.4822 8.521 0 15.55-3.3878 20.426-9.5179 4.856-6.1056 7.513-14.8475 7.513-25.4821s-2.657-19.3765-7.513-25.4821c-4.876-6.13009-11.905-9.5179-20.426-9.5179zm0 57.1014c-3.883 0-6.909-1.7521-9.019-5.33-2.149-3.6438-3.357-9.2115-3.357-16.7714s1.208-13.1276 3.357-16.7714c2.11-3.5779 5.136-5.33 9.019-5.33 3.882 0 6.908 1.7521 9.018 5.33 2.15 3.6438 3.358 9.2115 3.358 16.7714s-1.208 13.1276-3.358 16.7714c-2.11 3.5779-5.136 5.33-9.018 5.33z" stroke="#d0011b" stroke-width="2"/><path d="m188.415 14.6395h-9.415v-5.22453h9.415v-9.41497h5.224v9.41497h9.361v5.22453h-9.361v9.3605h-5.224z" fill="#d0011b"/></svg>