<svg fill="none" height="16" viewBox="0 0 16 16" width="16" xmlns="http://www.w3.org/2000/svg"><path d="m13.25 6.4375c.237 0 .4375.09115.6016.27344.1823.16406.2734.36458.2734.60156v.875c0 .23698-.0911.44661-.2734.62891-.1641.16406-.3646.24609-.6016.24609h-3.9375v3.9375c0 .237-.09115.4375-.27344.6016-.16406.1823-.36458.2734-.60156.2734h-.875c-.23698 0-.44661-.0911-.62891-.2734-.16406-.1641-.24609-.3646-.24609-.6016v-3.9375h-3.9375c-.23698 0-.44661-.08203-.62891-.24609-.16406-.1823-.24609-.39193-.24609-.62891v-.875c0-.23698.08203-.4375.24609-.60156.1823-.18229.39193-.27344.62891-.27344h3.9375v-3.9375c0-.23698.08203-.4375.24609-.60156.1823-.18229.39193-.27344.62891-.27344h.875c.23698 0 .4375.09115.60156.27344.18229.16406.27344.36458.27344.60156v3.9375z" fill="currentColor"/></svg>