<svg fill="none" height="30" viewBox="0 0 25 30" width="25" xmlns="http://www.w3.org/2000/svg"><path d="m5.64639 7.39588c-.41593-3.94572 2.88918-7.265216 6.75731-7.3141985 1.9645-.024868 3.6564.6902745 5.0245 2.1303585 1.3577 1.42878 1.9667 3.162 1.9169 5.18309.595 0 1.1654-.01206 1.7343.00527.3008.00905.6113.0309.8987.11455 1.0428.30444 1.7194 1.20496 1.8004 2.35869.2785 3.97736.5525 7.95546.8311 11.93286.1225 1.7438.248 3.4868.3787 5.2298.1129 1.4981-.6001 2.6285-1.8939 2.954-.2592.0648-.5348.0867-.8029.0867-6.5322.0045-13.06445.0053-19.59669.0022-1.69712 0-2.797834-1.1657-2.68716796-2.8854.17528196-2.7136.38398696-5.4242.57560896-8.1363.19088-2.7122.37656-5.425.566699-8.1371.03194-.456.0505-.9141.11883-1.36477.18791-1.24868 1.21287-2.1394 2.46287-2.15749.62908-.00904 1.25891-.0015 1.91548-.0015zm2.17543-.01959h9.32188c.2325-1.56216-.6365-3.40465-2.0959-4.32854-1.6578-1.04973-3.375-1.07987-5.0342-.03391-1.5627.98492-2.25046 2.47926-2.19178 4.36245z" fill="currentColor"/></svg>