<svg fill="none" height="22" viewBox="0 0 22 22" width="22" xmlns="http://www.w3.org/2000/svg"><path d="m11 21s8-7.4629 8-13.125c0-2.08858-.8429-4.09162-2.3431-5.56847-1.5003-1.476845-3.5352-2.30653-5.6569-2.30653-2.12173 0-4.15656.829685-5.65685 2.30653-1.5003 1.47685-2.34315 3.47989-2.34315 5.56847 0 5.6621 8 13.125 8 13.125zm0-9.1875c-1.06087 0-2.07828-.4148-2.82843-1.1533-.75014-.73839-1.17157-1.73991-1.17157-2.7842s.42143-2.04581 1.17157-2.78423c.75015-.73843 1.76756-1.15327 2.82843-1.15327 1.0609 0 2.0783.41484 2.8284 1.15327.7502.73842 1.1716 1.73994 1.1716 2.78423s-.4214 2.04581-1.1716 2.7842c-.7501.7385-1.7675 1.1533-2.8284 1.1533z" fill="currentColor"/></svg>