<svg fill="none" height="31" viewBox="0 0 42 31" width="42" xmlns="http://www.w3.org/2000/svg"><g fill="currentColor"><path d="m1.82109.421645c.14766-.072671.43477-.193789.63985-.274535.34453-.1291929 1.50937-.13726751 18.49806-.14534206 16.316-.00807456 18.1617.00807456 18.498.12111806.2051.072671.5086.19379.6809.28261.1641.080745.4758.306833.6809.492548.2132.193786.4347.444096.4921.565216.0657.1292.1149.29876.1149.38758s-.0492.25839-.0985.37143c-.0574.11305-1.8949 1.70373-4.0851 3.52858-2.1902 1.83293-5.6602 4.73975-7.711 6.46775-2.0507 1.736-4.4542 3.7708-5.332 4.5298-.8777.7509-1.7637 1.5099-1.9687 1.6795-.2133.1777-.5496.3553-.7957.428-.3774.0969-.4922.0969-.8614 0-.3773-.105-.6562-.3069-2.1164-1.5584-.9269-.7913-3.4945-2.9715-5.7011-4.8286-2.2149-1.8652-5.80785-4.88512-7.99809-6.71805-2.19023-1.82485-4.027732-3.41553-4.085154-3.52858-.049219-.11304-.098437-.28261-.098437-.37143s.049218-.25838.114843-.38758c.057422-.12112.278907-.37143.492188-.565216.20508-.185715.50039-.403728.63984-.476399z"/><path d="m.13125 5.48439c.082031-.12919.196875-.27453.270703-.3149.073828-.04845.278906-.08882.459375-.08882.221482 0 .410152.05652.574222.17764.13945.10496 2.35429 1.94596 4.92187 4.0938 2.57578 2.15589 5.72578 4.80439 7.01368 5.89439 1.2879 1.0901 2.9121 2.4708 3.6094 3.0764.6972.6056 1.4765 1.2597 1.7226 1.4615.2461.1938.6563.4441.9024.5491s.6644.218.9269.2584c.2871.0484.6645.0404.9844-.0081.2789-.0484.7301-.1857 1.0008-.3149.2707-.1211.8285-.5168 1.2387-.864.4101-.3552 1.7964-1.5341 3.0761-2.6242 1.2797-1.0981 4.8809-4.1261 7.9899-6.7342 3.109-2.60806 5.734-4.79627 5.8242-4.85279.0902-.0646.3035-.11304.4758-.11304.164 0 .3773.03229.4675.08074.0903.04037.2215.18572.2872.32298.1066.20994.123 1.63914.123 11.36091 0 10.0205-.0082 11.1671-.1313 11.5708-.0738.2423-.205.5895-.3035.7671-.0902.1777-.3363.5006-.5414.7106-.205.218-.4922.4602-.6234.541-.1313.0888-.484.2503-1.3125.5652h-36.17579l-.5332-.2019c-.29532-.113-.63985-.2745-.7793-.3633-.13125-.0808-.41836-.323-.623438-.541-.205078-.21-.442969-.5168-.525-.6702s-.213281-.4845-.303516-.7267c-.147656-.428-.147656-.9205-.147656-11.6032 0-10.21427.00820313-11.19129.13125-11.40931z"/></g></svg>