<svg fill="none" height="38" viewBox="0 0 38 38" width="38" xmlns="http://www.w3.org/2000/svg"><path d="m13.9309 13.8701c1.8499 3.5093 4.0318 6.6448 7.369 8.7965.5704.3678 1.2089.6281 1.8122.9446.2809.1466.4816.1002.7127-.1393.9936-1.0276 2.0092-2.0333 3.021-3.045.6604-.6611 1.2296-.666 1.8888-.0049 2.9323 2.9387 5.8633 5.8798 8.792 8.8234.636.6403.63 1.2097-.011 1.8549-1.7793 1.7913-3.5549 3.5863-5.3452 5.3654-1.53 1.52-3.3178 1.9098-5.3489 1.173-9.9571-3.6107-17.41728-10.2164-22.85738-19.239-1.39256-2.3094-2.56376-4.73-3.553755-7.241-.818507-2.06749-.40864573-4.02743 1.194315-5.55238 1.81701-1.729 3.64619-3.44701 5.47415-5.166237.62878-.591405 1.17485-.588961 1.78417.020772 2.7705 2.777405 5.5386 5.559695 8.3043 8.343205.6385.64273.6336 1.21334-.0098 1.85734-1.0629 1.0655-2.1332 2.1236-3.2266 3.2099z" fill="currentColor"/></svg>