<svg fill="none" height="17" viewBox="0 0 16 17" width="16" xmlns="http://www.w3.org/2000/svg"><path d="m9.85938 8.25 2.73442 2.7344c.164.164.246.3646.246.6015 0 .237-.082.4467-.246.6289l-.6016.6016c-.1823.1641-.3919.2461-.6289.2461s-.4375-.082-.6016-.2461l-2.73436-2.7344-2.73437 2.7344c-.16406.1641-.36458.2461-.60156.2461s-.44662-.082-.62891-.2461l-.60156-.6016c-.16406-.1822-.2461-.3919-.2461-.6289 0-.2369.08204-.4375.2461-.6015l2.73437-2.7344-2.73437-2.73438c-.16406-.16406-.2461-.36458-.2461-.60156s.08204-.44661.2461-.6289l.60156-.60157c.18229-.16406.39193-.24609.62891-.24609s.4375.08203.60156.24609l2.73437 2.73438 2.73436-2.73438c.1641-.16406.3646-.24609.6016-.24609s.4466.08203.6289.24609l.6016.60157c.164.18229.246.39192.246.6289s-.082.4375-.246.60156z" fill="currentColor"/></svg>