<svg fill="none" height="22" viewBox="0 0 22 22" width="22" xmlns="http://www.w3.org/2000/svg"><g fill="currentColor"><path d="m20.9303 17.7312c-1.1537-1.1322-2.288-2.2843-3.4305-3.4278-.0499-.05-.1015-.0974-.1628-.156-.3734.3767-.7394.7463-1.1107 1.1203-.2139-.2297-.4116-.4428-.6217-.6694.0161-.022.0532-.0812.0972-.1345.9549-1.1607 1.5777-2.4818 1.8539-3.9567.2832-1.51048.1956-3.00211-.3036-4.46523-.4438-1.30222-1.1392-2.44946-2.1091-3.41913-1.3257-1.32429-2.9152-2.162658-4.7648-2.491442-.3004-.0532724-.60396-.0877113-.9065-.131298h-1.15801c-.45084.0710302-.90867.110312-1.35038.217396-2.9243.707611-5.04418 2.436014-6.21885 5.199734-1.163381 2.73628-.95811 5.44777.57981 8.00327 1.41325 2.3472 3.51594 3.7555 6.21348 4.1763 2.51645.3928 4.80395-.2395 6.82065-1.8118.0903-.0705.1795-.1416.3085-.2427.0978.1103.1929.2238.295.3304.0994.1027.2058.198.317.3035-.3869.3836-.7603.7533-1.137 1.1262.0634.0711.0946.1093.1295.1437 1.2784 1.2812 2.5546 2.5652 3.8383 3.8421.9184.9137 2.2677.9503 3.1807.0947.3498-.3272.5685-.7302.6668-1.1989.0113-.0549.0285-.1082.043-.1625v-.558c-.1144-.7281-.5664-1.2382-1.0699-1.7322zm-12.05507-1.8296c-3.87543.0016-7.03886-3.1646-7.04101-7.0465-.00215-3.87653 3.16827-7.0519 7.03994-7.05082 3.87594.00053 7.03834 3.16784 7.03834 7.04921 0 3.88141-3.1581 7.04701-7.03727 7.04811z"/><path d="m14.6142 8.85247c.0032 3.15383-2.6073 5.76533-5.74867 5.74963-3.1559-.0161-5.72448-2.5915-5.73039-5.74586-.00537-3.1517 2.61479-5.77282 5.74813-5.74915 3.16553.02368 5.72773 2.59207 5.73093 5.74538z"/></g></svg>