<svg fill="none" height="32" viewBox="0 0 32 32" width="32" xmlns="http://www.w3.org/2000/svg"><path d="m16.9926 32.0003h-2c-.0901-.0184-.1795-.0418-.2704-.0551-.6787-.0993-1.3656-.1569-2.0351-.3005-3.57178-.7688-6.55342-2.5559-8.89983-5.3473-2.89232-3.444-4.131886-7.4382-3.7053416-11.9148.3030046-3.182 1.4958216-6.02756 3.5417316-8.48332 3.05176-3.66361 6.97664-5.653593 11.74704-5.8806381 3.0894-.1469119 5.9975.5742901 8.652 2.1711181 4.2195 2.53756 6.8122 6.23289 7.7237 11.08434.1068.5701.1636 1.1502.2429 1.7253v2c-.0176.0693-.0451.1386-.0501.2087-.182 2.4575-.8848 4.7588-2.1611 6.864-2.5384 4.1844-6.2137 6.7637-11.0317 7.6819-.5793.1102-1.1686.1645-1.753.2446zm.601-12.8197c.1352-1.3523.2671-2.667.399-3.9817.1995-1.9883.4015-3.9774.5968-5.96573.1019-1.0359.2496-2.07096.2755-3.10935.0526-2.08848-1.9967-3.4808-3.9441-2.72454-1.2529.48664-1.9223 1.63355-1.7938 3.13689.1119 1.30635.2571 2.61102.3873 3.91573.2229 2.227.4458 4.4541.6695 6.6803.0684.6803.1394 1.3606.2103 2.0484zm1.5927 6.4157c-.0017-1.7588-1.4458-3.202-3.1979-3.1962-1.7587.0059-3.1903 1.4449-3.1886 3.2054.0017 1.7562 1.4474 3.202 3.1978 3.1978 1.7538-.0034 3.1903-1.4491 3.1887-3.2079z" fill="currentColor"/></svg>