<svg fill="none" height="24" viewBox="0 0 18 24" width="18" xmlns="http://www.w3.org/2000/svg"><path d="m18 22.7993v-21.60064c-.0007-.218694-.0611-.433062-.1748-.620027-.1136-.186965-.2762-.339448-.4702-.441036-.194-.101587-.4121-.1484334-.6308-.13549202-.2187.01293942-.4297.08517462-.6104.20892902l-15.627834 10.800266c-.647955.4477-.647955 1.5253 0 1.9741l15.627834 10.8003c.1803.125.3914.1983.6105.212.219.0136.4377-.0329.6321-.1346s.3572-.2546.4707-.4422c.1134-.1875.1732-.4025.1729-.6216z" fill="currentColor"/></svg>