<svg fill="none" height="23" viewBox="0 0 32 23" width="32" xmlns="http://www.w3.org/2000/svg" xmlns:xlink="http://www.w3.org/1999/xlink"><clipPath id="a"><path d="m0 0h32v22.5882h-32z" transform="matrix(1 0 0 -1 0 22.5881)"/></clipPath><g clip-path="url(#a)"><path d="m31.2933 19.065c-.1836.681-.5416 1.3018-1.0385 1.8006-.4969.4989-1.1152.8583-1.7935 1.0426-2.4833.6799-12.4775.6799-12.4775.6799s-9.99478-.0205-12.47803-.7005c-.67831-.1843-1.29669-.5437-1.79357-1.0426-.49687-.4989-.854898-1.1197-1.038426-1.8007-.751125-4.4296-1.0425-11.17918.020625-15.43154.183547-.68096.541581-1.30178 1.038461-1.80062.49687-.49885 1.11524-.858315 1.79354-1.042611 2.48325-.6799065 12.4778-.6799065 12.4778-.6799065s9.9943 0 12.4775.6799065c.6783.184277 1.2967.543741 1.7936 1.042581.4969.49885.8549 1.11967 1.0385 1.80065.7922 4.43583 1.0364 11.18134-.0205 15.45224z" fill="#f00"/><path d="m12.8026 6.51787 8.291 4.82113-8.291 4.821z" fill="#fff"/></g></svg>