<svg fill="none" height="51" viewBox="0 0 688 51" width="688" xmlns="http://www.w3.org/2000/svg">
    <g clip-rule="evenodd" fill="#d0011b" fill-rule="evenodd">
        <path d="m675.655 49.4397c-.655 0-1.268-.3208-1.642-.8586l-12.525-18.0214h-5.273v16.88c0 1.1045-.895 2-2 2h-8.192c-1.104 0-2-.8955-2-2v-44.80005c0-1.10457.896-2.000002 2-2.000002h8.192c1.105 0 2 .895432 2 2.000002v16.75205h5.544l12.246-17.8821c.373-.544452.991-.869952 1.65-.869952h8.832c.748 0 1.433.416732 1.777 1.080442.343.66372.288 1.46366-.143 2.07398l-14.514 20.53263 15.105 21.9802c.42.6121.467 1.4068.121 2.064-.345.6573-1.027 1.0688-1.77 1.0688zm9.408-2h-9.408l-13.121-18.88h-8.319v18.88h-8.192v-44.80005h8.192v18.75205h8.599l12.841-18.75205h8.832l-15.318 21.67095z"/>
        <path d="m592.184 49.4397c-1.105 0-2-.8955-2-2v-44.80005c0-1.10457.895-2.000002 2-2.000002h8.192c1.104 0 2 .895432 2 2.000002v25.84945l20.469-27.05612c.378-.499687.968-.793332 1.595-.793332h7.744c1.104 0 2 .895432 2 2.000002v44.80005c0 1.1045-.896 2-2 2h-8.192c-1.105 0-2-.8955-2-2v-25.7951l-20.471 27.0033c-.378.4987-.968.7918-1.593.7918zm31.808-33.744v31.744h8.192v-44.80005h-7.744l-24.064 31.80805v-31.80805h-8.192v44.80005h7.744z"/>
        <path d="m545.463 49.4397c-1.105 0-2-.8955-2-2v-44.80005c0-1.10457.895-2.000002 2-2.000002h18.432c4.173 0 7.86.671732 10.997 2.096122 3.173 1.42175 5.687 3.49814 7.453 6.24636 1.775 2.75997 2.622 5.98607 2.622 9.59347 0 3.6075-.847 6.8336-2.622 9.5936-1.766 2.7482-4.28 4.8246-7.453 6.2463-3.137 1.4244-6.824 2.0962-10.997 2.0962h-8.112v10.928c0 1.1045-.895 2-2 2zm8.32-14.928h10.112c3.968 0 7.36-.64 10.176-1.92 2.859-1.2801 5.056-3.1147 6.592-5.504 1.536-2.3894 2.304-5.2267 2.304-8.5121 0-3.2853-.768-6.1226-2.304-8.512-1.536-2.38929-3.733-4.22395-6.592-5.50395-2.816-1.28-6.208-1.92-10.176-1.92h-18.432v44.80005h8.32zm0-7.04h9.728c3.669 0 6.421-.768 8.256-2.304 1.877-1.5787 2.816-3.7761 2.816-6.5921 0-2.8586-.939-5.0559-2.816-6.5919-1.835-1.5361-4.587-2.30405-8.256-2.30405h-9.728zm2-2h7.728c3.439 0 5.646-.7273 6.972-1.8376 1.354-1.1398 2.1-2.7372 2.1-5.0585 0-2.3779-.755-3.9574-2.083-5.044l-.017-.0144c-1.326-1.1103-3.533-1.8376-6.972-1.8376h-7.728z"/>
        <path d="m496.498 49.4397c-1.105 0-2-.8955-2-2v-44.80005c0-1.10457.895-2.000002 2-2.000002h20.032c5.266 0 9.654 1.043742 12.93 3.374772 3.395 2.37092 5.07 5.84635 5.07 10.14518 0 3.9448-1.381 7.2198-4.198 9.6079.511.2865.998.5996 1.462.9401 3.311 2.4318 4.912 5.9708 4.912 10.3161 0 4.4484-1.675 8.1036-5.062 10.7319l-.015.0115c-3.352 2.5522-8.084 3.6726-13.883 3.6726zm31.994-24.3704c-.787-.3695-1.639-.6807-2.557-.9337.849-.3711 1.638-.8121 2.366-1.3229.066-.0464.132-.0934.197-.1411 2.688-2.0053 4.032-4.8426 4.032-8.512 0-3.712-1.408-6.54929-4.224-8.51195-2.816-2.00534-6.741-3.008-11.776-3.008h-20.032v44.80005h21.248c5.589 0 9.813-1.088 12.672-3.264 2.859-2.2187 4.288-5.2694 4.288-9.152 0-3.7974-1.365-6.6987-4.096-8.704-.643-.4725-1.349-.8893-2.118-1.2504zm-8.895-3.7534c.929-.2653 1.72-.6454 2.373-1.1403 1.408-1.1093 2.112-2.6879 2.112-4.7359 0-2.1334-.704-3.7334-2.112-4.8001-1.408-1.06662-3.456-1.59995-6.144-1.59995h-11.136v12.73605h11.136c.743 0 1.437-.0408 2.082-.1222.39-.0494.763-.1136 1.118-.1928.196-.0437.386-.092.571-.1448zm-12.907-1.5402h9.136c2.454 0 3.998-.4911 4.921-1.1828.845-.6722 1.335-1.6283 1.335-3.1532 0-1.6529-.516-2.5973-1.32-3.2059-.921-.6977-2.469-1.1942-4.936-1.1942h-9.136zm17.392 9.68c1.493 1.024 2.24 2.6666 2.24 4.928 0 2.2613-.747 3.9466-2.24 5.056-1.493 1.0666-3.691 1.5999-6.592 1.5999h-12.8v-13.184h12.8c2.901 0 5.099.5334 6.592 1.6001zm-17.392.3999v9.184h10.8c2.694 0 4.403-.5016 5.413-1.2159.866-.6498 1.419-1.6682 1.419-3.44 0-1.7871-.558-2.7213-1.371-3.2786-.011-.0072-.021-.0146-.031-.022-1.009-.7204-2.721-1.2275-5.43-1.2275z"/>
        <path d="m437.654 35.0472-.004-.0101c-1.308-3.0841-1.951-6.4245-1.951-9.9971 0-3.5705.642-6.8925 1.954-9.939 1.298-3.0594 3.138-5.71859 5.516-7.95828 2.373-2.27767 5.156-4.03549 8.329-5.2772 3.197-1.251002 6.647-1.86552 10.329-1.86552 3.72 0 7.173.612798 10.334 1.86763 3.171 1.2416 5.953 2.99871 8.325 5.27509 2.377 2.23971 4.217 4.89898 5.516 7.95828 1.311 3.0465 1.953 6.3685 1.953 9.939 0 3.5726-.642 6.913-1.951 9.9971-1.3 3.0651-3.143 5.7287-5.526 7.9713-2.371 2.2319-5.151 3.9646-8.317 5.2041-3.159 1.2536-6.59 1.8675-10.27 1.8675-3.721 0-7.193-.6134-10.393-1.8655-3.168-1.2397-5.949-2.973-8.322-5.2061l-.014-.0142c-2.369-2.2755-4.208-4.9289-5.508-7.947zm33.773 11.3048c2.944-1.152 5.504-2.752 7.68-4.8s3.862-4.48 5.056-7.296c1.195-2.816 1.792-5.888 1.792-9.216s-.597-6.3787-1.792-9.152c-1.194-2.816-2.88-5.248-5.056-7.296-2.176-2.09067-4.736-3.712-7.68-4.864-2.901-1.152-6.101-1.728-9.6-1.728-3.456 0-6.656.576-9.6 1.728s-5.504 2.77333-7.68 4.864c-2.176 2.048-3.861 4.48-5.056 7.296-1.194 2.7733-1.792 5.824-1.792 9.152s.598 6.4 1.792 9.216c1.195 2.7733 2.88 5.2053 5.056 7.296 2.176 2.048 4.736 3.648 7.68 4.8s6.166 1.728 9.664 1.728c3.456 0 6.635-.576 9.536-1.728zm3.077-15.7333.009-.0206c.696-1.6491 1.058-3.493 1.058-5.5581 0-2.0658-.362-3.882-1.052-5.4791-.007-.0166-.014-.0333-.021-.0501-.671-1.6784-1.612-3.1115-2.821-4.3206l-.021-.0212c-1.208-1.2444-2.634-2.1979-4.3-2.864-1.662-.6651-3.498-1.009-5.529-1.009-2.028 0-3.862.343-5.522 1.0064-1.626.6661-3.065 1.6248-4.328 2.8878-1.214 1.2149-2.181 2.657-2.895 4.3467-.655 1.6037-.999 3.4287-.999 5.5031 0 2.0233.342 3.8531 1.002 5.5108.714 1.687 1.682 3.1533 2.903 4.414 1.207 1.2038 2.637 2.1409 4.31 2.8102 1.663.6651 3.498 1.009 5.529 1.009s3.867-.3439 5.529-1.009c1.674-.6694 3.104-1.6069 4.311-2.8111 1.224-1.264 2.168-2.7084 2.837-4.3452zm-1.413 5.7493c-1.408 1.408-3.072 2.496-4.992 3.264s-4.01 1.152-6.272 1.152c-2.261 0-4.352-.384-6.272-1.152s-3.584-1.856-4.992-3.264c-1.408-1.4507-2.517-3.136-3.328-5.056-.768-1.92-1.152-4.0107-1.152-6.272 0-2.304.384-4.3947 1.152-6.272.811-1.92 1.92-3.584 3.328-4.992 1.451-1.4507 3.115-2.56 4.992-3.328 1.92-.768 4.011-1.152 6.272-1.152 2.262 0 4.352.384 6.272 1.152s3.584 1.8773 4.992 3.328c1.408 1.408 2.496 3.072 3.264 4.992.811 1.8773 1.216 3.968 1.216 6.272s-.405 4.416-1.216 6.336c-.768 1.8773-1.856 3.5413-3.264 4.992z"/>
        <path d="m424.88 49.4397c-.655 0-1.268-.3208-1.642-.8586l-12.525-18.0214h-5.273v16.88c0 1.1045-.895 2-2 2h-8.192c-1.105 0-2-.8955-2-2v-44.80005c0-1.10457.895-2.000002 2-2.000002h8.192c1.105 0 2 .895432 2 2.000002v16.75205h5.544l12.246-17.8821c.373-.544452.99-.869952 1.65-.869952h8.832c.747 0 1.432.416732 1.776 1.080442.344.66372.289 1.46366-.143 2.07398l-14.513 20.53263 15.104 21.9802c.421.6121.468 1.4068.122 2.064-.346.6573-1.027 1.0688-1.77 1.0688zm9.408-2h-9.408l-13.122-18.88h-8.318v18.88h-8.192v-44.80005h8.192v18.75205h8.598l12.842-18.75205h8.832l-15.318 21.67095z"/>
        <path d="m362.963 45.1512-.002.002c-3.631 2.9444-8.553 4.2865-14.508 4.2865h-19.264c-1.104 0-2-.8955-2-2v-44.80005c0-1.10457.896-2.000002 2-2.000002h8.192c1.105 0 2 .895432 2 2.000002v13.16795h10.416c5.607 0 10.241 1.2539 13.624 4.0402 3.483 2.8685 5.08 7.0955 5.08 12.2959 0 5.4902-1.768 9.9415-5.538 13.0075zm-13.166-27.3436c5.334 0 9.451 1.1947 12.352 3.5841 2.902 2.3893 4.352 5.9733 4.352 10.752 0 5.0346-1.6 8.8533-4.8 11.456-3.157 2.56-7.573 3.84-13.248 3.84h-19.264v-44.80005h8.192v15.16795zm4.398 19.4709.018-.0153c1.234-1.0285 1.968-2.5798 1.968-4.9915 0-2.388-.719-3.7354-1.805-4.53l-.025-.0187c-1.271-.961-3.275-1.5793-6.282-1.5793h-8.688v12.8959h8.688c2.91 0 4.858-.6789 6.126-1.7611zm-16.814 3.7611v-16.8959h10.688c3.243 0 5.739.6613 7.488 1.984 1.75 1.28 2.624 3.328 2.624 6.144 0 2.8586-.896 5.0346-2.688 6.528-1.749 1.4933-4.224 2.2399-7.424 2.2399z"/>
        <path d="m297.567 49.4397c-1.104 0-2-.8955-2-2v-35.7601h-12.784c-1.104 0-2-.8954-2-1.99995v-7.04c0-1.10457.896-2.000002 2-2.000002h37.888c1.105 0 2 .895432 2 2.000002v7.04c0 1.10455-.895 1.99995-2 1.99995h-12.848v35.7601c0 1.1045-.895 2-2 2zm8.256-39.76005h14.848v-7.04h-37.888v7.04h14.784v37.76005h8.256z"/>
        <path d="m232.004 48.5256c-.368-.5699-.423-1.2878-.144-1.9067l20.16-44.79998c.323-.7177 1.037-1.179272 1.824-1.179272h8.192c.786 0 1.499.460572 1.822 1.177102l20.224 44.80005c.28.6189.226 1.3373-.142 1.9078-.369.5705-1.001.9151-1.68.9151h-8.704c-.8 0-1.523-.4762-1.838-1.2108l-3.933-9.1572h-19.769l-3.918 9.1547c-.315.736-1.038 1.2133-1.838 1.2133h-8.576c-.679 0-1.311-.3442-1.68-.9141zm14.692-11.4539h22.407l4.453 10.368h8.704l-20.224-44.80005h-8.192l-20.16 44.80005h8.576zm11.183-26.1344-8.39 19.6064h16.81zm5.385 17.6064-5.382-12.5304-5.362 12.5304z"/>
        <path d="m191.03 44.7015c-.823-.5347-1.137-1.5882-.74-2.4863l2.688-6.08c.241-.5447.712-.9537 1.285-1.1158s1.189-.0604 1.679.2775c1.75 1.2055 3.657 2.1415 5.727 2.8078 2.135.6306 4.232.9606 6.296.9996 2.089.0394 3.925-.1983 5.528-.6828l.012-.0037c1.635-.4831 2.81-1.1703 3.632-1.9921.71-.7098 1.078-1.5765 1.078-2.7458 0-1.3305-.485-2.152-1.512-2.7573-.017-.0103-.034-.0209-.052-.0317-1.185-.7486-2.983-1.227-5.588-1.227h-10.432c-1.104 0-2-.8954-2-2v-6.528c0-1.1046.896-2 2-2h9.792c2.282 0 3.735-.469 4.624-1.136l.024-.0175c.888-.6455 1.288-1.4294 1.288-2.5425 0-.9744-.295-1.6428-.822-2.1698-.011-.011-.022-.022-.032-.0333-.599-.6274-1.503-1.1795-2.836-1.5758l-.014-.0044c-1.293-.3952-2.825-.5922-4.62-.5532-.015.0003-.029.0005-.044.0005-1.711 0-3.531.2661-5.466.819-.012.0035-.025.0069-.037.0101-1.912.5073-3.726 1.2679-5.447 2.2848-.505.2984-1.116.36-1.67.1686-.555-.1914-.997-.6166-1.211-1.163l-2.624-6.72004c-.369-.94597.029-2.01861.926-2.49439 2.987-1.58408 6.118-2.6966 9.388-3.332304l.005-.00098c3.28-.6291491 6.475-.813709 9.576-.540046 3.096.273118 5.926.98326 8.466 2.15826 2.582 1.17464 4.72 2.75819 6.349 4.77851 1.717 2.0858 2.561 4.56689 2.561 7.34349 0 2.5153-.686 4.8144-2.081 6.8306-.68.9934-1.49 1.8655-2.42 2.6184 1.651 1.0022 3.024 2.2676 4.08 3.8095 1.488 2.1099 2.213 4.5423 2.213 7.2215 0 2.535-.652 4.8602-1.987 6.914l-.013.0194c-1.292 1.9384-3.035 3.5436-5.179 4.8296l-.028.0167c-2.119 1.2241-4.511 2.1231-7.155 2.7159l-.032.0069c-2.652.5486-5.423.7505-8.307.6153-2.899-.1359-5.789-.6338-8.668-1.4885l-.008-.0025c-2.875-.867-5.606-2.1431-8.192-3.8212zm35.713-15.8856c-1.04-1.5234-2.469-2.7556-4.286-3.6966-.269-.1396-.547-.2727-.834-.3994-.311-.1467-.631-.2828-.958-.4085-.211-.0807-.424-.1572-.641-.2292.151-.0623.3-.127.447-.1943.67-.3058 1.29-.6538 1.861-1.0441 1.101-.7533 2.017-1.6639 2.747-2.7319 1.152-1.664 1.728-3.5627 1.728-5.696 0-2.3467-.704-4.3733-2.112-6.08-1.408-1.74933-3.285-3.15733-5.632-4.224-2.304-1.06667-4.906-1.728-7.808-1.984-2.901-.256-5.909-.08534-9.024.512-3.072.59733-6.016 1.64266-8.832 3.136l2.624 6.72c.582-.3437 1.174-.6608 1.776-.9512 1.341-.6471 2.733-1.162 4.176-1.5448 2.091-.59733 4.096-.896 6.016-.896 1.963-.04267 3.712.17066 5.248.64 1.579.4693 2.816 1.1733 3.712 2.112.939.9387 1.408 2.1333 1.408 3.584 0 1.7493-.704 3.136-2.112 4.16-1.365 1.024-3.306 1.536-5.824 1.536h-9.792v6.528h10.432c2.816 0 5.035.512 6.656 1.536 1.664.9813 2.496 2.4747 2.496 4.48 0 1.664-.554 3.0507-1.664 4.16-1.109 1.1093-2.602 1.9413-4.48 2.496-1.834.5547-3.882.8107-6.144.768-2.261-.0427-4.544-.4053-6.848-1.088-1.606-.5152-3.126-1.1811-4.56-1.9976-.585-.3331-1.155-.6912-1.712-1.0744l-2.688 6.08c2.432 1.5787 4.992 2.7733 7.68 3.584 2.731.8107 5.462 1.28 8.192 1.408 2.731.128 5.334-.064 7.808-.576 2.475-.5547 4.672-1.3867 6.592-2.496 1.92-1.152 3.435-2.56 4.544-4.224 1.11-1.7067 1.664-3.648 1.664-5.824 0-2.304-.618-4.3307-1.856-6.08z"/>
        <path d="m138.295 45.9345 1.034 1.5052h-1.518c0 .3796.108.7573.32 1.0859.369.5699 1.001.9141 1.68.9141h8.576c.8 0 1.523-.4773 1.838-1.2133l3.918-9.1547h19.769l3.933 9.1572c.315.7346 1.038 1.2108 1.838 1.2108h8.704c.679 0 1.311-.3446 1.68-.9151.368-.5705.422-1.2889.142-1.9078l-20.224-44.80005c-.323-.71653-1.036-1.177102-1.822-1.177102h-8.192c-.787 0-1.501.461572-1.824 1.179272zm36.935-8.8628 4.453 10.368h8.704l-20.224-44.80005h-8.192l-20.16 44.80005h8.576l4.436-10.368zm-11.224-26.1344-8.39 19.6064h16.81zm5.385 17.6064-5.382-12.5304-5.362 12.5304z"/>
        <path d="m129.921 49.4397c-.655 0-1.268-.3208-1.642-.8586l-12.525-18.0214h-5.273v16.88c0 1.1045-.895 2-2 2h-8.192c-1.1045 0-1.9999-.8955-1.9999-2v-44.80005c0-1.10457.8954-2.000002 1.9999-2.000002h8.192c1.105 0 2 .895432 2 2.000002v16.75205h5.544l12.246-17.8821c.373-.544452.99-.869952 1.65-.869952h8.832c.747 0 1.433.416732 1.776 1.080442.344.66372.289 1.46366-.143 2.07398l-14.513 20.53263 14.707 21.4024-.769 1.7106h1.518c0 .3188-.076.6386-.23.9312-.346.6573-1.027 1.0688-1.77 1.0688zm9.408-2h-9.408l-13.122-18.88h-8.318v18.88h-8.192v-44.80005h8.192v18.75205h8.598l12.842-18.75205h8.832l-15.318 21.67095z"/>
        <path d="m41.883 48.5256c-.3685-.5699-.4228-1.2878-.1443-1.9067l20.16-44.79998c.3229-.7177 1.0368-1.179272 1.8238-1.179272h8.192c.7862 0 1.4994.460572 1.8229 1.177102l20.224 44.80005c.2794.6189.2256 1.3373-.1428 1.9078-.3683.5705-1.001.9151-1.6801.9151h-8.704c-.7995 0-1.5222-.4762-1.8377-1.2108l-3.9328-9.1572h-19.7695l-3.9173 9.1547c-.3149.736-1.0382 1.2133-1.8387 1.2133h-8.576c-.6787 0-1.311-.3442-1.6795-.9141zm14.6919-11.4539h22.4068l4.4528 10.368h8.704l-20.224-44.80005h-8.192l-20.16 44.80005h8.576zm11.1827-26.1344-8.3894 19.6064h16.8099zm5.3849 17.6064-5.3815-12.5304-5.3616 12.5304z"/>
        <path d="m.911287 44.7015c-.8236484-.5347-1.137322-1.5882-.740265-2.4863l2.687998-6.08c.24081-.5447.71182-.9537 1.28487-1.1158s1.18852-.0604 1.67895.2775c1.74998 1.2055 3.65665 2.1415 5.72706 2.8078 2.135.6306 4.2322.9606 6.2961.9996 2.0892.0394 3.9248-.1983 5.5275-.6828l.012-.0037c1.6353-.4831 2.8107-1.1703 3.6325-1.9921.7098-.7098 1.0782-1.5765 1.0782-2.7458 0-1.3305-.4857-2.152-1.5119-2.7573-.0175-.0103-.0349-.0209-.0521-.0317-1.1852-.7486-2.9834-1.227-5.588-1.227h-10.432c-1.10454 0-1.99997-.8954-1.99997-2v-6.528c0-1.1046.89543-2 1.99997-2h9.792c2.2813 0 3.7347-.469 4.624-1.136l.0237-.0175c.8876-.6455 1.2883-1.4294 1.2883-2.5425 0-.9744-.2952-1.6428-.8222-2.1698-.0109-.011-.0218-.022-.0325-.0333-.5989-.6274-1.5022-1.1795-2.8352-1.5758l-.0145-.0044c-1.2933-.3952-2.8245-.5922-4.6201-.5532-.0145.0003-.029.0005-.0435.0005-1.7114 0-3.5313.2661-5.4665.819-.0122.0035-.0244.0069-.0366.0101-1.9121.5073-3.7265 1.2679-5.44741 2.2848-.50503.2984-1.11561.36-1.6701.1686-.5545-.1914-.997-.6166-1.21037-1.163l-2.624-6.72004c-.36938-.94597.02882-2.01861.926-2.49439 2.98713-1.58408 6.11791-2.6966 9.38728-3.332304l.005-.00098c3.2806-.6291491 6.475-.813709 9.5765-.540046 3.0955.27313 5.9259.98332 8.4662 2.15842 2.582 1.17462 4.7197 2.75813 6.3484 4.77835 1.7173 2.0858 2.5616 4.56689 2.5616 7.34349 0 2.5148-.686 4.8135-2.0802 6.8295-.6805.9938-1.4906 1.8663-2.4207 2.6195 1.6507 1.0022 3.0233 2.2676 4.0794 3.8096 1.488 2.1098 2.2135 4.5423 2.2135 7.2214 0 2.535-.6521 4.8602-1.9871 6.914l-.0128.0194c-1.2923 1.9384-3.0357 3.5436-5.1791 4.8296l-.0284.0167c-2.1186 1.2241-4.5106 2.1231-7.1551 2.7159l-.0323.0069c-2.6514.5486-5.4224.7505-8.3068.6153-2.8985-.1359-5.7887-.6338-8.66757-1.4885l-.00829-.0025c-2.87469-.867-5.60624-2.1431-8.191453-3.8212zm35.712913-15.8856c-1.0404-1.5234-2.4691-2.7556-4.2861-3.6966-.2694-.1396-.5474-.2727-.8339-.3994-.3116-.1467-.6312-.2828-.9586-.4085-.2104-.0807-.4241-.1572-.641-.2292.151-.0623.3002-.127.4476-.1943.6699-.3058 1.29-.6538 1.8605-1.0441 1.101-.7533 2.0168-1.6639 2.7475-2.7319 1.152-1.664 1.728-3.5627 1.728-5.696 0-2.3467-.704-4.3733-2.112-6.08-1.408-1.74933-3.2853-3.15733-5.632-4.224-2.304-1.06667-4.9066-1.728-7.808-1.984-2.9013-.256-5.9093-.08534-9.024.512-3.07197.59733-6.01597 1.64266-8.83197 3.136l2.624 6.72c.58164-.3437 1.17352-.6608 1.77563-.9512 1.34132-.6471 2.73344-1.162 4.17634-1.5448 2.0907-.59733 4.096-.896 6.016-.896 1.9627-.04267 3.712.17066 5.248.64 1.5787.4693 2.816 1.1733 3.712 2.112.9387.9387 1.408 2.1333 1.408 3.584 0 1.7493-.704 3.136-2.112 4.16-1.3653 1.024-3.3066 1.536-5.824 1.536h-9.792v6.528h10.432c2.816 0 5.0347.512 6.656 1.536 1.664.9813 2.496 2.4747 2.496 4.48 0 1.664-.5546 3.0507-1.664 4.16-1.1093 1.1093-2.6026 1.9413-4.48 2.496-1.8346.5547-3.8826.8107-6.144.768-2.2613-.0427-4.544-.4053-6.848-1.088-1.60616-.5152-3.12624-1.1811-4.56023-1.9976-.5849-.3331-1.15548-.6912-1.71174-1.0744l-2.688 6.08c2.432 1.5787 4.992 2.7733 7.68 3.584 2.73067.8107 5.46137 1.28 8.19197 1.408 2.7307.128 5.3334-.064 7.808-.576 2.4747-.5547 4.672-1.3867 6.592-2.496 1.92-1.152 3.4347-2.56 4.544-4.224 1.1094-1.7067 1.664-3.648 1.664-5.824 0-2.304-.6186-4.3307-1.856-6.08z"/>
    </g>
</svg>