<svg fill="none" height="107" viewBox="0 0 146 107" width="146" xmlns="http://www.w3.org/2000/svg"><path clip-rule="evenodd" d="m77.3444.00342214c3.0197-.02846414 4.2162.11385686 6.5522.68313886 1.5668.398499 3.6749 1.024709 4.7005 1.451669 1.0255.3985 2.6778 1.22396 3.7034 1.8217 1.0255.59775 2.5069 1.56553 3.2761 2.19174.7976.62621 2.1651 1.87863 3.1052 2.81795.9116.91085 2.2222 2.44788 2.8772 3.38718.684.9394 1.738 2.7326 2.365 3.985.626 1.2524 1.452 3.3019 1.851 4.5543s.883 3.5011 1.054 4.9812c.228 1.6509.314 3.8711.2 5.6928-.086 1.6509-.428 4.2696-.741 5.8352-.313 1.5655-.769 3.3872-1.026 4.0703-.256.6832-.313 1.1955-.142 1.1955s3.105-1.3947 6.552-3.131 6.552-3.1311 6.923-3.1311c.342.0285 1.851.4554 6.039 1.9356l6.552-6.376 5.157-1.2524c4.501-1.1101 5.27-1.224 5.925-.9109.513.2278 1.168 1.1955 2.165 3.188.769 1.5655 1.425 3.1595 1.425 3.558s-.399 1.1671-1.71 2.7041l1.852 3.7288-1.253 5.0382c-.77 3.0741-1.624 5.7782-3.163 8.8808l1.995 3.9849v12.8089l-.713.7116c-.455.4839-.997.7116-1.623.7116-.827 0-1.425-.5123-4.872-3.928-2.849-2.818-3.988-4.1843-4.472-5.8921l-4.473 2.2487c-2.478 1.2239-4.53 2.2486-4.558 2.2771-.057 0-.399 1.2239-1.51 5.2943h1.14c.626 0 1.395.1139 1.709.2846.342.1708 1.624 2.3626 5.697 10.5318v19.6404l-.712.711c-.37.399-1.025.712-1.424.712s-2.849-1.053-5.498-2.334c-2.621-1.281-5.043-2.59-5.413-2.903-.37-.342-.627-.911-.627-1.367 0-.4551.542-1.8498 1.197-3.1307 1.139-2.2771 1.139-2.3625.484-2.1348-.37.1423-.997.3131-1.396.3985-.484.0854-1.567-.2847-3.418-1.1955-2.137-1.0532-3.163-1.7933-4.843-3.4442-1.909-1.9071-2.222-2.1348-3.106-2.0494-.968.0854-.997.1139-1.937 2.9318-.598 1.8217-1.168 3.0457-1.567 3.3588-.512.3985-1.168.5123-3.0192.4839-2.1651 0-2.5069.0854-4.615 1.1385-1.2535.6262-2.507 1.1386-2.7918 1.1386-.2564 0-3.3046-.9393-13.019-4.1842l-1.054.9393c-.6268.5693-1.3959.9678-1.7948.9678-.3988 0-1.6522-.4555-4.8429-2.0779l-3.1336 1.0532c-1.7378.5692-3.3901 1.0247-3.7035 1.0247-.3133 0-2.3929-1.224-8.6887-5.4082l-1.9087-5.8352-1.9657-.1423c-1.0825-.0854-2.1366-.2277-2.3075-.3415-.1994-.1424-.8261-1.1671-1.3959-2.3056-.5697-1.1101-1.054-2.0779-1.0825-2.1348 0-.0285-1.5669-.4555-6.8656-1.7933l-2.1366 2.1348c-1.8517 1.8502-2.279 2.1348-3.1336 2.1348-.8832 0-1.339-.3415-7.8342-6.8029h-4.4156l.4273.8539c.2279.4555.4273 1.1101.4273 1.4232s-.1139.8255-.2848 1.1386c-.1425.3131-1.3959 1.1386-2.7633 1.8217-2.1366 1.0532-2.8203 1.594-4.6721 3.6149-1.3389 1.5086-2.4499 2.4764-2.9912 2.6187-.4843.1424-1.111.1139-1.5383-.0854-.4843-.1992-2.33601-2.7894-10.5405-15.2283v-3.0741c0-2.8464.0569756-3.1026.712195-3.7572.370345-.3985 1.025565-.7116 1.424395-.7116.39882 0 1.65229.4554 4.84292 2.0778l1.93717-.6262c1.05405-.3131 1.90872-.7116 1.90872-.8824 0-.1707-.3989-1.8501-1.76628-7.2583l1.19648-4.9812c.6837-2.7326 1.3389-5.209 1.4529-5.4936.1424-.2562 2.393-1.5655 9.7998-5.2659l5.9255-5.7212c5.0138-4.8674 6.0394-5.7213 6.7516-5.7213.6837 0 1.4244.5408 3.7319 2.6471 1.6238 1.5086 2.9342 2.9318 3.0197 3.3303.1139.427-.1425 1.6794-.6268 3.1311-.4273 1.3378-.8261 2.5902-.8831 2.7895-.057.1992.5413.6262 1.3959 1.0247.8547.3985 3.1907.9678 5.5267 1.3378 2.222.37 4.1022.6262 4.1877.5408.0854-.0854-.171-1.1101-.5698-2.2771-.3703-1.167-.9686-3.4157-1.2819-4.9812-.3134-1.5656-.6553-4.2412-.7407-5.9775-.0855-1.8502-.0285-4.1842.1709-5.6928.1994-1.3948.6837-3.5865 1.0825-4.8389.3989-1.2524 1.225-3.3019 1.8517-4.5543.6268-1.2524 1.6808-3.0456 2.3645-3.985.6553-.9393 2.0796-2.59019 3.1622-3.67183 1.0825-1.08163 2.7348-2.50484 3.6749-3.15951.9401-.68314 2.7348-1.73631 3.9883-2.36252s2.9912-1.36628 3.8459-1.65092c.8546-.25618 2.4784-.711603 3.5609-.996244 1.3105-.313105 3.2476-.4838897 5.6976-.51235386zm-6.1249 5.37971786c-1.168.28464-2.9057.88239-3.8458 1.28088-.9401.42697-2.6209 1.33782-3.7035 2.04942-1.0825.7116-2.9057 2.22016-3.9883 3.33026-1.111 1.1101-2.5923 2.9888-3.333 4.1558s-1.7093 3.1026-2.1936 4.2696c-.4558 1.167-1.054 3.3588-1.3389 4.8389-.3419 2.021-.4273 3.5296-.2849 5.9775.0855 1.7932.4273 4.4404.7407 5.8351.3134 1.3948.9686 3.7288 1.4529 5.1236.4843 1.3947 1.168 3.131 1.5098 3.8426.3704.7116 1.168 2.3341 1.8232 3.6434.6553 1.2809 1.8802 3.4442 2.7349 4.8389.8546 1.3663 2.5924 3.8711 3.8743 5.6074 1.3105 1.7364 3.561 4.4689 5.0139 6.1198 1.4528 1.651 3.7888 4.1558 5.2132 5.5505l2.5924 2.5618c4.2447-4.1842 6.6947-6.8029 8.176-8.5392 1.4814-1.7363 3.618-4.355 4.729-5.8352 1.111-1.4801 2.7633-3.8711 3.6464-5.2658.8832-1.3948 2.1081-3.5865 2.7634-4.8389.6267-1.2525 1.5383-3.1026 2.0226-4.1273.4558-1.0247 1.2248-3.0172 1.6808-4.412.484-1.3947 1.083-3.7288 1.367-5.1235.342-1.7363.513-3.8427.513-6.5467 0-3.2165-.114-4.4404-.598-6.2622-.342-1.2524-.969-3.0456-1.367-3.9849-.4278-.9393-1.3394-2.6187-2.0516-3.7004-.7122-1.0816-2.2221-2.9033-3.3331-3.9849-1.111-1.1101-2.9912-2.59027-4.1592-3.33034-1.168-.74006-3.1052-1.70784-4.2732-2.19173-1.168-.45543-3.3046-1.05318-4.7005-1.30935-1.3959-.22772-3.5325-.3985-4.7004-.3985-1.168.02846-2.5355.11386-2.9913.17078-.4558.05693-1.8232.34157-2.9912.65468zm62.2455 30.76966c-6.181 6.1483-7.321 7.0876-7.834 7.0876-.399 0-2.108-.4554-3.846-1.0247l-3.133-1.0532c-14.529 7.2868-16.438 8.3685-16.666 8.9093-.171.3985-1.168 2.1917-2.1647 3.985-1.0256 1.7932-2.9058 4.7819-4.1877 6.6036-1.282 1.8217-3.4755 4.6966-4.8715 6.4045-1.4243 1.6793-4.6435 5.152-7.2074 7.7137-2.9912 2.9603-4.9284 4.6681-5.4127 4.782-.4558.0854-1.0825.0854-1.4243 0-.3704-.0854-2.7349-2.2487-5.2988-4.782-2.5639-2.5617-5.8115-6.0344-7.2074-7.7137-1.3959-1.7079-3.5895-4.5828-4.8714-6.4045-1.282-1.8217-3.2476-4.9243-4.3586-6.8883-1.0826-1.964-2.0227-3.6434-2.0796-3.7572-.0285-.1139-2.8773-.6832-6.3243-1.2525-6.1249-.9962-6.3243-1.0531-9.1161-2.5048-2.2221-1.1386-2.9058-1.6225-3.1337-2.2487-.2279-.6546-.0855-1.3378.7692-3.8426l1.0255-3.0457-1.8802-1.9925-10.1701 10.0479c-6.4098 3.1879-8.29 4.1273-8.3469 4.1557-.0285 0-.4843 1.7079-1.0256 3.7288l-.9686 3.7004c2.279 9.2223 2.336 9.5924 1.9372 10.3324-.3703.6547-1.111.9963-4.615 2.1918-3.8174 1.3093-4.2732 1.3947-5.12784 1.0816-.51278-.1993-.96858-.2846-.99707-.2277-.05698.0854 1.48137 2.5333 3.41854 5.4366l3.47547 5.3228c2.2221-2.4479 3.4186-3.4441 4.1308-3.7857.7122-.37 1.3104-.6831 1.3674-.7401.0285-.0569-.2564-.74-.6552-1.537-.3989-.7686-.7122-1.7363-.7122-2.1348s.3133-1.0248.7122-1.4233c.6837-.7116.6837-.7116 6.1818-.7116l5.4982.0285 5.84 5.8067c2.8772-2.761 3.9598-3.558 4.2731-3.558.3134 0 2.6494.5123 5.2133 1.1385 2.5354.6262 4.8999 1.2809 5.2703 1.4232.3703.1708 1.0255 1.1101 1.6238 2.2772l.997 1.9925c3.3616-.0285 4.0168.1138 4.5011.4839.3988.3415.9971 1.6224 1.7093 3.7857l1.0825 3.2734 5.2418 3.558c4.7574-1.5371 6.3527-1.9925 6.6376-1.9925.2564 0 1.2535.3985 2.1936.8539l1.7092.8539c1.5384-1.3093 2.2791-1.7078 2.6494-1.7078.3419 0 3.5895.9678 7.1789 2.1633l6.5522 2.1917c3.2192-1.6794 4.2162-1.964 5.6691-2.0779l1.9657-.1423c1.5667-4.6681 2.1367-5.8921 2.5357-6.2052.541-.4269 1.168-.5123 3.789-.4839l3.133.0285c4.074 3.985 5.755 5.3512 6.638 5.7782l1.481.7401c3.105-1.5371 4.302-1.9925 4.701-1.9925s1.025.3131 1.424.7116c.655.6547.712.8824.712 3.7003 0 2.6187-.085 3.1595-.74 4.4973-.399.797-.627 1.5656-.485 1.6794.114.0854.969.5124 1.881.9104l1.623.741v-13.9479l-3.703-7.4006c-3.732 0-4.074-.0854-4.701-.7116-.398-.3985-.712-.9678-.712-1.2809s.513-2.6472 1.14-5.1805c.626-2.5618 1.282-4.9243 1.424-5.2659.2-.4554 1.681-1.3662 4.786-2.9033l4.473-2.2487c1.823-5.6358 2.336-6.7175 2.791-7.0306.342-.2277.941-.427 1.339-.4554.399 0 .997.2277 1.368.5123.513.3985.883 1.4517 1.795 5.0666 1.111 4.412 1.168 4.5828 2.421 5.8352l1.253 1.2809c0-5.1236-.056-5.3797-1.139-7.543-.627-1.2524-1.14-2.5333-1.14-2.8464s.57-1.6794 1.254-3.0457c.826-1.6794 1.567-3.8142 2.193-6.4044l.969-3.9281c-1.652-3.3018-2.137-4.5827-2.137-4.9812s.399-1.167.855-1.7078c.684-.797.798-1.1101.57-1.5655-.171-.3416-.541-.5693-.912-.5409-.37 0-1.88.3416-3.361.7401zm-55.266-22.4012c1.7663.0569 3.1337.3131 4.4156.7685 1.0256.3701 2.507 1.0532 3.2761 1.5086.7977.4554 2.1651 1.6225 3.1052 2.5618 1.111 1.1385 2.0226 2.4764 2.7633 3.985.5983 1.2808 1.225 3.1595 1.4244 4.2696.1709 1.1101.2564 2.8748.1709 3.985-.1139 1.1101-.4558 2.761-.7691 3.7003-.3419.9393-.9686 2.3625-1.4244 3.131-.4273.797-1.5384 2.1918-2.4785 3.1026-.9116.9109-2.222 1.9925-2.9342 2.4195-.7122.3985-2.0796 1.0247-3.0482 1.3947-.9971.3416-2.7348.7116-3.8459.8255-1.1964.0854-2.9057.0284-4.0737-.1708-1.1395-.1993-3.0197-.8255-4.3302-1.4517-1.7377-.8254-2.8487-1.6224-4.1307-2.9318-.9971-.9678-2.1936-2.5617-2.6778-3.4726-.4843-.9393-1.1396-2.391-1.4244-3.2734-.3989-1.1101-.5413-2.391-.5413-4.5542 0-2.1633.1424-3.4157.5413-4.5543.2848-.8539.9401-2.3056 1.4244-3.2449.4842-.9393 1.5953-2.4194 2.4499-3.2734.8546-.8824 2.2221-1.9925 2.9912-2.4479.7977-.4554 2.0796-1.0532 2.8488-1.3663.7977-.2846 1.9372-.6262 2.5639-.7685s2.3075-.1992 3.7034-.1423zm-6.2388 5.9205c-.9116.5124-2.1936 1.5086-2.8203 2.1918-.6552.7116-1.5668 2.1348-2.0511 3.131-.7692 1.6794-.8547 2.1348-.8547 4.5827 0 2.5333.057 2.8464 1.0541 4.8389.6552 1.3663 1.5098 2.5618 2.4215 3.3873.7406.6831 2.1935 1.6509 3.2191 2.1348 1.6523.7685 2.1366.8539 4.558.8539 2.4215 0 2.9058-.0854 4.5581-.8539 1.0255-.4839 2.4784-1.4517 3.2191-2.1348.9116-.8255 1.7662-2.021 2.4215-3.3873.997-1.9925 1.054-2.2771 1.054-4.8673 0-2.5618-.057-2.8464-1.054-4.8389-.6553-1.3663-1.5099-2.5618-2.4215-3.3873-.7407-.7116-2.1936-1.6509-3.2191-2.1063-1.4244-.6547-2.3645-.8824-3.9883-.9393-1.168-.0569-2.6494.0569-3.2761.1992-.6267.1708-1.8802.7116-2.8203 1.1955z" fill="#283044" fill-rule="evenodd"/></svg>