<svg fill="none" height="44" viewBox="0 0 43 44" width="43" xmlns="http://www.w3.org/2000/svg"><path clip-rule="evenodd" d="m36.7347 6.39384c-4.0417-4.12108-9.417-6.39174914-15.1444-6.39384-11.80171 0-21.406539 9.77999-21.410646 21.8014-.002053 3.8429.984506 7.5939 2.858046 10.8996l-3.0377 11.299 11.35-3.0318c3.127 1.7376 6.6482 2.6523 10.2311 2.6534h.0092c11.7997 0 21.4056-9.7811 21.4097-21.8025.002-5.8261-2.2226-11.3031-6.2653-15.42421zm-15.1444 33.54576h-.0072c-3.1927-.001-6.3248-.8751-9.0576-2.5258l-.6498-.393-6.73553 1.7991 1.79757-6.6876-.42297-.6858c-1.78114-2.8854-2.72253-6.2204-2.72047-9.644.0041-9.9912 7.9869-18.1205 17.8033-18.1205 4.753.00209 9.2209 1.8891 12.5808 5.31496 3.3601 3.42484 5.209 7.97874 5.207 12.82014-.0042 9.9922-7.9869 18.1215-17.7951 18.1215zm9.7609-13.5718c-.5349-.2728-3.1649-1.5901-3.6557-1.772-.4907-.1819-.8469-.2728-1.2032.2729-.3562.5457-1.3817 1.773-1.6938 2.1358-.3121.3638-.6243.4088-1.1591.1358-.5348-.2728-2.2585-.8478-4.3024-2.7035-1.5902-1.4447-2.6641-3.2282-2.9761-3.7739-.3121-.5457-.0328-.8405.234-1.1113.2402-.2446.5349-.6366.8028-.9545.268-.3178.3563-.5456.5349-.9085.1786-.3638.0893-.6815-.0441-.9545-.1336-.2728-1.2032-2.9544-1.6498-4.0447-.4343-1.0621-.8756-.9179-1.2032-.9356-.3121-.0157-.6682-.0189-1.0255-.0189s-.9363.136-1.427.6817c-.4907.5456-1.8725 1.8639-1.8725 4.5444s1.9167 5.2722 2.1846 5.636 3.7727 5.8659 9.1387 8.2265c1.2761.5613 2.2729.8969 3.05 1.1478 1.2813.415 2.4474.3565 3.3693.2164 1.0277-.1568 3.165-1.3183 3.6106-2.5906.4455-1.2723.4455-2.3637.3121-2.5906-.1334-.2268-.4907-.3638-1.0256-.6366z" fill="#25d366" fill-rule="evenodd"/></svg>