<svg fill="none" height="131" viewBox="0 0 138 131" width="138" xmlns="http://www.w3.org/2000/svg"><path clip-rule="evenodd" d="m68.9968.012805c.3067.0613307 1.3189.352652 2.2391.674638.9355.306654 2.6839.919967 3.9108 1.364607 1.2269.42932 4.2175 1.50261 6.6713 2.3919 2.4539.8893 5.1684 1.88592 6.0579 2.22324.8895.32199 3.0213 1.10396 7.8983 2.88255l.0767 16.83526c.046 9.261.046 17.004 0 17.188-.0614.322-.5982.552-4.601 2.0086-2.4845.9046-6.0118 2.1925-7.8215 2.8518-1.8097.6594-4.7083 1.702-6.4413 2.3306-1.7331.6287-4.0029 1.4566-5.0611 1.8399-1.0582.3834-2.1931.7973-3.1439 1.1347l-4.5243-1.6253c-2.4845-.9046-5.4291-1.9779-6.518-2.3766-1.0889-.414-3.1593-1.1653-4.6009-1.6866-1.4263-.5059-3.328-1.2113-4.2175-1.5332-.8895-.322-2.6072-.9507-3.8341-1.3953-1.2269-.4447-2.4539-.8893-2.7146-1.012-.276-.1073-.5521-.2913-.6134-.3833-.0614-.1073-.1074-7.789-.0767-17.0653.0153-9.2763.0307-16.91193.0307-16.9886 0-.06133.6441-.35265 1.4262-.64397.7669-.29132 2.1778-.7973 3.098-1.13462.9355-.32199 3.3127-1.19595 5.2911-1.93192 1.9784-.72064 4.8156-1.76326 6.2879-2.2999 1.4723-.53665 3.5887-1.30328 4.6776-1.6866 1.0889-.39865 2.8833-1.011958 3.9722-1.379943 1.4723-.490646 2.1317-.6439728 2.5305-.582642zm15.9652 15.025995c-2.4078.8893-4.8923 1.8093-5.5211 2.0393s-2.0398.7513-3.144 1.1499c-1.0889.414-3.0673 1.1193-4.3709 1.5946-1.3036.4754-2.5151.9507-2.6839 1.0427-.3067.1686-.3067.3373-.3067 13.9834 0 8.9849.046 13.8607.1534 13.9681.1073.1073 1.2422-.2147 3.8341-1.1347 2.0244-.7053 4.4476-1.5639 5.3677-1.9012.9202-.3373 4.0029-1.4566 6.8248-2.4686 2.8219-1.0273 5.4291-1.9932 5.7971-2.1312.3528-.138.6595-.3067.6442-.368 0-.0767 0-.23 0-.3527 0-.1226 0-6.4397 0-14.0294 0-7.5896-.046-13.7994-.1074-13.7994-.0767.0153-.5674.184-1.1195.3987-.5522.2146-2.96 1.1192-5.3678 2.0085zm15.95 23.9037c.123.046 1.61.598 3.297 1.2266 1.687.6287 3.512 1.3186 4.064 1.518.552.2146 2.209.8126 3.681 1.3646 1.472.5366 4.095 1.4719 8.972 3.2198l3.987 3.9252c2.194 2.1619 5.337 5.2285 6.978 6.8077 1.641 1.5793 3.559 3.4959 4.264 4.2472.69.7513 1.258 1.4259 1.258 1.5179s-.184.2453-.414.368c-.246.1227-1.672.6746-3.19 1.2419-1.519.5674-3.374 1.2573-4.141 1.5333s-2.654.966-4.218 1.518c-1.564.5673-3.082 1.1039-3.374 1.2112-.291.092-.659.276-.813.414-.26.2147-.276 1.288-.26 21.6958.015 17.3873-.031 21.4963-.184 21.6343-.108.092-.721.353-1.35.567-.629.215-2.607.92-4.371 1.564-1.764.629-3.558 1.288-3.987 1.457-.414.169-3.252 1.211-6.288 2.3-3.037 1.104-6.2423 2.284-7.1318 2.606s-3.4353 1.258-5.6744 2.07c-2.2392.813-5.6899 2.055-7.6683 2.76-1.9784.706-5.3984 1.917-7.5915 2.699-2.1931.766-4.8156 1.671-5.8278 1.993-1.0122.337-2.0858.598-2.3772.598s-.9508-.138-1.457-.291c-.506-.169-1.9477-.675-3.2206-1.135-1.2576-.46-2.7145-.981-3.2207-1.15-.5061-.169-2.5458-.905-4.5242-1.64-1.9784-.721-4.8463-1.764-6.3646-2.316s-3.0366-1.104-3.374-1.226c-.3374-.138-2.8833-1.074-5.6745-2.086-2.7759-1.012-6.1653-2.238-7.5149-2.729-1.3496-.49-4.6316-1.686-7.2848-2.652-2.6532-.982-5.7665-2.132-6.9014-2.546-1.1349-.429-2.1624-.874-2.2544-.966-.1534-.153-.1994-4.231-.1994-19.2114 0-10.4569.0613-19.0586.1227-19.1199.0613-.046 1.4263.3833 3.0213.966 1.6103.598 5.4751 2.0086 8.5884 3.1432 3.1286 1.1499 6.3953 2.3459 7.2848 2.6679.8895.3219 4.923 1.7939 8.9718 3.2658 4.0488 1.472 7.6529 2.8059 8.6804 3.2506l15.4745-15.4861-.092 17.1727c-.0614 9.4449-.0614 21.5732 0 26.9552.092 9.169.1073 9.767.368 9.767.1381 0 1.9478-.614 4.0182-1.365 2.0704-.767 5.8585-2.147 8.435-3.082 2.5765-.951 5.6132-2.055 6.748-2.453 1.1349-.414 4.831-1.748 8.205-2.99 3.3741-1.227 8.8954-3.235 12.2694-4.462 3.374-1.226 6.395-2.33 7.315-2.744l-.046-18.6603c-.03-10.2576-.122-18.7059-.184-18.7825-.061-.0614-.445 0-.843.1533-.399.1687-2.132.8126-3.865 1.4413-1.733.6286-5.429 1.9779-8.205 2.9898-2.776 1.012-7.6069 2.7446-10.7356 3.8639-3.1133 1.1193-5.8585 2.0852-6.0885 2.1312-.3528.092-.5675-.0153-1.2269-.5366-.4448-.368-2.8526-2.6679-5.3371-5.1058-2.4845-2.4532-5.8585-5.7958-7.4689-7.4057-1.6256-1.6253-2.9599-2.9899-2.9599-3.0665 0-.0614.5368-.2914 1.1809-.506.6595-.23 2.9293-1.0426 5.0304-1.8246 2.1164-.782 4.5549-1.6713 5.4444-1.9933.8895-.3219 3.7881-1.3799 6.4413-2.3459 2.6532-.9659 6.9014-2.5298 9.4319-3.4498 2.5305-.9353 6.395-2.3612 8.588-3.1739 2.194-.8126 4.678-1.7479 5.522-2.0699.843-.322 1.717-.6286 1.963-.6746.23-.046.398-.184.368-.2913-.031-.092-.813-.4754-1.733-.8433-.921-.3527-3.39-1.2727-5.506-2.0393-2.101-.7513-4.11-1.4873-4.448-1.6099-.337-.138-.659-.322-.721-.414-.061-.1073-.138-1.334-.153-2.7292-.015-1.3953.046-2.5913.107-2.6526.077-.046.246-.0613.384 0zm-64.2291.0613c.2454 0 .2761.23.2761 2.5606 0 1.8399-.046 2.6526-.1841 2.8366-.1073.1379-1.2729.6286-2.5765 1.1039-1.3036.46-3.8648 1.3799-5.6745 2.0546-1.8097.6593-3.4507 1.2879-3.6347 1.3953-.1994.092-.3528.2299-.3528.3219s.0921.1534.1994.1534c.092 0 1.6717.5673 3.4814 1.2419 1.8097.6747 4.7543 1.7786 6.518 2.4379 1.779.6593 6.1499 2.2693 9.7386 3.5879 3.5887 1.3032 9.0025 3.2812 12.0391 4.3851 3.0366 1.104 6.9321 2.5299 8.6651 3.1739 1.733.6286 3.2207 1.2113 3.2973 1.2726.092.0767-3.0826 3.3425-8.0516 8.2797-4.5089 4.4771-8.297 8.1416-8.389 8.1263-.1074 0-5.0457-1.7633-10.9656-3.9252-5.9352-2.1619-11.8857-4.3238-13.2353-4.8145-1.3496-.4906-3.42-1.2419-4.6009-1.6865-1.181-.4294-2.9753-1.0887-3.9875-1.4567-1.0122-.3679-3.0826-1.1192-4.601-1.6865-1.5183-.5674-3.8647-1.426-5.21434-1.9166-1.3496-.4907-3.97213-1.4566-5.82784-2.1466s-3.466037-1.334-3.5733917-1.4413c-.1533643-.138.2760557-.6286 1.9937317-2.3152 1.21158-1.1806 4.70829-4.5998 7.79091-7.605 3.08263-3.0052 5.90453-5.7345 6.28793-6.0871.5214-.4753 1.1042-.7667 2.3772-1.2266.9355-.3374 3.0979-1.1346 4.8309-1.7633 1.7331-.644 4.0028-1.4873 5.0611-1.8706 1.0582-.3833 2.9599-1.0886 4.2175-1.5639 1.2729-.46 2.6532-.966 3.0673-1.1346.4294-.1534.8895-.276 1.0428-.2914z" fill="#283044" fill-rule="evenodd"/><g fill="#000"><path d="m95.9584 34.7875c-.0153 4.2165-.0307.7053-.0307-7.8197 0-8.5249.0154-11.9595.0307-7.6663.0307 4.3085.0307 11.2695 0 15.486z" fill-opacity=".8"/><path d="m41.6674 21.5247c-.0153 1.1346-.046.2454-.046-1.9932s.0307-3.1739.046-2.0699c.0307 1.1039.0307 2.9285 0 4.0631z" fill-opacity=".8"/><path d="m41.6674 33.4842c-.0153 1.8093-.0306.3987-.0306-3.1432 0-3.5418.0153-5.0291.0306-3.2965.0307 1.7326.0307 4.6305 0 6.4397z" fill-opacity=".8"/><path d="m4.0625 58.5532.99687-1.0273v-.0153c.53677-.5674 1.0122-1.0273 1.02754-1.0273.03067 0 .04601.0153.04601.0306 0 .0307-.46009.4907-2.07042 2.0393z" fill-opacity=".8"/><path d="m63.4912 70.758c-.046 0 .4447-.5213 1.0735-1.1499.6288-.6287 1.1809-1.15 1.2116-1.15.046 0-.4294.5213-1.0582 1.15-.6288.6286-1.1809 1.1499-1.2269 1.1499z" fill-opacity=".8"/><path d="m121.11 77.9644c-.015 1.3952-.046.322-.046-2.3766s.031-3.8332.046-2.5299c.031 1.3033.031 3.5112 0 4.9065z" fill-opacity=".8"/><path d="m121.11 87.7006c-.015 1.2573-.046.3067-.046-2.1465 0-2.4533.031-3.4806.046-2.2999.031 1.1806.031 3.1738 0 4.4464z" fill-opacity=".8"/><path d="m121.11 93.757c-.031.46-.046.1227-.046-.7666s.015-1.2726.046-.8433c.031.414.031 1.15 0 1.6099z" fill-opacity=".8"/><path d="m16.5157 97.0536c-.0154 1.0119-.046.2146-.046-1.7633s.0306-2.8059.046-1.8399c.0307.966.0307 2.5912 0 3.6032z" fill-opacity=".8"/><path d="m68.6595 100.35c-.0153 1.058-.046.23-.046-1.8398 0-2.0699.0307-2.9286.046-1.9166.0307 1.0119.0307 2.6985 0 3.7564z" fill-opacity=".8"/><path d="m121.11 98.2802c-.031.414-.046.1073-.046-.69s.015-1.1499.046-.7666.031 1.0273 0 1.4566z" fill-opacity=".8"/><path d="m121.11 102.65c-.031.46-.046.153-.046-.69s.015-1.227.046-.843c.031.383.031 1.073 0 1.533z" fill-opacity=".8"/><path d="m121.11 107.48c-.031.337-.046 0-.046-.767 0-.766.015-1.042.046-.613.031.414.031 1.042 0 1.38z" fill-opacity=".8"/><path d="m68.6595 112.003c-.0153 1.058-.046.153-.046-1.993 0-2.147.0307-3.006.046-1.917.0307 1.089.0307 2.852 0 3.91z" fill-opacity=".8"/></g><path d="m16.5148 76.1854c-.0307.5059-.046.1686-.046-.7667s.0153-1.3493.046-.9199c.0306.4139.0306 1.1806 0 1.6866z" fill="#616161" fill-opacity=".5"/><path d="m68.812 77.7186c-.0153.6747-.046.1994-.046-1.0733 0-1.2726.0307-1.8246.046-1.2266.0307.598.0307 1.6253 0 2.2999z" fill="#616161" fill-opacity=".5"/><path d="m115.742 79.6355c-.03.3833-.061.138-.061-.5367 0-.6746.031-.9813.061-.6899.031.2913.031.8433 0 1.2266z" fill="#f1f1f1" fill-opacity=".2"/><path d="m115.742 84.3886c-.03.3833-.061.1073-.061-.6133s.031-1.0273.061-.69c.031.3373.031.92 0 1.3033z" fill="#f1f1f1" fill-opacity=".2"/><path d="m115.666 108.492c-.062.061-.077-4.984-.031-11.1933l.077-11.3002.03 11.1929c.031 6.1486-.015 11.2386-.076 11.3006z" fill="#f1f1f1" fill-opacity=".2"/><path d="m16.3624 95.2748c-.0153 1.1346-.046.2453-.046-1.9932 0-2.2386.0307-3.1739.046-2.0699.0307 1.0886.0307 2.9285 0 4.0631z" fill="#f1f1f1" fill-opacity=".2"/><path d="m68.6586 90.752c-.0153 1.2726-.046.2606-.046-2.2233s.0307-3.5265.046-2.2999c.0307 1.2266.0307 3.2506 0 4.5232z" fill="#000" fill-opacity=".9"/><path d="m16.5148 105.318c-.0154.767-.046.169-.046-1.303s.0306-2.101.046-1.38c.0306.72.0306 1.916 0 2.683z" fill="#000" fill-opacity=".9"/><path d="m121.109 104.858c-.03.337-.061.138-.061-.46s.031-.859.061-.613c.031.245.031.736 0 1.073z" fill="#000" fill-opacity=".9"/><path d="m68.6586 115.514c-.0306.292-.0613.016-.0613-.613s.0307-.874.0613-.537c.0307.338.0307.859 0 1.15z" fill="#000" fill-opacity=".9"/><path d="m96.1108 35.3239c-.0153 4.7685-.0307.9046-.0307-8.5863 0-9.491.0154-13.3855.0307-8.663.0307 4.7225.0307 12.4808 0 17.2493z" fill="#8f8f8f" fill-opacity=".3"/><path d="m41.5131 30.5707c-.0153 3.4959-.0307.6747-.0307-6.2864 0-6.961.0154-9.8282.0307-6.363.0307 3.4652.0307 9.1536 0 12.6494z" fill="#8f8f8f" fill-opacity=".3"/><path d="m121.263 76.1088c-.016 1.3033-.046.276-.046-2.2999 0-2.5758.03-3.6491.046-2.3765.03 1.2573.03 3.3732 0 4.6764z" fill="#8f8f8f" fill-opacity=".3"/><path d="m121.263 111.297c-.016.598-.046.077-.046-1.15 0-1.226.03-1.702.046-1.073.03.629.03 1.625 0 2.223z" fill="#8f8f8f" fill-opacity=".3"/><path d="m68.9653 123.947c-.0307.46-.046.153-.046-.69s.0153-1.227.046-.843c.0307.383.0307 1.073 0 1.533z" fill="#8f8f8f" fill-opacity=".3"/><path d="m55.1328 85.232 6.5947-6.6237c3.6194-3.6492 6.61-6.6391 6.6253-6.6391.0307 0 .046.0154.046.046 0 .0154-2.9906 3.0052-13.266 13.2168z" fill="#333" fill-opacity=".7"/><path d="m115.896 99.8747c-.016 4.4313-.031.8743-.031-7.8963 0-8.7703.015-12.3888.031-8.0497.03 4.3392.03 11.5149 0 15.946z" fill="#333" fill-opacity=".7"/><path d="m41.5145 11.1752c-.0307.3373-.0614.1227-.0614-.46 0-.5826.0307-.87393.0614-.6133.0306.2607.0306.736 0 1.0733z" fill="#8e8e8e" fill-opacity=".4"/><path d="m41.5145 41.534c-.0154.9352-.046.2453-.046-1.5333s.0306-2.5299.046-1.6866c.0306.8433.0306 2.2846 0 3.2199z" fill="#8e8e8e" fill-opacity=".4"/><path d="m100.406 42.8372c-.03.3834-.061.138-.061-.5366 0-.6747.031-.9813.061-.69.031.2913.031.8433 0 1.2266z" fill="#8e8e8e" fill-opacity=".4"/><path d="m121.264 100.565c-.015 4.14-.031.828-.031-7.3599 0-8.1876.016-11.5608.031-7.513.031 4.0478.031 10.7329 0 14.8729z" fill="#8e8e8e" fill-opacity=".4"/><path d="m37.2198 43.0669c-.0306.506-.046.1227-.046-.8433s.0154-1.3799.046-.92c.0307.46.0307 1.2573 0 1.7633z" fill="#c8c8c8" fill-opacity=".2"/><path d="m62.6476 77.5655 2.2238-2.2539v-.0154c1.2269-1.2419 2.2391-2.2539 2.2545-2.2539.0307 0 .046.0153.046.0307 0 .0306-1.0122 1.0426-4.5243 4.4925z" fill="#c8c8c8" fill-opacity=".2"/><path d="m57.5866 82.6406 2.0704-2.1159c1.1349-1.15 2.0858-2.1006 2.1011-2.1006.0307 0 .046.0153.046.0307 0 .0306-.9508.9812-4.2175 4.1858z" fill="#c8c8c8" fill-opacity=".2"/><path d="m52.0655 82.3339 1.2269-1.2726c.6748-.69 1.2423-1.2573 1.2576-1.2573.0307 0 .046.0154.046.0307 0 .0307-.5674.598-2.5305 2.4992z" fill="#c8c8c8" fill-opacity=".2"/><path d="m127.597 52.65c-.046 0-.552-.4753-1.15-1.0733s-1.013-1.0733-.951-1.0733c.061 0 .583.4907 1.15 1.0733.567.598.997 1.0733.951 1.0733z" fill="#c7c7c7" fill-opacity=".3"/><path d="m4.59869 57.8631c-.04601 0 .44476-.5213 1.07355-1.1499.6288-.6287 1.18091-1.15 1.21158-1.15.04601 0-.42942.5213-1.05821 1.15-.6288.6286-1.18091 1.1499-1.22692 1.1499z" fill="#c7c7c7" fill-opacity=".3"/><path d="m136.308 61.2363c-.031 0-.767-.736-1.656-1.6406l-1.611-1.6559 1.657 1.6099c.904.8893 1.641 1.6253 1.641 1.6406 0 .0307-.016.046-.031.046z" fill="#c7c7c7" fill-opacity=".3"/><path d="m74.2667 71.1392-.194-.1973-1.6103-1.6559 1.6563 1.6099c.9049.8893 1.641 1.6406 1.641 1.6559 0 .0154-.0153.0307-.0306.046-.0285 0-.6622-.6446-1.4624-1.4586z" fill="#c7c7c7" fill-opacity=".3"/><path d="m115.742 77.4276c-.031.3373-.046-.0153-.046-.7666 0-.7666.015-1.0426.046-.6133.03.414.03 1.0426 0 1.3799z" fill="#c7c7c7" fill-opacity=".3"/><path d="m54.5188 79.8809 1.6103-1.656c.8742-.9046 1.6257-1.6406 1.641-1.6406.0307 0 .046.0154.046.0307 0 .0307-.7361.7666-3.2973 3.2659z" fill="#c7c7c7" fill-opacity=".3"/><path d="m16.3617 106.176c-.0153 1.135-.046.276-.046-1.916 0-2.193.0307-3.128.046-2.07.0307 1.058.0307 2.852 0 3.986z" fill="#c7c7c7" fill-opacity=".3"/><path d="m37.0655 42.3c-.0306.598-.046.138-.046-.9966s.0154-1.6253.046-1.0733c.0307.552.0307 1.472 0 2.0699z" fill="#000" fill-opacity=".7"/><path d="m79.4401 76.1086c-.046 0-.7362-.6593-1.5336-1.4566-.7975-.7973-1.3957-1.4566-1.3343-1.4566.0613 0 .7515.6593 1.5336 1.4566.7822.7973 1.3803 1.4566 1.3343 1.4566z" fill="#000" fill-opacity=".7"/><path d="m57.739 76.4919.9969-1.0273c.5368-.5826 1.0122-1.0426 1.0276-1.0426.0306 0 .046.0154.046.0307 0 .0307-.4601.4906-2.0705 2.0392z" fill="#000" fill-opacity=".7"/><path d="m68.6586 105.164c-.0307.598-.046.138-.046-.997 0-1.134.0153-1.625.046-1.073s.0307 1.472 0 2.07z" fill="#000" fill-opacity=".7"/><path d="m6.05469 56.5597.99687-1.0273v-.0154c.53677-.5673 1.0122-1.0273 1.02754-1.0273.03067 0 .04601.0154.04601.0307 0 .0307-.4601.4907-2.07042 2.0393z" fill="#323232" fill-opacity=".8"/><path d="m16.5148 81.629c-.0154.7207-.046.1687-.046-1.2266s.0306-1.9779.046-1.3033c.0306.6747.0306 1.8093 0 2.5299z" fill="#333" fill-opacity=".5"/><path d="m68.812 88.6054c-.0153 1.2726-.046.1533-.046-2.4532 0-2.6066.0307-3.6492.046-2.2999.0307 1.3492.0307 3.4805 0 4.7531z" fill="#333" fill-opacity=".5"/><path d="m63.4141 70.9723 1.3036-1.334v-.0153c.7054-.736 1.3189-1.3339 1.3342-1.3339.0307 0 .046.0153.046.0306 0 .0307-.5981.6287-2.6838 2.6526z" fill="#b5b5b5" fill-opacity=".3"/><path d="m16.5148 85.2318c-.0307.506-.046.1533-.046-.7666 0-.92.0153-1.3493.046-.92.0306.414.0306 1.1806 0 1.6866z" fill="#000" fill-opacity=".5"/><path d="m16.5148 88.835c-.0307.46-.046.1533-.046-.69s.0153-1.2266.046-.8433c.0306.3833.0306 1.0733 0 1.5333z" fill="#000" fill-opacity=".5"/><path d="m68.812 99.9512c-.0153 1.2728-.046.1528-.046-2.4533 0-2.6065.0307-3.6491.046-2.2999.0307 1.3493.0307 3.4806 0 4.7532z" fill="#000" fill-opacity=".5"/><path d="m68.812 117.737c-.0153 2.193-.0307.429-.0307-3.91s.0154-6.133.0307-3.986c.0307 2.146.0307 5.704 0 7.896z" fill="#000" fill-opacity=".5"/><path d="m68.8116 73.732c-.0306.4294-.046.1074-.046-.6899s.0154-1.15.046-.7667c.0307.3834.0307 1.0273 0 1.4566z" fill="#5a5a5a" fill-opacity=".6"/><path d="m100.405 40.5368c-.03.3834-.061.138-.061-.5366s.031-.9813.061-.69c.031.2913.031.8433 0 1.2266z" fill="#bdbdbd" fill-opacity=".5"/><path d="m66.0211 68.3657 1.3036-1.334v-.0153c.7055-.736 1.3189-1.3339 1.3343-1.3339.0307 0 .046.0153.046.0306 0 .0307-.5981.6287-2.6839 2.6526z" fill="#bdbdbd" fill-opacity=".5"/><path d="m60.5 73.9008 1.457-1.5026c.7975-.8127 1.4723-1.4873 1.4876-1.4873.0307 0 .046.0153.046.0307 0 .0306-.6748.7053-2.9906 2.9592z" fill="#bdbdbd" fill-opacity=".5"/><path d="m115.742 74.2841c-.016.6286-.046.184-.046-.9966s.015-1.702.046-1.15.031 1.518 0 2.1466z" fill="#bdbdbd" fill-opacity=".5"/><path d="m68.8116 105.011c-.0306.598-.046.169-.046-.92 0-1.088.0154-1.579.046-1.073.0307.506.0307 1.395 0 1.993z" fill="#090909" fill-opacity=".3"/><path d="m107.737 102.052c.245-.092.905-.338 1.457-.552.552-.215 1.166-.368 1.38-.353.383.031.384.046.43 1.635v.006c.03.889.015 1.901-.031 2.254-.077.582-.153.69-.675.904-.306.138-1.135.46-1.84.69-.752.276-1.365.399-1.518.322-.23-.092-.246-.337-.138-2.254.061-1.334.184-2.208.291-2.315.107-.092.399-.245.644-.337z" fill="#000"/><path d="m100.299 104.858c.092-.077.981-.445 1.963-.782.981-.353 1.84-.598 1.917-.537.061.046.107 1.073.077 2.285-.031 1.778-.092 2.238-.292 2.376-.122.107-1.012.46-1.947.797-.951.338-1.764.552-1.841.491-.061-.077-.092-1.119-.076-2.3.015-1.364.092-2.238.199-2.33z" fill="#000"/><path d="m94.1643 107.035c.3834-.169 1.1349-.476 1.687-.659.5521-.2 1.1349-.353 1.3036-.322.2914.03.3068.138.3068 1.947 0 1.058-.0461 2.1-.1074 2.33-.1074.384-.2914.491-1.7637.966-.9202.292-1.779.537-1.917.537-.1534 0-.3068-.107-.3528-.23s-.0767-.552-.0767-.966c0-.399.046-1.303.2301-3.297z" fill="#000"/><path d="m68.8139 35.5541c-.0154 2.6219-.0307.5059-.0307-4.6765 0-5.1825.0153-7.329.0307-4.7531.0306 2.5758.0306 6.8077 0 9.4296z" fill="#616161" fill-opacity=".5"/><path d="m91.6654 33.6375c-.0153 3.6645-.0306.6286-.0306-6.7464s.0153-10.3802.0306-6.6697c.0307 3.7105.0307 9.7516 0 13.4161z" fill="#f1f1f1" fill-opacity=".2"/><path d="m68.659 33.5609c-.0153 2.0239-.0307.3986-.0307-3.6032s.0154-5.6577.0307-3.6798c.0307 1.9779.0307 5.2591 0 7.283z" fill="#000" fill-opacity=".9"/><path d="m68.659 39.004c-.0307.3833-.0613.138-.0613-.5366 0-.6747.0306-.9813.0613-.69s.0307.8433 0 1.2266z" fill="#000" fill-opacity=".9"/><path d="m91.8172 14.1649c-.0307.2914-.0613.0154-.0613-.6133 0-.6286.0306-.8739.0613-.5366s.0307.8586 0 1.1499z" fill="#323232" fill-opacity=".8"/><path d="m68.8133 42.6838c-.0307.3833-.0613.138-.0613-.5366 0-.6747.0306-.9813.0613-.69s.0307.8433 0 1.2266z" fill="#333" fill-opacity=".5"/><path d="m68.8116 46.5935c-.0306.598-.046.138-.046-.9966 0-1.1347.0154-1.6253.046-1.0733.0307.552.0307 1.4719 0 2.0699z" fill="#000" fill-opacity=".5"/><path d="m91.8178 34.864c-.0154 3.4192-.0307.6593-.0307-6.133 0-6.7924.0153-9.583.0307-6.2098.0307 3.3732.0307 8.9236 0 12.3428z" fill="#5a5a5a" fill-opacity=".6"/></svg>