<svg fill="none" height="32" viewBox="0 0 42 32" width="42" xmlns="http://www.w3.org/2000/svg" xmlns:xlink="http://www.w3.org/1999/xlink"><clipPath id="a"><rect height="32" rx="8" width="42"/></clipPath><g clip-path="url(#a)"><path d="m31.5636 26.6812h-21.0248v2.4573c.0013.8733-.2593 1.6354-.93138 2.2171-.51849.4485-1.13437.6248-1.80374.6303-.80379.0056-1.60895.0139-2.41274 0-1.68852-.0319-2.72961-1.112-2.73784-2.828-.00548-1.2994.01098-2.5989-.01234-3.897-.00412-.2374-.09602-.5095-.23318-.7038-.70504-1.0052-1.08773-2.1075-1.08087-3.3459.00686-1.1953.01783-2.3907-.00274-3.5846-.02607-1.573.48968-2.9141 1.59249-4.0247.04664-.0472.08367-.1042.20026-.2527-.55552 0-1.02325.0055-1.49236 0-.716007-.0097-1.02463-.2555-1.194716-.9579-.130307-.5373-.241412-1.0802-.3717192-1.6174-.2153508-.89134.1742012-1.40362 1.0945852-1.4064 1.33462-.00555 2.67062-.03332 4.00524.01388.56238.01944.82711-.13327 1.03012-.6886.46773-1.27864.92998-2.5781 1.57329-3.77067 1.57467-2.91685 4.05604-4.659186 7.33154-4.792464 4.0148-.1624329 8.0489-.1901992 12.0596.020825 3.458.181869 5.9791 2.110239 7.4646 5.299199.5157 1.10788.908 2.27545 1.3305 3.42637.1303.35402.2921.50396.6913.49701 1.454-.02776 2.9093-.00972 4.3646-.01249.6324 0 1.0891.46092.9808 1.08704-.1262.7317-.3073 1.455-.5076 2.1699-.1316.4707-.502.6803-.9793.6845-.4719.0042-.9424 0-1.5294 0 .8134.8288 1.3867 1.6715 1.6309 2.7044.0521.218.1317.4401.1317.6595-.0028 1.8159.015 3.6332-.0494 5.4477-.0316.8802-.4705 1.6466-.9616 2.3727-.1508.2221-.2523.5247-.2578.7927-.0261 1.3161-.0041 2.6322-.0137 3.9484-.011 1.5993-1.0288 2.6836-2.6062 2.746-.8888.0348-1.7804.0361-2.6692 0-1.5486-.0638-2.5623-1.1259-2.6035-2.7058-.0219-.8455-.0041-1.6923-.0041-2.5892zm-21.0097-14.6953h21.0097c-.6132-1.5313-1.1385-3.03212-1.8093-4.46347-.6145-1.31474-1.7461-2.08803-3.1849-2.11024-3.6761-.05553-7.3549-.06248-11.0309 0-1.5665.02638-2.6967.89963-3.3304 2.36569-.2867.665-.5391 1.34528-.8038 2.02-.2812.71632-.5583 1.43412-.8504 2.18662zm-1.74342 9.3447c0-.0069 0-.0153 0-.0222.46088 0 .92313.0069 1.38402-.0042.1522-.0041.3031-.0472.454-.0805 1.0617-.2402 1.4485-.8857 1.0562-1.9117-.5706-1.4938-1.6227-2.5642-3.08899-3.1445-.99446-.3929-1.93816-.1444-2.67611.6469-.81888.8788-.87238 1.9437-.44991 3.0016.39093.9815 1.1714 1.5021 2.24404 1.5132.35937.0042.71875 0 1.07675 0zm24.42652.0625c.0014-.0222.0027-.043.0055-.0653.3936 0 .7873.0084 1.1796-.0013 1.4348-.0375 2.4457-1.1829 2.4127-2.7253-.0329-1.5077-1.0932-2.6031-2.5046-2.5892-1.6076.0153-3.8845 2.1269-4.0478 3.754-.0768.7747.2291 1.2564 1.0233 1.4188.631.1292 1.2866.143 1.9299.2083z" fill="#fff"/></g></svg>