<svg fill="none" height="46" viewBox="0 0 42 46" width="42" xmlns="http://www.w3.org/2000/svg"><g fill="#fff"><path d="m20.6224 26.1095c-.8823 1.1951-1.747 2.3504-2.5953 3.5185-1.2315 1.697-1.103 1.5904-3.1084 1.5879-4.0273-.0039-8.0533-.0077-12.08057.0051-.71344.0026-1.3147-.1604-1.66385-.8472-.351681-.6906-.12983-1.2849.30125-1.8639 1.42436-1.9139 2.83864-3.8355 4.24661-5.7635.37688-.5161.84957-.7625 1.48738-.7625 8.94948.0064 17.90028.0064 26.84978 0 .6378 0 1.108.2516 1.4849.7663 1.4167 1.9396 2.8386 3.8754 4.2718 5.8021.4235.5699.6088 1.1579.2672 1.8254-.329.6431-.8887.8407-1.5719.8395-4.3726-.009-8.7453-.0116-13.1179.0025-.6933.0026-1.1937-.2631-1.5983-.8279-.9277-1.2927-1.8819-2.566-2.826-3.8458-.1009-.1361-.2105-.267-.3467-.4378z"/><path d="m5.53183 33.5199h.55966c3.25459 0 6.50921-.0103 9.76381.0051 1.4268.0064 2.5563-.543 3.3983-1.7162.4348-.6072.8848-1.2028 1.3777-1.8703.421.5699.8117 1.118 1.2252 1.6495.2823.362.5634.7381.905 1.0371.7311.6419 1.6059.9012 2.5702.8986 3.2709-.0077 6.5407-.0026 9.8116-.0026h.5597c.0101.1528.0277.2889.0277.4262.0025 1.5044.0038 3.0102 0 4.5146-.0025.8742-.3365 1.3786-1.1458 1.67-4.4382 1.6007-8.8751 3.2053-13.3234 4.7726-.3819.1348-.8899.1232-1.2731-.0128-4.4495-1.5661-8.8864-3.1681-13.32591-4.7649-.77142-.2773-1.12562-.7959-1.12814-1.6354-.00378-1.6328 0-3.2643 0-4.9715z"/><path d="m11.5721 11.1858c.0152-5.08451 4.0916-9.20116 9.0983-9.18576 4.994.01541 9.0377 4.16672 9.0213 9.26276-.0164 5.0858-4.0941 9.2025-9.0982 9.1871-4.9916-.0154-9.0365-4.1693-9.0214-9.2641zm7.8428.0026c-.2458-.3646-.4046-.6213-.5836-.8626-.5055-.67908-1.3802-.8344-2.0559-.37613-.6743.45823-.8861 1.35423-.4449 2.07433.4991.8139 1.0222 1.6136 1.568 2.3953.5421.7753 1.5631.9011 2.2286.2413 1.5655-1.5519 3.1084-3.1282 4.6361-4.71864.5798-.60331.5218-1.54294-.0593-2.1193-.581-.57764-1.4848-.60203-2.0848-.01283-.8382.82153-1.655 1.66617-2.4693 2.51077-.2509.2606-.4702.5546-.7336.8691z"/></g></svg>