<svg fill="none" height="51" viewBox="0 0 688 51" width="688" xmlns="http://www.w3.org/2000/svg"><g fill="#d0011b"><g clip-rule="evenodd" fill-rule="evenodd"><path d="m297.567 49.4397c-1.104 0-2-.8955-2-2v-35.7601h-12.784c-1.104 0-2-.8954-2-1.99995v-7.04c0-1.10457.896-2.000002 2-2.000002h37.888c1.105 0 2 .895432 2 2.000002v7.04c0 1.10455-.895 1.99995-2 1.99995h-12.848v35.7601c0 1.1045-.895 2-2 2z"/><path d="m362.963 45.1512-.002.002c-3.631 2.9444-8.553 4.2865-14.508 4.2865h-19.264c-1.104 0-2-.8955-2-2v-44.80005c0-1.10457.896-2.000002 2-2.000002h8.192c1.105 0 2 .895432 2 2.000002v13.16795h10.416c5.607 0 10.241 1.2539 13.624 4.0402 3.483 2.8685 5.08 7.0955 5.08 12.2959 0 5.4902-1.768 9.9415-5.538 13.0075zm-8.768-7.8727.018-.0153c1.234-1.0285 1.968-2.5798 1.968-4.9915 0-2.388-.719-3.7354-1.805-4.53l-.025-.0187c-1.271-.961-3.275-1.5793-6.282-1.5793h-8.688v12.8959h8.688c2.91 0 4.858-.6789 6.126-1.7611z"/><path d="m231.86 46.6189c-.279.6189-.224 1.3368.144 1.9067.369.5699 1.001.9141 1.68.9141h8.576c.8 0 1.523-.4773 1.838-1.2133l3.918-9.1547h19.769l3.933 9.1572c.315.7346 1.038 1.2108 1.838 1.2108h8.704c.679 0 1.311-.3446 1.68-.9151.368-.5705.422-1.2889.142-1.9078l-20.224-44.80005c-.323-.71653-1.036-1.177102-1.822-1.177102h-8.192c-.787 0-1.501.461572-1.824 1.179272zm31.404-18.0752-5.382-12.5304-5.362 12.5304z"/></g><path d="m190.29 42.2152c-.397.8981-.083 1.9516.74 2.4863 2.586 1.6781 5.317 2.9542 8.192 3.8212l.008.0025c2.879.8547 5.769 1.3526 8.668 1.4885 2.884.1352 5.655-.0667 8.307-.6153l.032-.0069c2.644-.5928 5.036-1.4918 7.155-2.7159l.028-.0167c2.144-1.286 3.887-2.8912 5.179-4.8296l.013-.0194c1.335-2.0538 1.987-4.379 1.987-6.914 0-2.6792-.725-5.1116-2.213-7.2215-1.056-1.5419-2.429-2.8073-4.08-3.8095.93-.7529 1.74-1.625 2.42-2.6184 1.395-2.0162 2.081-4.3153 2.081-6.8306 0-2.7766-.844-5.25769-2.561-7.34349-1.629-2.02032-3.767-3.60387-6.349-4.77851-2.54-1.175-5.37-1.885142-8.466-2.15826-3.101-.273663-6.296-.0891031-9.576.540046l-.005.00098c-3.27.635704-6.401 1.748224-9.388 3.332314-.897.47578-1.295 1.54841-.926 2.49438l2.624 6.72004c.214.5464.656.9716 1.211 1.163.554.1914 1.165.1298 1.67-.1686 1.721-1.0169 3.535-1.7775 5.447-2.2848.012-.0032.025-.0066.037-.0101 1.935-.5529 3.755-.819 5.466-.819.015 0 .029-.0002.044-.0005 1.795-.039 3.327.158 4.62.5532l.014.0044c1.333.3963 2.237.9484 2.836 1.5758.01.0113.021.0223.032.0333.527.527.822 1.1954.822 2.1698 0 1.1131-.4 1.897-1.288 2.5425l-.024.0175c-.889.667-2.342 1.136-4.624 1.136h-9.792c-1.104 0-2 .8954-2 2v6.528c0 1.1046.896 2 2 2h10.432c2.605 0 4.403.4784 5.588 1.227.018.0108.035.0214.052.0317 1.027.6053 1.512 1.4268 1.512 2.7573 0 1.1693-.368 2.036-1.078 2.7458-.822.8218-1.997 1.509-3.632 1.9921l-.012.0037c-1.603.4845-3.439.7222-5.528.6828-2.064-.039-4.161-.369-6.296-.9996-2.07-.6663-3.977-1.6023-5.727-2.8078-.49-.3379-1.106-.4396-1.679-.2775s-1.044.5711-1.285 1.1158z"/><path clip-rule="evenodd" d="m148.387 49.4397h-8.576-.482-9.408c-.655 0-1.268-.3208-1.642-.8586l-12.525-18.0214h-5.273v16.88c0 1.1045-.895 2-2 2h-8.192c-1.1045 0-1.9999-.8955-1.9999-2v-44.80005c0-1.10457.8954-2.000002 1.9999-2.000002h8.192c1.105 0 2 .895432 2 2.000002v16.75205h5.544l12.246-17.8821c.373-.544452.99-.869952 1.65-.869952h8.832c.747 0 1.433.416732 1.776 1.080442.344.66372.289 1.46366-.143 2.07398l-14.513 20.53263 13.382 19.4738 18.892-41.98158c.323-.7177 1.037-1.179272 1.824-1.179272h8.192c.786 0 1.499.460572 1.822 1.177102l20.224 44.80005c.28.6189.226 1.3373-.142 1.9078-.369.5705-1.001.9151-1.68.9151h-8.704c-.8 0-1.523-.4762-1.838-1.2108l-3.933-9.1572h-19.769l-3.918 9.1547c-.315.736-1.038 1.2133-1.838 1.2133zm21.004-20.896-5.382-12.5304-5.362 12.5304z" fill-rule="evenodd"/><path clip-rule="evenodd" d="m41.7387 46.6189c-.2785.6189-.2242 1.3368.1443 1.9067s1.0008.9141 1.6795.9141h8.576c.8005 0 1.5238-.4773 1.8387-1.2133l3.9173-9.1547h19.7695l3.9328 9.1572c.3155.7346 1.0382 1.2108 1.8377 1.2108h8.704c.6791 0 1.3118-.3446 1.6801-.9151.3684-.5705.4222-1.2889.1428-1.9078l-20.224-44.80005c-.3235-.71653-1.0367-1.177102-1.8229-1.177102h-8.192c-.787 0-1.5009.461572-1.8238 1.179272zm31.4038-18.0752-5.3815-12.5304-5.3616 12.5304z" fill-rule="evenodd"/><path d="m.171022 42.2153c-.397057.8981-.0833834 1.9516.740265 2.4863 2.585213 1.6781 5.316763 2.9542 8.191453 3.8212l.00829.0025c2.87887.8547 5.76907 1.3526 8.66757 1.4885 2.8844.1352 5.6554-.0667 8.3068-.6153l.0323-.0069c2.6445-.5928 5.0365-1.4918 7.1551-2.7159l.0284-.0167c2.1434-1.286 3.8868-2.8912 5.1791-4.8296l.0128-.0194c1.335-2.0538 1.9871-4.379 1.9871-6.914 0-2.6791-.7255-5.1116-2.2135-7.2213-1.0561-1.5421-2.4287-2.8075-4.0794-3.8097.9301-.7532 1.7402-1.6257 2.4207-2.6195 1.3942-2.016 2.0802-4.3147 2.0802-6.8295 0-2.7766-.8443-5.25768-2.5616-7.34348-1.6287-2.02023-3.7664-3.60374-6.3484-4.77836-2.5403-1.1751-5.3707-1.885287-8.4662-2.158417-3.1015-.273664-6.2959-.0891038-9.5765.540045l-.005.000981c-3.26937.635711-6.40015 1.748231-9.38728 3.332311-.89718.47578-1.29538 1.54841-.926 2.49438l2.624 6.72004c.21337.5464.65587.9716 1.21037 1.163.55449.1914 1.16507.1298 1.6701-.1686 1.72091-1.0169 3.53531-1.7775 5.44741-2.2848.0122-.0032.0244-.0066.0366-.0101 1.9352-.5529 3.7551-.819 5.4665-.819.0145 0 .029-.0002.0435-.0005 1.7956-.039 3.3268.158 4.6201.5532l.0145.0044c1.333.3963 2.2363.9484 2.8352 1.5759.0107.0112.0216.0223.0325.0332.527.527.8222 1.1954.8222 2.1698 0 1.1131-.4007 1.897-1.2883 2.5425l-.0237.0175c-.8893.667-2.3427 1.136-4.624 1.136h-9.792c-1.10454 0-1.99997.8954-1.99997 2v6.528c0 1.1046.89543 2 1.99997 2h10.432c2.6046 0 4.4028.4784 5.588 1.227.0172.0108.0346.0214.0521.0317 1.0262.6053 1.5119 1.4268 1.5119 2.7573 0 1.1693-.3684 2.036-1.0782 2.7458-.8218.8218-1.9972 1.509-3.6325 1.9921l-.012.0037c-1.6027.4845-3.4383.7222-5.5275.6828-2.0639-.039-4.1611-.369-6.2961-.9996-2.07041-.6663-3.97708-1.6023-5.72706-2.8078-.49043-.3379-1.1059-.4396-1.67895-.2775s-1.04406.5711-1.28487 1.1158z"/><path d="m674.013 48.5811c.374.5378.987.8586 1.642.8586h9.408c.743 0 1.425-.4115 1.77-1.0688.346-.6572.299-1.4519-.121-2.064l-15.105-21.9802 14.514-20.53263c.431-.61032.486-1.41026.143-2.07398-.344-.66371-1.029-1.080442-1.777-1.080442h-8.832c-.659 0-1.277.3255-1.65.869952l-12.246 17.8821h-5.544v-16.75205c0-1.10457-.895-2.000002-2-2.000002h-8.192c-1.104 0-2 .895432-2 2.000002v44.80005c0 1.1045.896 2 2 2h8.192c1.105 0 2-.8955 2-2v-16.88h5.273z"/><path d="m590.184 47.4397c0 1.1045.895 2 2 2h7.744c.625 0 1.215-.2931 1.593-.7918l20.471-27.0033v25.7951c0 1.1045.895 2 2 2h8.192c1.104 0 2-.8955 2-2v-44.80005c0-1.10457-.896-2.000002-2-2.000002h-7.744c-.627 0-1.217.293645-1.595.793332l-20.469 27.05612v-25.84945c0-1.10457-.896-2.000002-2-2.000002h-8.192c-1.105 0-2 .895432-2 2.000002z"/><path clip-rule="evenodd" d="m543.463 47.4397c0 1.1045.895 2 2 2h8.32c1.105 0 2-.8955 2-2v-10.928h8.112c4.173 0 7.86-.6718 10.997-2.0962 3.173-1.4217 5.687-3.4981 7.453-6.2463 1.775-2.76 2.622-5.9861 2.622-9.5936 0-3.6074-.847-6.8335-2.622-9.59347-1.766-2.74822-4.28-4.82461-7.453-6.24636-3.137-1.42439-6.824-2.096122-10.997-2.096122h-18.432c-1.105 0-2 .895432-2 2.000002zm12.32-21.968h7.728c3.439 0 5.646-.7273 6.972-1.8376 1.354-1.1398 2.1-2.7372 2.1-5.0585 0-2.3779-.755-3.9574-2.083-5.044l-.017-.0144c-1.326-1.1103-3.533-1.8376-6.972-1.8376h-7.728z" fill-rule="evenodd"/><path clip-rule="evenodd" d="m494.498 47.4397c0 1.1045.895 2 2 2h21.248c5.799 0 10.53-1.1204 13.883-3.6726l.015-.0115c3.387-2.6283 5.062-6.2835 5.062-10.7319 0-4.3453-1.601-7.8843-4.912-10.3161-.464-.3405-.951-.6536-1.462-.9401 2.817-2.3881 4.198-5.6631 4.198-9.6079 0-4.29883-1.675-7.77426-5.07-10.14518-3.276-2.33103-7.664-3.374772-12.93-3.374772h-20.032c-1.105 0-2 .895432-2 2.000002zm12.192-27.664h9.136c2.454 0 3.998-.4911 4.921-1.1828.845-.6722 1.335-1.6283 1.335-3.1532 0-1.6529-.516-2.5973-1.32-3.2059-.921-.6977-2.469-1.1942-4.936-1.1942h-9.136zm0 10.0799v9.184h10.8c2.694 0 4.403-.5016 5.413-1.2159.866-.6498 1.419-1.6682 1.419-3.44 0-1.7871-.558-2.7213-1.371-3.2786-.008-.0052-.015-.0104-.023-.0158l-.008-.0062c-1.009-.7204-2.721-1.2275-5.43-1.2275z" fill-rule="evenodd"/><path clip-rule="evenodd" d="m437.65 35.0371.004.0101c1.3 3.0181 3.139 5.6715 5.508 7.947l.014.0142c2.373 2.2331 5.154 3.9664 8.322 5.2061 3.2 1.2521 6.672 1.8655 10.393 1.8655 3.68 0 7.111-.6139 10.27-1.8675 3.166-1.2395 5.946-2.9722 8.317-5.2041 2.383-2.2426 4.226-4.9062 5.526-7.9713 1.309-3.0841 1.951-6.4245 1.951-9.9971 0-3.5705-.642-6.8925-1.953-9.939-1.299-3.0593-3.139-5.71857-5.516-7.95828-2.372-2.27638-5.154-4.03349-8.325-5.27509-3.161-1.254832-6.614-1.86763-10.334-1.86763-3.682 0-7.132.614518-10.329 1.86552-3.173 1.24171-5.956 2.99953-8.329 5.2772-2.378 2.23969-4.218 4.89888-5.516 7.95828-1.312 3.0465-1.954 6.3685-1.954 9.939 0 3.5726.643 6.913 1.951 9.9971zm36.854-4.4184.009-.0206c.696-1.6491 1.058-3.493 1.058-5.5581 0-2.0658-.362-3.882-1.052-5.4791-.007-.0166-.014-.0333-.021-.0501-.671-1.6784-1.612-3.1115-2.821-4.3206l-.021-.0212c-1.208-1.2444-2.634-2.1979-4.3-2.864-1.662-.6651-3.498-1.009-5.529-1.009-2.028 0-3.862.343-5.522 1.0064-1.626.6661-3.065 1.6248-4.328 2.8878-1.214 1.2149-2.181 2.657-2.895 4.3467-.655 1.6037-.999 3.4287-.999 5.5031 0 2.0233.342 3.8531 1.002 5.5108.714 1.687 1.682 3.1533 2.903 4.414 1.207 1.2038 2.637 2.1409 4.31 2.8102 1.663.6651 3.498 1.009 5.529 1.009s3.867-.3439 5.529-1.009c1.674-.6694 3.104-1.6069 4.311-2.8111 1.224-1.264 2.168-2.7084 2.837-4.3452z" fill-rule="evenodd"/><path d="m423.238 48.5811c.374.5378.987.8586 1.642.8586h9.408c.743 0 1.424-.4115 1.77-1.0688.346-.6572.299-1.4519-.122-2.064l-15.104-21.9802 14.513-20.53263c.432-.61032.487-1.41026.143-2.07398-.344-.66371-1.029-1.080442-1.776-1.080442h-8.832c-.66 0-1.277.3255-1.65.869952l-12.246 17.8821h-5.544v-16.75205c0-1.10457-.895-2.000002-2-2.000002h-8.192c-1.105 0-2 .895432-2 2.000002v44.80005c0 1.1045.895 2 2 2h8.192c1.105 0 2-.8955 2-2v-16.88h5.273z"/></g></svg>