<svg fill="none" height="58" viewBox="0 0 470 58" width="470" xmlns="http://www.w3.org/2000/svg"><g clip-rule="evenodd" fill="#d0011b" fill-rule="evenodd"><path d="m439.573 41.6661-.015-.0067c-1.033-.484-2.004-1.0576-2.912-1.719v15.0276c0 1.1046-.895 2-2 2h-6.912c-1.104 0-2-.8954-2-2v-52.12802c0-1.10457.896-1.999999 2-1.999999h6.624c1.105 0 2 .895429 2 1.999999v1.22043c.925-.67759 1.924-1.25884 2.998-1.74196 2.637-1.23497 5.517-1.83847 8.61-1.83847 4.001 0 7.655.88651 10.91 2.70104 3.249 1.81064 5.794 4.35427 7.606 7.60098 1.873 3.2684 2.78 7.0015 2.78 11.138 0 4.1393-.908 7.8923-2.776 11.2029-1.812 3.2501-4.359 5.7961-7.61 7.608-3.255 1.8146-6.909 2.7011-10.91 2.7011-3 0-5.807-.5807-8.393-1.7659zm25.169-9.5221c1.68-2.976 2.52-6.384 2.52-10.224s-.84-7.224-2.52-10.152c-1.632-2.92802-3.912-5.20802-6.84-6.84002s-6.24-2.448-9.936-2.448c-2.832 0-5.424.552-7.776 1.656-1.427.64099-2.705 1.47652-3.832 2.50658-.729.66692-1.396 1.4154-2 2.24542v-6.048h-6.624v52.12802h6.912v-19.728c.616.7838 1.283 1.4951 2 2.1338 1.128 1.004 2.382 1.8288 3.76 2.4742 2.304 1.056 4.824 1.584 7.56 1.584 3.696 0 7.008-.816 9.936-2.448s5.208-3.912 6.84-6.84zm-7.946-4.1286.008-.0142c.967-1.7324 1.474-3.7418 1.474-6.0812 0-2.3404-.507-4.3174-1.464-5.9917-.009-.0162-.018-.0326-.027-.049-.931-1.7408-2.201-3.0409-3.823-3.951l-.019-.0105c-1.585-.9117-3.419-1.3898-5.555-1.3898-2.064 0-3.896.491-5.541 1.454l-.014.0078c-1.592.9154-2.876 2.2075-3.859 3.9227-.915 1.6769-1.402 3.6604-1.402 6.0075 0 2.3493.488 4.3671 1.415 6.1034.928 1.6915 2.202 3.0042 3.844 3.9693 1.646.9197 3.484 1.3913 5.557 1.3913 2.133 0 3.964-.4767 5.548-1.3858 1.65-.9671 2.928-2.2842 3.858-3.9828zm-2.854 5.7126c-1.92 1.104-4.104 1.656-6.552 1.656-2.4 0-4.584-.552-6.552-1.656-1.968-1.152-3.504-2.736-4.608-4.752-1.104-2.064-1.656-4.416-1.656-7.056s.552-4.968 1.656-6.984c1.152-2.016 2.688-3.576 4.608-4.68 1.968-1.15202 4.152-1.72802 6.552-1.72802 2.448 0 4.632.552 6.552 1.65602 1.968 1.104 3.504 2.688 4.608 4.752 1.152 2.016 1.728 4.344 1.728 6.984s-.576 4.992-1.728 7.056c-1.104 2.016-2.64 3.6-4.608 4.752z"/><path d="m378.88 33.0165c-.007-.0111-.013-.0222-.02-.0333-1.865-3.3041-2.778-7.0085-2.778-11.0632 0-4.0542.913-7.7403 2.785-11.0034l.005-.0089c1.911-3.29096 4.553-5.85477 7.897-7.66192 3.347-1.85664 7.091-2.7658 11.185-2.7658 4.091 0 7.815.90795 11.119 2.76905 3.34 1.80649 5.958 4.3701 7.821 7.66277 1.921 3.2625 2.86 6.9506 2.86 11.0082 0 4.0629-.941 7.7733-2.86 11.0797-1.864 3.248-4.481 5.8063-7.811 7.6575-3.306 1.865-7.034 2.7748-11.129 2.7748-4.098 0-7.846-.9111-11.195-2.7717-3.33-1.8496-5.967-4.4038-7.879-7.6438zm29.226 5.8955c3.024-1.68 5.376-3.984 7.056-6.912 1.728-2.976 2.592-6.336 2.592-10.08s-.864-7.08-2.592-10.008c-1.68-2.97602-4.032-5.28002-7.056-6.91202-2.976-1.68-6.36-2.52-10.152-2.52s-7.2.84-10.224 2.52c-3.024 1.632-5.4 3.936-7.128 6.91202-1.68 2.928-2.52 6.264-2.52 10.008s.84 7.104 2.52 10.08c1.728 2.928 4.104 5.232 7.128 6.912s6.432 2.52 10.224 2.52 7.176-.84 10.152-2.52zm-.746-23.0154-.01-.0173c-.931-1.7408-2.2-3.0409-3.822-3.951l-.019-.0105c-1.585-.9117-3.419-1.3898-5.555-1.3898-2.131 0-3.995.4763-5.637 1.3953-1.577.9096-2.859 2.217-3.844 3.9791-.918 1.679-1.407 3.6657-1.407 6.0176 0 2.3423.485 4.355 1.406 6.0877.982 1.7094 2.266 3.0272 3.862 3.9904 1.638.9128 3.496 1.3859 5.62 1.3859 2.133 0 3.964-.4767 5.548-1.3858 1.647-.9655 2.924-2.28 3.853-3.9747.927-1.7363 1.415-3.7542 1.415-6.1035 0-2.3546-.49-4.3431-1.41-6.0234zm1.754 13.0794c-1.104 2.016-2.64 3.6-4.608 4.752-1.92 1.104-4.104 1.656-6.552 1.656s-4.656-.552-6.624-1.656c-1.92-1.152-3.456-2.736-4.608-4.752-1.104-2.064-1.656-4.416-1.656-7.056s.552-4.968 1.656-6.984c1.152-2.064 2.688-3.648 4.608-4.752 1.968-1.10402 4.176-1.65602 6.624-1.65602s4.632.552 6.552 1.65602c1.968 1.104 3.504 2.688 4.608 4.752 1.104 2.016 1.656 4.344 1.656 6.984s-.552 4.992-1.656 7.056z"/><path d="m378.229 8.88785c0 1.10456-.896 1.99995-2 1.99995h-11.968v30.112c0 1.1046-.896 2-2 2h-6.912c-1.105 0-2-.8954-2-2v-30.112h-11.968c-1.105 0-2-.89539-2-1.99995v-5.05137l.785-.99664h-.785c0-1.10457.895-1.999996 2-1.999996h34.848c1.104 0 2 .895426 2 1.999996zm-22.88 0v32.11195h6.912v-32.11195h13.968v-6.04801h-34.848v6.04801z"/><path d="m333.039 40.9998-12.816-16.128h-7.92v16.128h-6.912v-38.15996h6.912v16.12796h8.064l12.384-16.12796h7.416l-14.472 18.35996 15.48 19.8zm-4.802-19.7949 14.513 18.5631c.471.6025.557 1.4209.222 2.1083s-1.033 1.1235-1.797 1.1235h-8.136c-.61 0-1.187-.2782-1.566-.7557l-12.216-15.3723h-4.954v14.128c0 1.1046-.896 2-2 2h-6.912c-1.105 0-2-.8954-2-2v-38.15996c0-1.10457.895-1.999996 2-1.999996h6.912c1.104 0 2 .895426 2 1.999996v14.12796h5.078l11.783-15.34601c.379-.49298.965-.781946 1.587-.781946h7.416c.766 0 1.465.437746 1.799 1.127126.135.2774.201.57593.201.87287h-.786v1.6901z"/><path d="m299.99 1.74748c.369.56621.427 1.28059.154 1.8991l-18.49 41.94332c-.002.0053-.004.0106-.006.0159-1.7 4.0442-3.8 7.1517-6.424 9.0373-2.55 1.867-5.593 2.7567-9.022 2.7567-2.094 0-4.137-.3489-6.12-1.0438-1.981-.6626-3.693-1.6772-5.086-3.0699-.637-.637-.77-1.6212-.324-2.4039l2.952-5.184c.305-.5345.838-.8993 1.447-.989.608-.0897 1.224.1056 1.67.5295 1.616 1.5371 3.409 2.2571 5.461 2.2571 1.3 0 2.217-.3436 2.902-.9099.025-.0199.049-.0393.074-.0581.744-.5575 1.602-1.6963 2.454-3.7139.008-.0191.016-.0382.025-.057l.847-1.8447-16.483-37.26329c-.273-.61858-.216-1.33354.153-1.90037.369-.56682 1-.908696 1.676-.908696h7.2c.796 0 1.515.471226 1.833 1.200176l11.477 26.30388 11.35-26.2966c.316-.73285 1.038-1.207456 1.836-1.207456h6.768c.676 0 1.306.341426 1.676.907636zm-21.62 31.62032-13.32-30.52796h-7.2l16.848 38.08796-1.224 2.6641c-.912 2.1599-1.944 3.6719-3.096 4.5359-1.104.912-2.496 1.368-4.176 1.368-1.924 0-3.676-.5157-5.256-1.5472-.549-.3581-1.077-.7783-1.584-1.2607l-2.952 5.1839c1.152 1.152 2.592 2.016 4.32 2.592 1.776.624 3.6.936 5.472.936 3.072 0 5.688-.792 7.848-2.376 2.208-1.584 4.128-4.32 5.76-8.208l18.504-41.97596h-6.768z"/><path d="m227.581 41.6661-.015-.0067c-1.034-.484-2.005-1.0576-2.912-1.719v15.0276c0 1.1046-.895 2-2 2h-6.912c-1.104 0-2-.8954-2-2v-52.12802c0-1.10457.896-1.999999 2-1.999999h6.624c1.105 0 2 .895429 2 1.999999v1.22044c.925-.6776 1.924-1.25885 2.997-1.74197 2.638-1.23497 5.518-1.83847 8.611-1.83847 4.001 0 7.654.88651 10.91 2.70104 3.248 1.81064 5.794 4.35427 7.606 7.60098 1.873 3.2684 2.78 7.0015 2.78 11.138 0 4.1393-.908 7.8923-2.776 11.2029-1.812 3.2501-4.359 5.7961-7.61 7.608-3.256 1.8146-6.909 2.7011-10.91 2.7011-3 0-5.807-.5807-8.393-1.7659zm25.169-9.5221c1.68-2.976 2.52-6.384 2.52-10.224s-.84-7.224-2.52-10.152c-1.632-2.92802-3.912-5.20802-6.84-6.84002s-6.24-2.448-9.936-2.448c-2.832 0-5.424.552-7.776 1.656-1.427.64099-2.705 1.47652-3.832 2.50659-.729.66692-1.396 1.41539-2 2.24541v-6.048h-6.624v52.12802h6.912v-19.728c.616.7838 1.283 1.4951 2 2.1338 1.128 1.004 2.381 1.8288 3.76 2.4742 2.304 1.056 4.824 1.584 7.56 1.584 3.696 0 7.008-.816 9.936-2.448s5.208-3.912 6.84-6.84zm-7.946-4.1286.008-.0142c.967-1.7324 1.474-3.7418 1.474-6.0812 0-2.3404-.508-4.3174-1.464-5.9917-.01-.0162-.019-.0326-.027-.049-.932-1.7408-2.201-3.0409-3.823-3.951l-.019-.0105c-1.585-.9117-3.419-1.3898-5.555-1.3898-2.064 0-3.896.491-5.541 1.454l-.014.0078c-1.592.9153-2.876 2.2073-3.859 3.9223-.915 1.677-1.402 3.6605-1.402 6.0079 0 2.3494.488 4.3671 1.415 6.1034.928 1.6916 2.201 3.0043 3.844 3.9693 1.646.9197 3.484 1.3913 5.557 1.3913 2.133 0 3.965-.4769 5.549-1.3862 1.649-.967 2.927-2.284 3.857-3.9824zm-2.854 5.7126c-1.92 1.104-4.104 1.656-6.552 1.656-2.4 0-4.584-.552-6.552-1.656-1.968-1.152-3.504-2.736-4.608-4.752-1.104-2.064-1.656-4.416-1.656-7.056s.552-4.968 1.656-6.984c1.152-2.016 2.688-3.576 4.608-4.68 1.968-1.15202 4.152-1.72802 6.552-1.72802 2.448 0 4.632.552 6.552 1.65602 1.968 1.104 3.504 2.688 4.608 4.752 1.152 2.016 1.728 4.344 1.728 6.984s-.576 4.992-1.728 7.056c-1.104 2.016-2.64 3.6-4.608 4.752z"/><path d="m210.674 8.88785c0 1.10456-.895 1.99995-2 1.99995h-11.968v30.112c0 1.1046-.895 2-2 2h-6.912c-1.104 0-2-.8954-2-2v-30.112h-11.968c-1.104 0-2-.89539-2-1.99995v-6.04801c0-1.10457.896-1.999996 2-1.999996h34.848c1.105 0 2 .895426 2 1.999996zm-22.88 0v32.11195h6.912v-32.11195h13.968v-6.04801h-34.848v6.04801z"/><path d="m144.827 40.6667-.012-.0064c-3.329-1.8496-5.967-4.4038-7.879-7.6438l-.007-.0122c-1.921-3.3076-2.863-7.0196-2.863-11.0843 0-4.0621.941-7.7539 2.867-11.019 1.911-3.28954 4.554-5.85209 7.898-7.65818 3.397-1.85648 7.212-2.76284 11.395-2.76284 3.728 0 7.122.75218 10.13 2.30899 3.079 1.56815 5.482 3.8592 7.165 6.84499.52.92244.23 2.09034-.66 2.66364l-5.256 3.384c-.922.5938-2.151.334-2.753-.5824-1.029-1.5635-2.266-2.6841-3.707-3.4241-1.471-.7551-3.122-1.1471-4.991-1.1471-2.185 0-4.103.4793-5.798 1.405-1.624.9131-2.92 2.2197-3.899 3.9706-.918 1.6788-1.407 3.665-1.407 6.0164 0 2.3967.488 4.432 1.407 6.1601.974 1.6958 2.269 2.9822 3.899 3.8988 1.695.9257 3.613 1.4051 5.798 1.4051 1.869 0 3.52-.392 4.991-1.1472 1.441-.7399 2.678-1.8605 3.707-3.4241.598-.9099 1.815-1.1735 2.737-.5928l5.256 3.312c.902.5686 1.199 1.7451.676 2.6741-1.681 2.9822-4.078 5.2925-7.147 6.9078l-.012.0062c-3.01 1.5588-6.405 2.312-10.136 2.312-4.185 0-8.002-.9072-11.399-2.7653zm4.559-6.9387c-1.968-1.104-3.528-2.664-4.68-4.68-1.104-2.064-1.656-4.44-1.656-7.128 0-2.64.552-4.968 1.656-6.984 1.152-2.064 2.712-3.648 4.68-4.752 2.016-1.10402 4.272-1.65602 6.768-1.65602 2.16 0 4.128.456 5.904 1.368 1.776.91202 3.264 2.28002 4.464 4.10402l.001-.0003 5.255-3.3837c-.307-.545-.64-1.06332-1.001-1.5551-.03-.04058-.059-.08097-.09-.12119-1.372-1.83353-3.12-3.29077-5.245-4.37173-2.688-1.392-5.76-2.088-9.216-2.088-3.888 0-7.368.84-10.44 2.52-3.024 1.632-5.4 3.936-7.128 6.91202-1.728 2.928-2.592 6.264-2.592 10.008s.864 7.104 2.592 10.08c1.728 2.928 4.104 5.232 7.128 6.912 3.072 1.68 6.552 2.52 10.44 2.52 3.456 0 6.528-.696 9.216-2.088 2.126-1.1187 3.875-2.5995 5.247-4.4424.085-.1138.168-.2289.25-.3454.299-.4256.579-.8697.839-1.3322l-5.255-3.3119-.001-.0001c-1.2 1.824-2.688 3.192-4.464 4.104s-3.744 1.368-5.904 1.368c-2.496 0-4.752-.552-6.768-1.656z"/><path d="m88.5859 2.83984c0-1.10457.8955-1.999996 2-1.999996h6.912c1.1046 0 2 .895426 2 1.999996v14.19996h17.7441v-14.19996c0-1.10457.895-1.999996 2-1.999996h6.912c1.105 0 2 .895426 2 1.999996v38.15996c0 1.1046-.895 2-2 2h-6.912c-1.105 0-2-.8954-2-2v-13.984h-17.7441v13.984c0 1.1046-.8954 2-2 2h-6.912c-1.1045 0-2-.8954-2-2zm8.912 22.17596h21.7441v15.984h6.912v-38.15996h-6.912v16.19996h-21.7441v-16.19996h-6.912v38.15996h6.912z"/><path d="m41.7312 33.0165c-.0065-.0111-.0129-.0222-.0193-.0333-1.8652-3.3041-2.7783-7.0085-2.7783-11.0632 0-4.0542.913-7.7403 2.7853-11.0034l.0051-.0089c1.9109-3.29101 4.553-5.85484 7.8971-7.662 3.3463-1.85658 7.0905-2.76572 11.1845-2.76572 4.0911 0 7.8148.90793 11.1186 2.76901 3.3403 1.80653 5.9588 4.3703 7.8216 7.66311 1.9212 3.2624 2.8598 6.9504 2.8598 11.0079 0 4.0629-.941 7.7733-2.8598 11.0797-1.8645 3.2478-4.4812 5.8061-7.8108 7.6572-3.3065 1.8652-7.0339 2.7751-11.1294 2.7751-4.0984 0-7.8462-.9111-11.1953-2.7717-3.3293-1.8496-5.967-4.4038-7.8791-7.6438zm29.2264 5.8955c3.024-1.68 5.376-3.984 7.056-6.912 1.728-2.976 2.592-6.336 2.592-10.08s-.864-7.08-2.592-10.008c-1.68-2.97602-4.032-5.28002-7.056-6.91202-2.976-1.68-6.36-2.52-10.152-2.52s-7.2.84-10.224 2.52c-3.024 1.632-5.4 3.936-7.128 6.91202-1.68 2.928-2.52 6.264-2.52 10.008s.84 7.104 2.52 10.08c1.728 2.928 4.104 5.232 7.128 6.912s6.432 2.52 10.224 2.52 7.176-.84 10.152-2.52zm-.7462-23.0154-.0094-.0173c-.9311-1.7408-2.2005-3.0409-3.8229-3.951l-.0184-.0105c-1.5856-.9117-3.4192-1.3898-5.5551-1.3898-2.1313 0-3.9945.4762-5.6363 1.3951-1.5786.9099-2.8601 2.2178-3.8455 3.9808-.9176 1.6787-1.4062 3.6649-1.4062 6.0161 0 2.3425.4851 4.3553 1.4065 6.0881.9816 1.7091 2.2657 3.0267 3.8615 3.9898 1.6378.913 3.4958 1.3861 5.62 1.3861 2.1329 0 3.9643-.4768 5.5483-1.386 1.6467-.9654 2.923-2.2797 3.8528-3.9741.9268-1.7364 1.4149-3.7543 1.4149-6.1039 0-2.3546-.4901-4.3431-1.4102-6.0234zm1.7542 13.0794c-1.104 2.016-2.64 3.6-4.608 4.752-1.92 1.104-4.104 1.656-6.552 1.656s-4.656-.552-6.624-1.656c-1.92-1.152-3.456-2.736-4.608-4.752-1.104-2.064-1.656-4.416-1.656-7.056s.552-4.968 1.656-6.984c1.152-2.064 2.688-3.648 4.608-4.752 1.968-1.10402 4.176-1.65602 6.624-1.65602s4.632.552 6.552 1.65602c1.968 1.104 3.504 2.688 4.608 4.752 1.104 2.016 1.656 4.344 1.656 6.984s-.552 4.992-1.656 7.056z"/><path d="m30.3433 40.9998-12.816-16.128h-7.91999v16.128h-6.912v-38.15996h6.912v16.12796h8.06399l12.384-16.12796h7.416l-14.472 18.35996 15.48 19.8zm-4.8013-19.7949 13.5-17.12697c.4743-.60174.5632-1.42158.2288-2.11096s-1.0333-1.127126-1.7995-1.127126h-7.416c-.6215 0-1.2077.288966-1.5863.781946l-11.7836 15.34601h-5.0781v-14.12796c0-1.10457-.8954-1.999996-1.99999-1.999996h-6.912c-1.10457 0-1.999998.895426-1.999998 1.999996v38.15996c0 1.1046.895428 2 1.999998 2h6.912c1.10459 0 1.99999-.8954 1.99999-2v-14.128h4.9547l12.2155 15.3723c.3794.4775.956.7557 1.5658.7557h8.136c.7648 0 1.4626-.4361 1.7978-1.1235.3351-.6874.2489-1.5058-.2222-2.1083z"/></g></svg>