<svg xmlns="http://www.w3.org/2000/svg" xmlns:xlink="http://www.w3.org/1999/xlink"><defs><style>
    .sprite-symbol-usage {display: none;}
    .sprite-symbol-usage:target {display: inline;}
  </style><symbol fill="none" viewBox="0 0 49 9" id="arrow-right"><path d="m48.3536 4.85355c.1952-.19526.1952-.51184 0-.7071l-3.182-3.181984c-.1953-.195262-.5119-.195262-.7071 0-.1953.195264-.1953.511844 0 .707104l2.8284 2.82843-2.8284 2.82843c-.1953.19526-.1953.51184 0 .7071.1952.19527.5118.19527.7071 0zm-48.3536.14645h48v-1h-48z" fill="currentColor" /></symbol><symbol fill="none" viewBox="0 0 25 30" id="cart"><path d="m5.64639 7.39588c-.41593-3.94572 2.88918-7.265216 6.75731-7.3141985 1.9645-.024868 3.6564.6902745 5.0245 2.1303585 1.3577 1.42878 1.9667 3.162 1.9169 5.18309.595 0 1.1654-.01206 1.7343.00527.3008.00905.6113.0309.8987.11455 1.0428.30444 1.7194 1.20496 1.8004 2.35869.2785 3.97736.5525 7.95546.8311 11.93286.1225 1.7438.248 3.4868.3787 5.2298.1129 1.4981-.6001 2.6285-1.8939 2.954-.2592.0648-.5348.0867-.8029.0867-6.5322.0045-13.06445.0053-19.59669.0022-1.69712 0-2.797834-1.1657-2.68716796-2.8854.17528196-2.7136.38398696-5.4242.57560896-8.1363.19088-2.7122.37656-5.425.566699-8.1371.03194-.456.0505-.9141.11883-1.36477.18791-1.24868 1.21287-2.1394 2.46287-2.15749.62908-.00904 1.25891-.0015 1.91548-.0015zm2.17543-.01959h9.32188c.2325-1.56216-.6365-3.40465-2.0959-4.32854-1.6578-1.04973-3.375-1.07987-5.0342-.03391-1.5627.98492-2.25046 2.47926-2.19178 4.36245z" fill="currentColor" /></symbol><symbol fill="none" viewBox="0 0 20 20" id="close"><path d="m17.9999 17.9999-7.9999-7.9999m0 0-8-8m8 8 8-8m-8 8-8 8" stroke="currentColor" stroke-linecap="round" stroke-linejoin="round" stroke-width="2.66666" /></symbol><symbol fill="none" viewBox="0 0 22 22" id="geo"><path d="m11 21s8-7.4629 8-13.125c0-2.08858-.8429-4.09162-2.3431-5.56847-1.5003-1.476845-3.5352-2.30653-5.6569-2.30653-2.12173 0-4.15656.829685-5.65685 2.30653-1.5003 1.47685-2.34315 3.47989-2.34315 5.56847 0 5.6621 8 13.125 8 13.125zm0-9.1875c-1.06087 0-2.07828-.4148-2.82843-1.1533-.75014-.73839-1.17157-1.73991-1.17157-2.7842s.42143-2.04581 1.17157-2.78423c.75015-.73843 1.76756-1.15327 2.82843-1.15327 1.0609 0 2.0783.41484 2.8284 1.15327.7502.73842 1.1716 1.73994 1.1716 2.78423s-.4214 2.04581-1.1716 2.7842c-.7501.7385-1.7675 1.1533-2.8284 1.1533z" fill="currentColor" /></symbol><symbol fill="none" viewBox="0 0 42 31" id="mail"><g fill="currentColor"><path d="m1.82109.421645c.14766-.072671.43477-.193789.63985-.274535.34453-.1291929 1.50937-.13726751 18.49806-.14534206 16.316-.00807456 18.1617.00807456 18.498.12111806.2051.072671.5086.19379.6809.28261.1641.080745.4758.306833.6809.492548.2132.193786.4347.444096.4921.565216.0657.1292.1149.29876.1149.38758s-.0492.25839-.0985.37143c-.0574.11305-1.8949 1.70373-4.0851 3.52858-2.1902 1.83293-5.6602 4.73975-7.711 6.46775-2.0507 1.736-4.4542 3.7708-5.332 4.5298-.8777.7509-1.7637 1.5099-1.9687 1.6795-.2133.1777-.5496.3553-.7957.428-.3774.0969-.4922.0969-.8614 0-.3773-.105-.6562-.3069-2.1164-1.5584-.9269-.7913-3.4945-2.9715-5.7011-4.8286-2.2149-1.8652-5.80785-4.88512-7.99809-6.71805-2.19023-1.82485-4.027732-3.41553-4.085154-3.52858-.049219-.11304-.098437-.28261-.098437-.37143s.049218-.25838.114843-.38758c.057422-.12112.278907-.37143.492188-.565216.20508-.185715.50039-.403728.63984-.476399z" /><path d="m.13125 5.48439c.082031-.12919.196875-.27453.270703-.3149.073828-.04845.278906-.08882.459375-.08882.221482 0 .410152.05652.574222.17764.13945.10496 2.35429 1.94596 4.92187 4.0938 2.57578 2.15589 5.72578 4.80439 7.01368 5.89439 1.2879 1.0901 2.9121 2.4708 3.6094 3.0764.6972.6056 1.4765 1.2597 1.7226 1.4615.2461.1938.6563.4441.9024.5491s.6644.218.9269.2584c.2871.0484.6645.0404.9844-.0081.2789-.0484.7301-.1857 1.0008-.3149.2707-.1211.8285-.5168 1.2387-.864.4101-.3552 1.7964-1.5341 3.0761-2.6242 1.2797-1.0981 4.8809-4.1261 7.9899-6.7342 3.109-2.60806 5.734-4.79627 5.8242-4.85279.0902-.0646.3035-.11304.4758-.11304.164 0 .3773.03229.4675.08074.0903.04037.2215.18572.2872.32298.1066.20994.123 1.63914.123 11.36091 0 10.0205-.0082 11.1671-.1313 11.5708-.0738.2423-.205.5895-.3035.7671-.0902.1777-.3363.5006-.5414.7106-.205.218-.4922.4602-.6234.541-.1313.0888-.484.2503-1.3125.5652h-36.17579l-.5332-.2019c-.29532-.113-.63985-.2745-.7793-.3633-.13125-.0808-.41836-.323-.623438-.541-.205078-.21-.442969-.5168-.525-.6702s-.213281-.4845-.303516-.7267c-.147656-.428-.147656-.9205-.147656-11.6032 0-10.21427.00820313-11.19129.13125-11.40931z" /></g></symbol><symbol fill="none" viewBox="0 0 26 20" id="menu"><path d="m3 3h20m-20 7h20m-20 7h20" stroke="currentColor" stroke-linecap="round" stroke-linejoin="round" stroke-width="2" /></symbol><symbol fill="none" viewBox="0 0 38 38" id="phone"><path d="m13.9309 13.8701c1.8499 3.5093 4.0318 6.6448 7.369 8.7965.5704.3678 1.2089.6281 1.8122.9446.2809.1466.4816.1002.7127-.1393.9936-1.0276 2.0092-2.0333 3.021-3.045.6604-.6611 1.2296-.666 1.8888-.0049 2.9323 2.9387 5.8633 5.8798 8.792 8.8234.636.6403.63 1.2097-.011 1.8549-1.7793 1.7913-3.5549 3.5863-5.3452 5.3654-1.53 1.52-3.3178 1.9098-5.3489 1.173-9.9571-3.6107-17.41728-10.2164-22.85738-19.239-1.39256-2.3094-2.56376-4.73-3.553755-7.241-.818507-2.06749-.40864573-4.02743 1.194315-5.55238 1.81701-1.729 3.64619-3.44701 5.47415-5.166237.62878-.591405 1.17485-.588961 1.78417.020772 2.7705 2.777405 5.5386 5.559695 8.3043 8.343205.6385.64273.6336 1.21334-.0098 1.85734-1.0629 1.0655-2.1332 2.1236-3.2266 3.2099z" fill="currentColor" /></symbol><symbol fill="none" viewBox="0 0 22 22" id="search"><g fill="currentColor"><path d="m20.9303 17.7312c-1.1537-1.1322-2.288-2.2843-3.4305-3.4278-.0499-.05-.1015-.0974-.1628-.156-.3734.3767-.7394.7463-1.1107 1.1203-.2139-.2297-.4116-.4428-.6217-.6694.0161-.022.0532-.0812.0972-.1345.9549-1.1607 1.5777-2.4818 1.8539-3.9567.2832-1.51048.1956-3.00211-.3036-4.46523-.4438-1.30222-1.1392-2.44946-2.1091-3.41913-1.3257-1.32429-2.9152-2.162658-4.7648-2.491442-.3004-.0532724-.60396-.0877113-.9065-.131298h-1.15801c-.45084.0710302-.90867.110312-1.35038.217396-2.9243.707611-5.04418 2.436014-6.21885 5.199734-1.163381 2.73628-.95811 5.44777.57981 8.00327 1.41325 2.3472 3.51594 3.7555 6.21348 4.1763 2.51645.3928 4.80395-.2395 6.82065-1.8118.0903-.0705.1795-.1416.3085-.2427.0978.1103.1929.2238.295.3304.0994.1027.2058.198.317.3035-.3869.3836-.7603.7533-1.137 1.1262.0634.0711.0946.1093.1295.1437 1.2784 1.2812 2.5546 2.5652 3.8383 3.8421.9184.9137 2.2677.9503 3.1807.0947.3498-.3272.5685-.7302.6668-1.1989.0113-.0549.0285-.1082.043-.1625v-.558c-.1144-.7281-.5664-1.2382-1.0699-1.7322zm-12.05507-1.8296c-3.87543.0016-7.03886-3.1646-7.04101-7.0465-.00215-3.87653 3.16827-7.0519 7.03994-7.05082 3.87594.00053 7.03834 3.16784 7.03834 7.04921 0 3.88141-3.1581 7.04701-7.03727 7.04811z" /><path d="m14.6142 8.85247c.0032 3.15383-2.6073 5.76533-5.74867 5.74963-3.1559-.0161-5.72448-2.5915-5.73039-5.74586-.00537-3.1517 2.61479-5.77282 5.74813-5.74915 3.16553.02368 5.72773 2.59207 5.73093 5.74538z" /></g></symbol><symbol fill="none" viewBox="0 0 32 32" id="sign"><path d="m16.9926 32.0003h-2c-.0901-.0184-.1795-.0418-.2704-.0551-.6787-.0993-1.3656-.1569-2.0351-.3005-3.57178-.7688-6.55342-2.5559-8.89983-5.3473-2.89232-3.444-4.131886-7.4382-3.7053416-11.9148.3030046-3.182 1.4958216-6.02756 3.5417316-8.48332 3.05176-3.66361 6.97664-5.653593 11.74704-5.8806381 3.0894-.1469119 5.9975.5742901 8.652 2.1711181 4.2195 2.53756 6.8122 6.23289 7.7237 11.08434.1068.5701.1636 1.1502.2429 1.7253v2c-.0176.0693-.0451.1386-.0501.2087-.182 2.4575-.8848 4.7588-2.1611 6.864-2.5384 4.1844-6.2137 6.7637-11.0317 7.6819-.5793.1102-1.1686.1645-1.753.2446zm.601-12.8197c.1352-1.3523.2671-2.667.399-3.9817.1995-1.9883.4015-3.9774.5968-5.96573.1019-1.0359.2496-2.07096.2755-3.10935.0526-2.08848-1.9967-3.4808-3.9441-2.72454-1.2529.48664-1.9223 1.63355-1.7938 3.13689.1119 1.30635.2571 2.61102.3873 3.91573.2229 2.227.4458 4.4541.6695 6.6803.0684.6803.1394 1.3606.2103 2.0484zm1.5927 6.4157c-.0017-1.7588-1.4458-3.202-3.1979-3.1962-1.7587.0059-3.1903 1.4449-3.1886 3.2054.0017 1.7562 1.4474 3.202 3.1978 3.1978 1.7538-.0034 3.1903-1.4491 3.1887-3.2079z" fill="currentColor" /></symbol><symbol viewBox="0 0 24 24" id="telegram"><path d="M16.114 9.291c.552-.552 1.1-1.84-1.2-.276a395.806 395.806 0 0 1-6.489 4.372 2.7 2.7 0 0 1-2.117.046c-1.38-.414-2.991-.966-2.991-.966s-1.1-.691.783-1.427c0 0 7.961-3.267 10.722-4.418 1.058-.46 4.647-1.932 4.647-1.932s1.657-.645 1.519.92c-.046.644-.414 2.9-.782 5.338-.553 3.451-1.151 7.225-1.151 7.225s-.092 1.058-.874 1.242a3.787 3.787 0 0 1-2.3-.828c-.184-.138-3.451-2.209-4.648-3.221a.872.872 0 0 1 .046-1.473 169.31 169.31 0 0 0 4.835-4.602Z" fill="currentColor" /></symbol><symbol fill="none" viewBox="0 0 18 24" id="triangle-arrow"><path d="m18 22.7993v-21.60064c-.0007-.218694-.0611-.433062-.1748-.620027-.1136-.186965-.2762-.339448-.4702-.441036-.194-.101587-.4121-.1484334-.6308-.13549202-.2187.01293942-.4297.08517462-.6104.20892902l-15.627834 10.800266c-.647955.4477-.647955 1.5253 0 1.9741l15.627834 10.8003c.1803.125.3914.1983.6105.212.219.0136.4377-.0329.6321-.1346s.3572-.2546.4707-.4422c.1134-.1875.1732-.4025.1729-.6216z" fill="currentColor" /></symbol><symbol viewBox="0 0 24 24" id="whatsapp"><path d="M8.016 12.271A4.818 4.818 0 0 1 7 9.709a2.777 2.777 0 0 1 .867-2.066.911.911 0 0 1 .661-.31c.165 0 .33 0 .475.009s.356-.058.557.425.7 1.715.764 1.839a.453.453 0 0 1 .02.433 1.694 1.694 0 0 1-.247.414c-.124.144-.261.323-.372.433s-.253.258-.109.506A7.474 7.474 0 0 0 11 13.107a6.778 6.778 0 0 0 1.992 1.229c.248.124.393.1.537-.062s.619-.723.784-.971.331-.206.558-.124 1.445.682 1.692.806.413.186.475.289a2.072 2.072 0 0 1-.144 1.178 2.553 2.553 0 0 1-1.672 1.177 3.389 3.389 0 0 1-1.561-.1 14.282 14.282 0 0 1-1.412-.521 11.043 11.043 0 0 1-4.233-3.737ZM2.045 22l1.406-5.136a9.914 9.914 0 1 1 8.591 4.964A9.918 9.918 0 0 1 7.3 20.622ZM3.8 11.91a8.217 8.217 0 0 0 1.259 4.384l.2.312-.832 3.04 3.119-.818.3.178a8.223 8.223 0 0 0 4.194 1.148A8.24 8.24 0 1 0 3.8 11.91Z" fill="currentColor" /></symbol><symbol fill="none" viewBox="0 0 32 23" id="youtube"><g clip-path="url(#youtube_a)"><path d="m31.2933 19.065c-.1836.681-.5416 1.3018-1.0385 1.8006-.4969.4989-1.1152.8583-1.7935 1.0426-2.4833.6799-12.4775.6799-12.4775.6799s-9.99478-.0205-12.47803-.7005c-.67831-.1843-1.29669-.5437-1.79357-1.0426-.49687-.4989-.854898-1.1197-1.038426-1.8007-.751125-4.4296-1.0425-11.17918.020625-15.43154.183547-.68096.541581-1.30178 1.038461-1.80062.49687-.49885 1.11524-.858315 1.79354-1.042611 2.48325-.6799065 12.4778-.6799065 12.4778-.6799065s9.9943 0 12.4775.6799065c.6783.184277 1.2967.543741 1.7936 1.042581.4969.49885.8549 1.11967 1.0385 1.80065.7922 4.43583 1.0364 11.18134-.0205 15.45224z" fill="#f00" /><path d="m12.8026 6.51787 8.291 4.82113-8.291 4.821z" fill="#fff" /></g></symbol><clipPath id="youtube_a"><path d="m0 0h32v22.5882h-32z" transform="matrix(1 0 0 -1 0 22.5881)" /></clipPath></defs><use id="arrow-right-usage" xlink:href="#arrow-right" class="sprite-symbol-usage" /><use id="cart-usage" xlink:href="#cart" class="sprite-symbol-usage" /><use id="close-usage" xlink:href="#close" class="sprite-symbol-usage" /><use id="geo-usage" xlink:href="#geo" class="sprite-symbol-usage" /><use id="mail-usage" xlink:href="#mail" class="sprite-symbol-usage" /><use id="menu-usage" xlink:href="#menu" class="sprite-symbol-usage" /><use id="phone-usage" xlink:href="#phone" class="sprite-symbol-usage" /><use id="search-usage" xlink:href="#search" class="sprite-symbol-usage" /><use id="sign-usage" xlink:href="#sign" class="sprite-symbol-usage" /><use id="telegram-usage" xlink:href="#telegram" class="sprite-symbol-usage" /><use id="triangle-arrow-usage" xlink:href="#triangle-arrow" class="sprite-symbol-usage" /><use id="whatsapp-usage" xlink:href="#whatsapp" class="sprite-symbol-usage" /><use id="youtube-usage" xlink:href="#youtube" class="sprite-symbol-usage" /></svg>