<svg fill="none" height="45" viewBox="0 0 45 45" width="45" xmlns="http://www.w3.org/2000/svg" xmlns:xlink="http://www.w3.org/1999/xlink"><linearGradient id="a" gradientUnits="userSpaceOnUse" x1=".032968" x2="44.4659" y1="22.162" y2="22.162"><stop offset="0" stop-color="#2aabee"/><stop offset="1" stop-color="#229ed9"/></linearGradient><path d="m22.2326 44.3562c12.2787 0 22.2325-9.9295 22.2325-22.1781 0-12.24862-9.9538-22.1781-22.2325-22.1781-12.27875 0-22.2326 9.92948-22.2326 22.1781 0 12.2486 9.95385 22.1781 22.2326 22.1781z" fill="url(#a)"/><path clip-rule="evenodd" d="m10.0786 21.9364c6.4759-2.8327 10.8046-4.6636 12.9517-5.5618 6.1642-2.5564 7.4455-3.0055 8.2766-3.0055.1732 0 .5887.0346.8658.2419.2077.1727.277.4145.3116.5872.0347.1728.0693.5528.0347.8637-.3463 3.489-1.7662 12.0217-2.528 15.9254-.3117 1.6581-.935 2.2109-1.5238 2.28-1.2813.1036-2.2855-.8637-3.5322-1.6582-1.9393-1.2782-3.0475-2.0727-4.9521-3.3164-2.1817-1.4509-.7619-2.2454.4848-3.5236.3116-.3454 6.0256-5.4927 6.1295-5.9763 0-.0691.0346-.2764-.1039-.38-.1385-.1037-.3116-.0691-.4502-.0346-.2078.0346-3.3245 2.1073-9.3847 6.1836-.9004.6219-1.6969.8982-2.4242.8982-.7964 0-2.3202-.4491-3.463-.8291-1.38517-.4491-2.49334-.6909-2.38945-1.4509.10389-.4145.65798-.8291 1.69685-1.2436z" fill="#fff" fill-rule="evenodd"/></svg>