<svg width="466" height="54" viewBox="0 0 466 54" fill="none" xmlns="http://www.w3.org/2000/svg">
<mask id="path-1-outside-1_501_6794" maskUnits="userSpaceOnUse" x="-2" y="-2" width="470" height="58" fill="black">
<rect fill="white" x="-2" y="-2" width="470" height="58"/>
<path d="M15.528 22.872H7.608V39H0.696V0.839998H7.608V16.968H15.672L28.056 0.839998H35.472L21 19.2L36.48 39H28.344L15.528 22.872ZM58.8056 39.432C55.0136 39.432 51.6056 38.592 48.5816 36.912C45.5576 35.232 43.1816 32.928 41.4536 30C39.7736 27.024 38.9336 23.664 38.9336 19.92C38.9336 16.176 39.7736 12.84 41.4536 9.912C43.1816 6.936 45.5576 4.632 48.5816 3C51.6056 1.32 55.0136 0.479998 58.8056 0.479998C62.5976 0.479998 65.9816 1.32 68.9576 3C71.9816 4.632 74.3336 6.936 76.0136 9.912C77.7416 12.84 78.6056 16.176 78.6056 19.92C78.6056 23.664 77.7416 27.024 76.0136 30C74.3336 32.928 71.9816 35.232 68.9576 36.912C65.9816 38.592 62.5976 39.432 58.8056 39.432ZM58.8056 33.384C61.2536 33.384 63.4376 32.832 65.3576 31.728C67.3256 30.576 68.8616 28.992 69.9656 26.976C71.0696 24.912 71.6216 22.56 71.6216 19.92C71.6216 17.28 71.0696 14.952 69.9656 12.936C68.8616 10.872 67.3256 9.288 65.3576 8.184C63.4376 7.08 61.2536 6.528 58.8056 6.528C56.3576 6.528 54.1496 7.08 52.1816 8.184C50.2616 9.288 48.7256 10.872 47.5736 12.936C46.4696 14.952 45.9176 17.28 45.9176 19.92C45.9176 22.56 46.4696 24.912 47.5736 26.976C48.7256 28.992 50.2616 30.576 52.1816 31.728C54.1496 32.832 56.3576 33.384 58.8056 33.384ZM88.5866 0.839998H95.4986V17.04H117.243V0.839998H124.155V39H117.243V23.016H95.4986V39H88.5866V0.839998ZM154.226 39.432C150.338 39.432 146.858 38.592 143.786 36.912C140.762 35.232 138.386 32.928 136.658 30C134.93 27.024 134.066 23.664 134.066 19.92C134.066 16.176 134.93 12.84 136.658 9.912C138.386 6.936 140.762 4.632 143.786 3C146.858 1.32 150.338 0.479998 154.226 0.479998C157.682 0.479998 160.754 1.176 163.442 2.568C166.178 3.96 168.29 5.976 169.778 8.616L164.522 12C163.322 10.176 161.834 8.808 160.058 7.896C158.282 6.984 156.314 6.528 154.154 6.528C151.658 6.528 149.402 7.08 147.386 8.184C145.418 9.288 143.858 10.872 142.706 12.936C141.602 14.952 141.05 17.28 141.05 19.92C141.05 22.608 141.602 24.984 142.706 27.048C143.858 29.064 145.418 30.624 147.386 31.728C149.402 32.832 151.658 33.384 154.154 33.384C156.314 33.384 158.282 32.928 160.058 32.016C161.834 31.104 163.322 29.736 164.522 27.912L169.778 31.224C168.29 33.864 166.178 35.904 163.442 37.344C160.754 38.736 157.682 39.432 154.226 39.432ZM206.675 6.888H192.707V39H185.795V6.888H171.827V0.839998H206.675V6.888ZM233.975 0.479998C237.671 0.479998 240.983 1.296 243.911 2.928C246.839 4.56 249.119 6.84 250.751 9.768C252.431 12.696 253.271 16.08 253.271 19.92C253.271 23.76 252.431 27.168 250.751 30.144C249.119 33.072 246.839 35.352 243.911 36.984C240.983 38.616 237.671 39.432 233.975 39.432C231.239 39.432 228.719 38.904 226.415 37.848C224.159 36.792 222.239 35.256 220.655 33.24V52.968H213.743V0.839998H220.367V6.888C221.903 4.776 223.847 3.192 226.199 2.136C228.551 1.032 231.143 0.479998 233.975 0.479998ZM233.399 33.384C235.847 33.384 238.031 32.832 239.951 31.728C241.919 30.576 243.455 28.992 244.559 26.976C245.711 24.912 246.287 22.56 246.287 19.92C246.287 17.28 245.711 14.952 244.559 12.936C243.455 10.872 241.919 9.288 239.951 8.184C238.031 7.08 235.847 6.528 233.399 6.528C230.999 6.528 228.815 7.104 226.847 8.256C224.927 9.36 223.391 10.92 222.239 12.936C221.135 14.952 220.583 17.28 220.583 19.92C220.583 22.56 221.135 24.912 222.239 26.976C223.343 28.992 224.879 30.576 226.847 31.728C228.815 32.832 230.999 33.384 233.399 33.384ZM296.315 0.839998L277.811 42.816C276.179 46.704 274.259 49.44 272.051 51.024C269.891 52.608 267.275 53.4 264.203 53.4C262.331 53.4 260.507 53.088 258.731 52.464C257.003 51.888 255.562 51.024 254.41 49.872L257.363 44.688C259.33 46.56 261.611 47.496 264.203 47.496C265.883 47.496 267.275 47.04 268.379 46.128C269.531 45.264 270.563 43.752 271.475 41.592L272.699 38.928L255.851 0.839998H263.051L276.371 31.368L289.547 0.839998H296.315ZM318.223 22.872H310.303V39H303.391V0.839998H310.303V16.968H318.367L330.751 0.839998H338.167L323.695 19.2L339.175 39H331.039L318.223 22.872ZM374.23 6.888H360.262V39H353.35V6.888H339.382V0.839998H374.23V6.888ZM395.954 39.432C392.162 39.432 388.754 38.592 385.73 36.912C382.706 35.232 380.33 32.928 378.602 30C376.922 27.024 376.082 23.664 376.082 19.92C376.082 16.176 376.922 12.84 378.602 9.912C380.33 6.936 382.706 4.632 385.73 3C388.754 1.32 392.162 0.479998 395.954 0.479998C399.746 0.479998 403.13 1.32 406.106 3C409.13 4.632 411.482 6.936 413.162 9.912C414.89 12.84 415.754 16.176 415.754 19.92C415.754 23.664 414.89 27.024 413.162 30C411.482 32.928 409.13 35.232 406.106 36.912C403.13 38.592 399.746 39.432 395.954 39.432ZM395.954 33.384C398.402 33.384 400.586 32.832 402.506 31.728C404.474 30.576 406.01 28.992 407.114 26.976C408.218 24.912 408.77 22.56 408.77 19.92C408.77 17.28 408.218 14.952 407.114 12.936C406.01 10.872 404.474 9.288 402.506 8.184C400.586 7.08 398.402 6.528 395.954 6.528C393.506 6.528 391.298 7.08 389.33 8.184C387.41 9.288 385.874 10.872 384.722 12.936C383.618 14.952 383.066 17.28 383.066 19.92C383.066 22.56 383.618 24.912 384.722 26.976C385.874 28.992 387.41 30.576 389.33 31.728C391.298 32.832 393.506 33.384 395.954 33.384ZM445.967 0.479998C449.663 0.479998 452.975 1.296 455.903 2.928C458.831 4.56 461.111 6.84 462.743 9.768C464.423 12.696 465.263 16.08 465.263 19.92C465.263 23.76 464.423 27.168 462.743 30.144C461.111 33.072 458.831 35.352 455.903 36.984C452.975 38.616 449.663 39.432 445.967 39.432C443.231 39.432 440.711 38.904 438.407 37.848C436.151 36.792 434.231 35.256 432.647 33.24V52.968H425.735V0.839998H432.359V6.888C433.895 4.776 435.839 3.192 438.191 2.136C440.543 1.032 443.135 0.479998 445.967 0.479998ZM445.391 33.384C447.839 33.384 450.023 32.832 451.943 31.728C453.911 30.576 455.447 28.992 456.551 26.976C457.703 24.912 458.279 22.56 458.279 19.92C458.279 17.28 457.703 14.952 456.551 12.936C455.447 10.872 453.911 9.288 451.943 8.184C450.023 7.08 447.839 6.528 445.391 6.528C442.991 6.528 440.807 7.104 438.839 8.256C436.919 9.36 435.383 10.92 434.231 12.936C433.127 14.952 432.575 17.28 432.575 19.92C432.575 22.56 433.127 24.912 434.231 26.976C435.335 28.992 436.871 30.576 438.839 31.728C440.807 32.832 442.991 33.384 445.391 33.384Z"/>
</mask>
<path d="M15.528 22.872L17.0938 21.6277C16.7144 21.1503 16.1379 20.872 15.528 20.872V22.872ZM7.608 22.872V20.872C6.50343 20.872 5.608 21.7674 5.608 22.872H7.608ZM7.608 39V41C8.71257 41 9.608 40.1046 9.608 39H7.608ZM0.696 39H-1.304C-1.304 40.1046 -0.408569 41 0.696 41V39ZM0.696 0.839998V-1.16C-0.408569 -1.16 -1.304 -0.264572 -1.304 0.839998H0.696ZM7.608 0.839998H9.608C9.608 -0.264572 8.71257 -1.16 7.608 -1.16V0.839998ZM7.608 16.968H5.608C5.608 18.0726 6.50343 18.968 7.608 18.968V16.968ZM15.672 16.968V18.968C16.2935 18.968 16.8798 18.679 17.2583 18.1861L15.672 16.968ZM28.056 0.839998V-1.16C27.4345 -1.16 26.8482 -0.871033 26.4697 -0.378054L28.056 0.839998ZM35.472 0.839998L37.0427 2.07809C37.517 1.47634 37.6059 0.656506 37.2715 -0.032877C36.9371 -0.72226 36.2382 -1.16 35.472 -1.16V0.839998ZM21 19.2L19.4293 17.9619C18.8587 18.6857 18.8567 19.7058 19.4244 20.4318L21 19.2ZM36.48 39V41C37.2448 41 37.9426 40.5639 38.2777 39.8764C38.6129 39.189 38.5267 38.3707 38.0556 37.7682L36.48 39ZM28.344 39L26.7782 40.2443C27.1576 40.7217 27.7341 41 28.344 41V39ZM15.528 20.872H7.608V24.872H15.528V20.872ZM5.608 22.872V39H9.608V22.872H5.608ZM7.608 37H0.696V41H7.608V37ZM2.696 39V0.839998H-1.304V39H2.696ZM0.696 2.84H7.608V-1.16H0.696V2.84ZM5.608 0.839998V16.968H9.608V0.839998H5.608ZM7.608 18.968H15.672V14.968H7.608V18.968ZM17.2583 18.1861L29.6423 2.05805L26.4697 -0.378054L14.0857 15.7499L17.2583 18.1861ZM28.056 2.84H35.472V-1.16H28.056V2.84ZM33.9013 -0.398092L19.4293 17.9619L22.5707 20.4381L37.0427 2.07809L33.9013 -0.398092ZM19.4244 20.4318L34.9044 40.2318L38.0556 37.7682L22.5756 17.9682L19.4244 20.4318ZM36.48 37H28.344V41H36.48V37ZM29.9098 37.7557L17.0938 21.6277L13.9622 24.1163L26.7782 40.2443L29.9098 37.7557ZM48.5816 36.912L47.6103 38.6603L48.5816 36.912ZM41.4536 30L39.712 30.9832C39.7183 30.9944 39.7247 31.0055 39.7312 31.0165L41.4536 30ZM41.4536 9.912L39.724 8.90771L39.7189 8.91666L41.4536 9.912ZM48.5816 3L49.5315 4.76004C49.5387 4.75618 49.5458 4.75227 49.5529 4.74831L48.5816 3ZM68.9576 3L67.9744 4.74165C67.9855 4.74789 67.9966 4.75402 68.0078 4.76004L68.9576 3ZM76.0136 9.912L74.272 10.8952C74.2783 10.9064 74.2847 10.9175 74.2912 10.9285L76.0136 9.912ZM76.0136 30L74.284 28.9957L74.2789 29.0047L76.0136 30ZM68.9576 36.912L67.9863 35.1636L67.9744 35.1703L68.9576 36.912ZM65.3576 31.728L66.3546 33.4618C66.359 33.4592 66.3635 33.4566 66.368 33.454L65.3576 31.728ZM69.9656 26.976L71.7198 27.9366C71.723 27.9309 71.7261 27.9251 71.7292 27.9193L69.9656 26.976ZM69.9656 12.936L68.2021 13.8793C68.2052 13.8851 68.2083 13.8909 68.2114 13.8966L69.9656 12.936ZM65.3576 8.184L64.3607 9.91781C64.3668 9.92133 64.373 9.92482 64.3791 9.92828L65.3576 8.184ZM52.1816 8.184L51.2031 6.43971C51.197 6.44317 51.1908 6.44666 51.1847 6.45018L52.1816 8.184ZM47.5736 12.936L45.8272 11.9613C45.8246 11.966 45.822 11.9707 45.8194 11.9754L47.5736 12.936ZM47.5736 26.976L45.8101 27.9193C45.8189 27.9358 45.8279 27.9521 45.8371 27.9683L47.5736 26.976ZM52.1816 31.728L51.1526 33.443C51.1693 33.453 51.1862 33.4628 51.2031 33.4723L52.1816 31.728ZM58.8056 37.432C55.32 37.432 52.2518 36.6631 49.5529 35.1637L47.6103 38.6603C50.9594 40.5209 54.7072 41.432 58.8056 41.432V37.432ZM49.5529 35.1637C46.8342 33.6533 44.7199 31.5995 43.176 28.9835L39.7312 31.0165C41.6433 34.2565 44.281 36.8107 47.6103 38.6603L49.5529 35.1637ZM43.1953 29.0168C41.7005 26.3689 40.9336 23.3533 40.9336 19.92H36.9336C36.9336 23.9747 37.8467 27.6791 39.712 30.9832L43.1953 29.0168ZM40.9336 19.92C40.9336 16.4862 41.7006 13.5003 43.1884 10.9073L39.7189 8.91666C37.8466 12.1797 36.9336 15.8658 36.9336 19.92H40.9336ZM43.1832 10.9163C44.7263 8.25879 46.8326 6.21658 49.5315 4.76004L47.6318 1.23996C44.2826 3.04742 41.637 5.61321 39.724 8.90773L43.1832 10.9163ZM49.5529 4.74831C52.2518 3.24892 55.32 2.48 58.8056 2.48V-1.52C54.7072 -1.52 50.9594 -0.608917 47.6103 1.25169L49.5529 4.74831ZM58.8056 2.48C62.2917 2.48 65.3304 3.24903 67.9744 4.74165L69.9408 1.25835C66.6329 -0.60903 62.9035 -1.52 58.8056 -1.52V2.48ZM68.0078 4.76004C70.7018 6.21397 72.7785 8.24953 74.272 10.8952L77.7553 8.92881C75.8888 5.62247 73.2615 3.05003 69.9075 1.23996L68.0078 4.76004ZM74.2912 10.9285C75.8195 13.518 76.6056 16.4963 76.6056 19.92H80.6056C80.6056 15.8557 79.6638 12.162 77.736 8.89549L74.2912 10.9285ZM76.6056 19.92C76.6056 23.3432 75.8195 26.3513 74.284 28.9957L77.7432 31.0043C79.6637 27.6967 80.6056 23.9848 80.6056 19.92H76.6056ZM74.2789 29.0047C72.7848 31.6087 70.7003 33.6559 67.9863 35.1637L69.9289 38.6603C73.2629 36.8081 75.8825 34.2473 77.7484 30.9953L74.2789 29.0047ZM67.9744 35.1703C65.3304 36.663 62.2917 37.432 58.8056 37.432V41.432C62.9035 41.432 66.6329 40.521 69.9408 38.6536L67.9744 35.1703ZM58.8056 35.384C61.5657 35.384 64.1001 34.7581 66.3546 33.4618L64.3607 29.9942C62.7751 30.9059 60.9415 31.384 58.8056 31.384V35.384ZM66.368 33.454C68.6513 32.1175 70.4432 30.2678 71.7198 27.9366L68.2114 26.0154C67.28 27.7162 66 29.0345 64.3473 30.002L66.368 33.454ZM71.7292 27.9193C73.0074 25.5297 73.6216 22.8465 73.6216 19.92H69.6216C69.6216 22.2735 69.1319 24.2943 68.2021 26.0327L71.7292 27.9193ZM73.6216 19.92C73.6216 16.9946 73.0077 14.3271 71.7198 11.9754L68.2114 13.8966C69.1316 15.5769 69.6216 17.5654 69.6216 19.92H73.6216ZM71.7292 11.9927C70.4523 9.60551 68.6497 7.73757 66.3361 6.43971L64.3791 9.92828C66.0016 10.8384 67.2709 12.1385 68.2021 13.8793L71.7292 11.9927ZM66.3546 6.45018C64.1001 5.15387 61.5657 4.528 58.8056 4.528V8.528C60.9415 8.528 62.7751 9.00613 64.3607 9.91781L66.3546 6.45018ZM58.8056 4.528C56.0449 4.528 53.495 5.154 51.2031 6.43971L53.1601 9.92828C54.8042 9.006 56.6704 8.528 58.8056 8.528V4.528ZM51.1847 6.45018C48.9295 7.74691 47.1434 9.60316 45.8272 11.9613L49.32 13.9107C50.3079 12.1408 51.5937 10.8291 53.1786 9.91781L51.1847 6.45018ZM45.8194 11.9754C44.5316 14.3271 43.9176 16.9946 43.9176 19.92H47.9176C47.9176 17.5654 48.4077 15.5769 49.3278 13.8966L45.8194 11.9754ZM43.9176 19.92C43.9176 22.8465 44.5319 25.5297 45.8101 27.9193L49.3372 26.0327C48.4074 24.2943 47.9176 22.2735 47.9176 19.92H43.9176ZM45.8371 27.9683C47.1526 30.2704 48.9277 32.108 51.1526 33.443L53.2106 30.013C51.5956 29.044 50.2986 27.7136 49.3101 25.9837L45.8371 27.9683ZM51.2031 33.4723C53.495 34.758 56.0449 35.384 58.8056 35.384V31.384C56.6704 31.384 54.8042 30.906 53.1601 29.9837L51.2031 33.4723ZM88.5866 0.839998V-1.16C87.4821 -1.16 86.5866 -0.264572 86.5866 0.839998H88.5866ZM95.4986 0.839998H97.4986C97.4986 -0.264572 96.6032 -1.16 95.4986 -1.16V0.839998ZM95.4986 17.04H93.4986C93.4986 18.1446 94.3941 19.04 95.4986 19.04V17.04ZM117.243 17.04V19.04C118.347 19.04 119.243 18.1446 119.243 17.04H117.243ZM117.243 0.839998V-1.16C116.138 -1.16 115.243 -0.264572 115.243 0.839998H117.243ZM124.155 0.839998H126.155C126.155 -0.264572 125.259 -1.16 124.155 -1.16V0.839998ZM124.155 39V41C125.259 41 126.155 40.1046 126.155 39H124.155ZM117.243 39H115.243C115.243 40.1046 116.138 41 117.243 41V39ZM117.243 23.016H119.243C119.243 21.9114 118.347 21.016 117.243 21.016V23.016ZM95.4986 23.016V21.016C94.3941 21.016 93.4986 21.9114 93.4986 23.016H95.4986ZM95.4986 39V41C96.6032 41 97.4986 40.1046 97.4986 39H95.4986ZM88.5866 39H86.5866C86.5866 40.1046 87.4821 41 88.5866 41V39ZM88.5866 2.84H95.4986V-1.16H88.5866V2.84ZM93.4986 0.839998V17.04H97.4986V0.839998H93.4986ZM95.4986 19.04H117.243V15.04H95.4986V19.04ZM119.243 17.04V0.839998H115.243V17.04H119.243ZM117.243 2.84H124.155V-1.16H117.243V2.84ZM122.155 0.839998V39H126.155V0.839998H122.155ZM124.155 37H117.243V41H124.155V37ZM119.243 39V23.016H115.243V39H119.243ZM117.243 21.016H95.4986V25.016H117.243V21.016ZM93.4986 23.016V39H97.4986V23.016H93.4986ZM95.4986 37H88.5866V41H95.4986V37ZM90.5866 39V0.839998H86.5866V39H90.5866ZM143.786 36.912L142.815 38.6604L142.827 38.6667L143.786 36.912ZM136.658 30L134.929 31.0043C134.931 31.0084 134.934 31.0124 134.936 31.0165L136.658 30ZM136.658 9.912L138.381 10.9285C138.383 10.9244 138.386 10.9204 138.388 10.9163L136.658 9.912ZM143.786 3L144.736 4.76007L144.746 4.75474L143.786 3ZM163.442 2.568L162.523 4.34399C162.527 4.34619 162.531 4.34838 162.536 4.35055L163.442 2.568ZM169.778 8.616L170.861 10.2976C171.751 9.72436 172.041 8.55647 171.521 7.63397L169.778 8.616ZM164.522 12L162.852 13.0992C163.454 14.0156 164.683 14.2754 165.605 13.6816L164.522 12ZM160.058 7.896L159.145 9.67513L160.058 7.896ZM147.386 8.184L146.426 6.42981C146.42 6.43307 146.414 6.43638 146.408 6.43971L147.386 8.184ZM142.706 12.936L140.96 11.9613C140.957 11.966 140.955 11.9707 140.952 11.9754L142.706 12.936ZM142.706 27.048L140.943 27.9913C140.952 28.0078 140.961 28.0241 140.97 28.0403L142.706 27.048ZM147.386 31.728L146.408 33.4723C146.414 33.4756 146.42 33.4789 146.426 33.4822L147.386 31.728ZM164.522 27.912L165.589 26.2199C164.667 25.6392 163.45 25.9028 162.852 26.8128L164.522 27.912ZM169.778 31.224L171.521 32.206C172.044 31.277 171.747 30.1005 170.845 29.5319L169.778 31.224ZM163.442 37.344L164.362 39.12L164.374 39.1138L163.442 37.344ZM154.226 37.432C150.636 37.432 147.492 36.6591 144.746 35.1573L142.827 38.6667C146.225 40.5249 150.041 41.432 154.226 41.432V37.432ZM144.758 35.1637C142.039 33.6533 139.925 31.5995 138.381 28.9835L134.936 31.0165C136.848 34.2565 139.486 36.8107 142.815 38.6603L144.758 35.1637ZM138.388 28.9957C136.853 26.3513 136.066 23.3432 136.066 19.92H132.066C132.066 23.9848 133.008 27.6967 134.929 31.0043L138.388 28.9957ZM136.066 19.92C136.066 16.4963 136.853 13.518 138.381 10.9285L134.936 8.89549C133.008 12.162 132.066 15.8557 132.066 19.92H136.066ZM138.388 10.9163C139.931 8.25879 142.037 6.21658 144.736 4.76004L142.837 1.23996C139.487 3.04742 136.842 5.61321 134.929 8.90773L138.388 10.9163ZM144.746 4.75474C147.492 3.25286 150.636 2.48 154.226 2.48V-1.52C150.041 -1.52 146.225 -0.61286 142.827 1.24526L144.746 4.75474ZM154.226 2.48C157.408 2.48 160.157 3.11884 162.523 4.34399L164.362 0.792007C161.352 -0.766846 157.957 -1.52 154.226 -1.52V2.48ZM162.536 4.35055C164.925 5.56631 166.744 7.30605 168.036 9.59803L171.521 7.63397C169.837 4.64594 167.432 2.35368 164.349 0.78544L162.536 4.35055ZM168.696 6.93439L163.44 10.3184L165.605 13.6816L170.861 10.2976L168.696 6.93439ZM166.193 10.9008C164.822 8.81633 163.083 7.2009 160.972 6.11686L159.145 9.67513C160.586 10.4151 161.823 11.5357 162.852 13.0992L166.193 10.9008ZM160.972 6.11687C158.891 5.04803 156.606 4.528 154.154 4.528V8.528C156.023 8.528 157.674 8.91997 159.145 9.67513L160.972 6.11687ZM154.154 4.528C151.352 4.528 148.761 5.15088 146.426 6.42981L148.347 9.93819C150.044 9.00911 151.965 8.528 154.154 8.528V4.528ZM146.408 6.43971C144.102 7.73319 142.283 9.59081 140.96 11.9613L144.453 13.9107C145.434 12.1532 146.735 10.8428 148.365 9.92828L146.408 6.43971ZM140.952 11.9754C139.664 14.3271 139.05 16.9946 139.05 19.92H143.05C143.05 17.5654 143.54 15.5769 144.461 13.8966L140.952 11.9754ZM139.05 19.92C139.05 22.8879 139.662 25.5966 140.943 27.9913L144.47 26.1047C143.543 24.3714 143.05 22.3281 143.05 19.92H139.05ZM140.97 28.0403C142.296 30.3614 144.114 32.1856 146.408 33.4723L148.365 29.9837C146.723 29.0624 145.421 27.7666 144.443 26.0557L140.97 28.0403ZM146.426 33.4822C148.761 34.7611 151.352 35.384 154.154 35.384V31.384C151.965 31.384 150.044 30.9029 148.347 29.9738L146.426 33.4822ZM154.154 35.384C156.606 35.384 158.891 34.864 160.972 33.7951L159.145 30.2369C157.674 30.992 156.023 31.384 154.154 31.384V35.384ZM160.972 33.7951C163.083 32.7111 164.822 31.0957 166.193 29.0112L162.852 26.8128C161.823 28.3763 160.586 29.4969 159.145 30.2369L160.972 33.7951ZM163.456 29.6041L168.712 32.9161L170.845 29.5319L165.589 26.2199L163.456 29.6041ZM168.036 30.242C166.741 32.5397 164.914 34.3095 162.511 35.5742L164.374 39.1138C167.443 37.4985 169.84 35.1883 171.521 32.206L168.036 30.242ZM162.523 35.568C160.157 36.7932 157.408 37.432 154.226 37.432V41.432C157.957 41.432 161.352 40.6788 164.362 39.12L162.523 35.568ZM206.675 6.888V8.888C207.78 8.888 208.675 7.99257 208.675 6.888H206.675ZM192.707 6.888V4.888C191.602 4.888 190.707 5.78343 190.707 6.888H192.707ZM192.707 39V41C193.812 41 194.707 40.1046 194.707 39H192.707ZM185.795 39H183.795C183.795 40.1046 184.69 41 185.795 41V39ZM185.795 6.888H187.795C187.795 5.78343 186.9 4.888 185.795 4.888V6.888ZM171.827 6.888H169.827C169.827 7.99257 170.722 8.888 171.827 8.888V6.888ZM171.827 0.839998V-1.16C170.722 -1.16 169.827 -0.264572 169.827 0.839998H171.827ZM206.675 0.839998H208.675C208.675 -0.264572 207.78 -1.16 206.675 -1.16V0.839998ZM206.675 4.888H192.707V8.888H206.675V4.888ZM190.707 6.888V39H194.707V6.888H190.707ZM192.707 37H185.795V41H192.707V37ZM187.795 39V6.888H183.795V39H187.795ZM185.795 4.888H171.827V8.888H185.795V4.888ZM173.827 6.888V0.839998H169.827V6.888H173.827ZM171.827 2.84H206.675V-1.16H171.827V2.84ZM204.675 0.839998V6.888H208.675V0.839998H204.675ZM243.911 2.928L244.885 1.18104V1.18103L243.911 2.928ZM250.751 9.768L249.004 10.7417C249.008 10.7489 249.012 10.7562 249.016 10.7633L250.751 9.768ZM250.751 30.144L249.009 29.1608L249.004 29.1703L250.751 30.144ZM243.911 36.984L244.885 38.731L243.911 36.984ZM226.415 37.848L225.567 39.6594C225.572 39.6617 225.577 39.6639 225.582 39.6661L226.415 37.848ZM220.655 33.24L222.228 32.0044C221.701 31.3339 220.807 31.0712 220.001 31.3499C219.195 31.6285 218.655 32.3874 218.655 33.24H220.655ZM220.655 52.968V54.968C221.759 54.968 222.655 54.0726 222.655 52.968H220.655ZM213.743 52.968H211.743C211.743 54.0726 212.638 54.968 213.743 54.968V52.968ZM213.743 0.839998V-1.16C212.638 -1.16 211.743 -0.264572 211.743 0.839998H213.743ZM220.367 0.839998H222.367C222.367 -0.264572 221.471 -1.16 220.367 -1.16V0.839998ZM220.367 6.888H218.367C218.367 7.75428 218.925 8.52207 219.748 8.78996C220.572 9.05785 221.475 8.76493 221.984 8.06434L220.367 6.888ZM226.199 2.136L227.018 3.96054C227.028 3.95594 227.039 3.95125 227.049 3.94647L226.199 2.136ZM239.951 31.728L240.948 33.4618C240.952 33.4592 240.957 33.4566 240.961 33.454L239.951 31.728ZM244.559 26.976L242.812 26.0013C242.81 26.006 242.807 26.0107 242.805 26.0154L244.559 26.976ZM244.559 12.936L242.795 13.8793C242.804 13.8958 242.813 13.9121 242.822 13.9283L244.559 12.936ZM239.951 8.184L238.954 9.91781C238.96 9.92133 238.966 9.92482 238.972 9.92828L239.951 8.184ZM226.847 8.256L227.844 9.98981C227.848 9.98723 227.853 9.98464 227.857 9.98203L226.847 8.256ZM222.239 12.936L220.502 11.9437C220.496 11.9542 220.49 11.9648 220.485 11.9754L222.239 12.936ZM222.239 26.976L220.475 27.9193C220.478 27.9251 220.482 27.9309 220.485 27.9366L222.239 26.976ZM226.847 31.728L225.837 33.454C225.847 33.4602 225.858 33.4663 225.868 33.4723L226.847 31.728ZM233.975 2.48C237.366 2.48 240.337 3.22549 242.937 4.67496L244.885 1.18103C241.629 -0.633493 237.976 -1.52 233.975 -1.52V2.48ZM242.937 4.67496C245.541 6.12605 247.553 8.13829 249.004 10.7417L252.498 8.79428C250.685 5.54171 248.137 2.99395 244.885 1.18104L242.937 4.67496ZM249.016 10.7633C250.5 13.3487 251.271 16.3804 251.271 19.92H255.271C255.271 15.7796 254.362 12.0433 252.486 8.77266L249.016 10.7633ZM251.271 19.92C251.271 23.4589 250.5 26.5205 249.009 29.1608L252.493 31.1272C254.362 27.8155 255.271 24.0611 255.271 19.92H251.271ZM249.004 29.1703C247.553 31.7737 245.541 33.7859 242.937 35.237L244.885 38.731C248.137 36.9181 250.685 34.3703 252.498 31.1177L249.004 29.1703ZM242.937 35.237C240.337 36.6865 237.366 37.432 233.975 37.432V41.432C237.976 41.432 241.629 40.5455 244.885 38.731L242.937 35.237ZM233.975 37.432C231.503 37.432 229.27 36.9567 227.248 36.0299L225.582 39.6661C228.167 40.8513 230.974 41.432 233.975 41.432V37.432ZM227.263 36.0366C225.298 35.1172 223.624 33.7819 222.228 32.0044L219.082 34.4756C220.854 36.7301 223.019 38.4668 225.567 39.6594L227.263 36.0366ZM218.655 33.24V52.968H222.655V33.24H218.655ZM220.655 50.968H213.743V54.968H220.655V50.968ZM215.743 52.968V0.839998H211.743V52.968H215.743ZM213.743 2.84H220.367V-1.16H213.743V2.84ZM218.367 0.839998V6.888H222.367V0.839998H218.367ZM221.984 8.06434C223.318 6.23047 224.988 4.87182 227.018 3.96054L225.38 0.311459C222.705 1.51218 220.488 3.32153 218.749 5.71165L221.984 8.06434ZM227.049 3.94647C229.112 2.9782 231.41 2.48 233.975 2.48V-1.52C230.876 -1.52 227.99 -0.9142 225.349 0.325523L227.049 3.94647ZM233.399 35.384C236.159 35.384 238.693 34.7581 240.948 33.4618L238.954 29.9942C237.368 30.9059 235.535 31.384 233.399 31.384V35.384ZM240.961 33.454C243.245 32.1175 245.036 30.2678 246.313 27.9366L242.805 26.0154C241.873 27.7162 240.593 29.0345 238.941 30.002L240.961 33.454ZM246.305 27.9507C247.642 25.5552 248.287 22.8606 248.287 19.92H244.287C244.287 22.2594 243.779 24.2688 242.812 26.0013L246.305 27.9507ZM248.287 19.92C248.287 16.9804 247.643 14.3014 246.295 11.9437L242.822 13.9283C243.779 15.6026 244.287 17.5796 244.287 19.92H248.287ZM246.322 11.9927C245.046 9.60551 243.243 7.73757 240.929 6.43971L238.972 9.92828C240.595 10.8384 241.864 12.1385 242.795 13.8793L246.322 11.9927ZM240.948 6.45018C238.693 5.15387 236.159 4.528 233.399 4.528V8.528C235.535 8.528 237.368 9.00613 238.954 9.91781L240.948 6.45018ZM233.399 4.528C230.663 4.528 228.127 5.18901 225.837 6.52997L227.857 9.98203C229.502 9.01899 231.335 8.528 233.399 8.528V4.528ZM225.85 6.52219C223.607 7.81201 221.822 9.6348 220.502 11.9437L223.975 13.9283C224.96 12.2052 226.247 10.908 227.844 9.98981L225.85 6.52219ZM220.485 11.9754C219.197 14.3271 218.583 16.9946 218.583 19.92H222.583C222.583 17.5654 223.073 15.5769 223.993 13.8966L220.485 11.9754ZM218.583 19.92C218.583 22.8465 219.197 25.5297 220.475 27.9193L224.002 26.0327C223.073 24.2943 222.583 22.2735 222.583 19.92H218.583ZM220.485 27.9366C221.761 30.2678 223.553 32.1175 225.837 33.454L227.857 30.002C226.205 29.0345 224.924 27.7162 223.993 26.0154L220.485 27.9366ZM225.868 33.4723C228.154 34.7546 230.679 35.384 233.399 35.384V31.384C231.319 31.384 229.475 30.9094 227.825 29.9837L225.868 33.4723ZM296.315 0.839998L298.145 1.64674C298.417 1.02823 298.359 0.313847 297.99 -0.252367C297.621 -0.818579 296.99 -1.16 296.315 -1.16V0.839998ZM277.81 42.816L275.98 42.0093C275.976 42.0201 275.971 42.031 275.966 42.0419L277.81 42.816ZM272.051 51.024L270.885 49.3989C270.879 49.403 270.873 49.4071 270.868 49.4112L272.051 51.024ZM258.73 52.464L259.393 50.5771C259.383 50.5735 259.373 50.57 259.363 50.5666L258.73 52.464ZM254.41 49.872L252.673 48.8823C252.227 49.6651 252.359 50.6493 252.996 51.2862L254.41 49.872ZM257.362 44.688L258.741 43.2389C258.295 42.815 257.679 42.6197 257.071 42.7094C256.462 42.7991 255.929 43.1638 255.625 43.6983L257.362 44.688ZM268.379 46.128L267.178 44.528C267.153 44.5468 267.129 44.5661 267.105 44.5861L268.379 46.128ZM271.474 41.592L269.657 40.757C269.648 40.7759 269.64 40.7949 269.632 40.8141L271.474 41.592ZM272.698 38.928L274.516 39.763C274.755 39.242 274.759 38.6433 274.528 38.1189L272.698 38.928ZM255.85 0.839998V-1.16C255.174 -1.16 254.544 -0.818127 254.174 -0.251301C253.805 0.315525 253.748 1.03049 254.021 1.64907L255.85 0.839998ZM263.051 0.839998L264.884 0.0401745C264.566 -0.688774 263.846 -1.16 263.051 -1.16V0.839998ZM276.371 31.368L274.537 32.1678C274.856 32.8981 275.578 33.3696 276.374 33.368C277.171 33.3664 277.891 32.8921 278.207 32.1605L276.371 31.368ZM289.547 0.839998V-1.16C288.748 -1.16 288.027 -0.685394 287.71 0.0474567L289.547 0.839998ZM294.484 0.0332584L275.98 42.0093L279.641 43.6227L298.145 1.64674L294.484 0.0332584ZM275.966 42.0419C274.405 45.7618 272.67 48.1184 270.885 49.3989L273.216 52.6491C275.847 50.7616 277.952 47.6462 279.655 43.5901L275.966 42.0419ZM270.868 49.4112C269.1 50.7077 266.914 51.4 264.203 51.4V55.4C267.635 55.4 270.681 54.5083 273.233 52.6368L270.868 49.4112ZM264.203 51.4C262.558 51.4 260.958 51.1267 259.393 50.5771L258.068 54.3509C260.055 55.0493 262.103 55.4 264.203 55.4V51.4ZM259.363 50.5666C257.894 50.0771 256.732 49.3655 255.825 48.4578L252.996 51.2862C254.393 52.6825 256.111 53.6989 258.098 54.3614L259.363 50.5666ZM256.148 50.8617L259.1 45.6777L255.625 43.6983L252.673 48.8823L256.148 50.8617ZM255.984 46.1371C258.304 48.3441 261.071 49.496 264.203 49.496V45.496C262.15 45.496 260.357 44.7759 258.741 43.2389L255.984 46.1371ZM264.203 49.496C266.263 49.496 268.13 48.9277 269.652 47.6699L267.105 44.5861C266.419 45.1523 265.502 45.496 264.203 45.496V49.496ZM269.578 47.728C271.139 46.5576 272.345 44.6724 273.317 42.3699L269.632 40.8141C268.78 42.8316 267.922 43.9704 267.178 44.528L269.578 47.728ZM273.292 42.427L274.516 39.763L270.881 38.093L269.657 40.757L273.292 42.427ZM274.528 38.1189L257.68 0.0309296L254.021 1.64907L270.869 39.7371L274.528 38.1189ZM255.85 2.84H263.051V-1.16H255.85V2.84ZM261.217 1.63982L274.537 32.1678L278.204 30.5682L264.884 0.0401745L261.217 1.63982ZM278.207 32.1605L291.383 1.63254L287.71 0.0474567L274.534 30.5755L278.207 32.1605ZM289.547 2.84H296.315V-1.16H289.547V2.84ZM318.223 22.872L319.789 21.6277C319.41 21.1503 318.833 20.872 318.223 20.872V22.872ZM310.303 22.872V20.872C309.199 20.872 308.303 21.7674 308.303 22.872H310.303ZM310.303 39V41C311.408 41 312.303 40.1046 312.303 39H310.303ZM303.391 39H301.391C301.391 40.1046 302.287 41 303.391 41V39ZM303.391 0.839998V-1.16C302.287 -1.16 301.391 -0.264572 301.391 0.839998H303.391ZM310.303 0.839998H312.303C312.303 -0.264572 311.408 -1.16 310.303 -1.16V0.839998ZM310.303 16.968H308.303C308.303 18.0726 309.199 18.968 310.303 18.968V16.968ZM318.367 16.968V18.968C318.989 18.968 319.575 18.679 319.954 18.1861L318.367 16.968ZM330.751 0.839998V-1.16C330.13 -1.16 329.544 -0.871033 329.165 -0.378054L330.751 0.839998ZM338.167 0.839998L339.738 2.07809C340.212 1.47634 340.301 0.656506 339.967 -0.032877C339.632 -0.72226 338.934 -1.16 338.167 -1.16V0.839998ZM323.695 19.2L322.125 17.9619C321.554 18.6857 321.552 19.7058 322.12 20.4318L323.695 19.2ZM339.175 39V41C339.94 41 340.638 40.5639 340.973 39.8764C341.308 39.189 341.222 38.3707 340.751 37.7682L339.175 39ZM331.039 39L329.473 40.2443C329.853 40.7217 330.429 41 331.039 41V39ZM318.223 20.872H310.303V24.872H318.223V20.872ZM308.303 22.872V39H312.303V22.872H308.303ZM310.303 37H303.391V41H310.303V37ZM305.391 39V0.839998H301.391V39H305.391ZM303.391 2.84H310.303V-1.16H303.391V2.84ZM308.303 0.839998V16.968H312.303V0.839998H308.303ZM310.303 18.968H318.367V14.968H310.303V18.968ZM319.954 18.1861L332.338 2.05805L329.165 -0.378054L316.781 15.7499L319.954 18.1861ZM330.751 2.84H338.167V-1.16H330.751V2.84ZM336.597 -0.398092L322.125 17.9619L325.266 20.4381L339.738 2.07809L336.597 -0.398092ZM322.12 20.4318L337.6 40.2318L340.751 37.7682L325.271 17.9682L322.12 20.4318ZM339.175 37H331.039V41H339.175V37ZM332.605 37.7557L319.789 21.6277L316.658 24.1163L329.473 40.2443L332.605 37.7557ZM374.23 6.888V8.888C375.334 8.888 376.23 7.99257 376.23 6.888H374.23ZM360.262 6.888V4.888C359.157 4.888 358.262 5.78343 358.262 6.888H360.262ZM360.262 39V41C361.366 41 362.262 40.1046 362.262 39H360.262ZM353.35 39H351.35C351.35 40.1046 352.245 41 353.35 41V39ZM353.35 6.888H355.35C355.35 5.78343 354.454 4.888 353.35 4.888V6.888ZM339.382 6.888H337.382C337.382 7.99257 338.277 8.888 339.382 8.888V6.888ZM339.382 0.839998V-1.16C338.277 -1.16 337.382 -0.264572 337.382 0.839998H339.382ZM374.23 0.839998H376.23C376.23 -0.264572 375.334 -1.16 374.23 -1.16V0.839998ZM374.23 4.888H360.262V8.888H374.23V4.888ZM358.262 6.888V39H362.262V6.888H358.262ZM360.262 37H353.35V41H360.262V37ZM355.35 39V6.888H351.35V39H355.35ZM353.35 4.888H339.382V8.888H353.35V4.888ZM341.382 6.888V0.839998H337.382V6.888H341.382ZM339.382 2.84H374.23V-1.16H339.382V2.84ZM372.23 0.839998V6.888H376.23V0.839998H372.23ZM385.73 36.912L384.759 38.6603L385.73 36.912ZM378.602 30L376.86 30.9832C376.867 30.9944 376.873 31.0055 376.88 31.0165L378.602 30ZM378.602 9.912L376.872 8.90771L376.867 8.91666L378.602 9.912ZM385.73 3L386.68 4.76004C386.687 4.75618 386.694 4.75227 386.701 4.74831L385.73 3ZM406.106 3L405.123 4.74165C405.134 4.74789 405.145 4.75402 405.156 4.76004L406.106 3ZM413.162 9.912L411.42 10.8952C411.427 10.9064 411.433 10.9175 411.44 10.9285L413.162 9.912ZM413.162 30L411.432 28.9957L411.427 29.0047L413.162 30ZM406.106 36.912L405.135 35.1636L405.123 35.1703L406.106 36.912ZM402.506 31.728L403.503 33.4618C403.507 33.4592 403.512 33.4566 403.516 33.454L402.506 31.728ZM407.114 26.976L408.868 27.9366C408.871 27.9309 408.875 27.9251 408.878 27.9193L407.114 26.976ZM407.114 12.936L405.35 13.8793C405.354 13.8851 405.357 13.8909 405.36 13.8966L407.114 12.936ZM402.506 8.184L401.509 9.91781C401.515 9.92133 401.521 9.92482 401.528 9.92828L402.506 8.184ZM389.33 8.184L388.352 6.43971C388.345 6.44317 388.339 6.44666 388.333 6.45018L389.33 8.184ZM384.722 12.936L382.976 11.9613C382.973 11.966 382.97 11.9707 382.968 11.9754L384.722 12.936ZM384.722 26.976L382.958 27.9193C382.967 27.9358 382.976 27.9521 382.986 27.9683L384.722 26.976ZM389.33 31.728L388.301 33.443C388.318 33.453 388.335 33.4628 388.352 33.4723L389.33 31.728ZM395.954 37.432C392.468 37.432 389.4 36.6631 386.701 35.1637L384.759 38.6603C388.108 40.5209 391.856 41.432 395.954 41.432V37.432ZM386.701 35.1637C383.983 33.6533 381.868 31.5995 380.324 28.9835L376.88 31.0165C378.792 34.2565 381.429 36.8107 384.759 38.6603L386.701 35.1637ZM380.344 29.0168C378.849 26.3689 378.082 23.3533 378.082 19.92H374.082C374.082 23.9747 374.995 27.6791 376.86 30.9832L380.344 29.0168ZM378.082 19.92C378.082 16.4862 378.849 13.5003 380.337 10.9073L376.867 8.91666C374.995 12.1797 374.082 15.8658 374.082 19.92H378.082ZM380.332 10.9163C381.875 8.25879 383.981 6.21658 386.68 4.76004L384.78 1.23996C381.431 3.04742 378.785 5.61321 376.872 8.90773L380.332 10.9163ZM386.701 4.74831C389.4 3.24892 392.468 2.48 395.954 2.48V-1.52C391.856 -1.52 388.108 -0.608917 384.759 1.25169L386.701 4.74831ZM395.954 2.48C399.44 2.48 402.479 3.24903 405.123 4.74165L407.089 1.25835C403.781 -0.60903 400.052 -1.52 395.954 -1.52V2.48ZM405.156 4.76004C407.85 6.21397 409.927 8.24953 411.42 10.8952L414.904 8.92881C413.037 5.62247 410.41 3.05003 407.056 1.23996L405.156 4.76004ZM411.44 10.9285C412.968 13.518 413.754 16.4963 413.754 19.92H417.754C417.754 15.8557 416.812 12.162 414.884 8.89549L411.44 10.9285ZM413.754 19.92C413.754 23.3432 412.968 26.3513 411.432 28.9957L414.892 31.0043C416.812 27.6967 417.754 23.9848 417.754 19.92H413.754ZM411.427 29.0047C409.933 31.6087 407.849 33.6559 405.135 35.1637L407.077 38.6603C410.411 36.8081 413.031 34.2473 414.897 30.9953L411.427 29.0047ZM405.123 35.1703C402.479 36.663 399.44 37.432 395.954 37.432V41.432C400.052 41.432 403.781 40.521 407.089 38.6536L405.123 35.1703ZM395.954 35.384C398.714 35.384 401.249 34.7581 403.503 33.4618L401.509 29.9942C399.924 30.9059 398.09 31.384 395.954 31.384V35.384ZM403.516 33.454C405.8 32.1175 407.592 30.2678 408.868 27.9366L405.36 26.0154C404.428 27.7162 403.148 29.0345 401.496 30.002L403.516 33.454ZM408.878 27.9193C410.156 25.5297 410.77 22.8465 410.77 19.92H406.77C406.77 22.2735 406.28 24.2943 405.35 26.0327L408.878 27.9193ZM410.77 19.92C410.77 16.9946 410.156 14.3271 408.868 11.9754L405.36 13.8966C406.28 15.5769 406.77 17.5654 406.77 19.92H410.77ZM408.878 11.9927C407.601 9.60551 405.798 7.73757 403.485 6.43971L401.528 9.92828C403.15 10.8384 404.419 12.1385 405.35 13.8793L408.878 11.9927ZM403.503 6.45018C401.249 5.15387 398.714 4.528 395.954 4.528V8.528C398.09 8.528 399.924 9.00613 401.509 9.91781L403.503 6.45018ZM395.954 4.528C393.193 4.528 390.643 5.154 388.352 6.43971L390.309 9.92828C391.953 9.006 393.819 8.528 395.954 8.528V4.528ZM388.333 6.45018C386.078 7.74691 384.292 9.60316 382.976 11.9613L386.468 13.9107C387.456 12.1408 388.742 10.8291 390.327 9.91781L388.333 6.45018ZM382.968 11.9754C381.68 14.3271 381.066 16.9946 381.066 19.92H385.066C385.066 17.5654 385.556 15.5769 386.476 13.8966L382.968 11.9754ZM381.066 19.92C381.066 22.8465 381.68 25.5297 382.958 27.9193L386.486 26.0327C385.556 24.2943 385.066 22.2735 385.066 19.92H381.066ZM382.986 27.9683C384.301 30.2704 386.076 32.108 388.301 33.443L390.359 30.013C388.744 29.044 387.447 27.7136 386.459 25.9837L382.986 27.9683ZM388.352 33.4723C390.643 34.758 393.193 35.384 395.954 35.384V31.384C393.819 31.384 391.953 30.906 390.309 29.9837L388.352 33.4723ZM455.903 2.928L456.877 1.18104V1.18103L455.903 2.928ZM462.743 9.768L460.996 10.7417C461 10.7489 461.004 10.7562 461.008 10.7633L462.743 9.768ZM462.743 30.144L461.001 29.1608L460.996 29.1703L462.743 30.144ZM455.903 36.984L456.877 38.731L455.903 36.984ZM438.407 37.848L437.559 39.6594C437.564 39.6617 437.569 39.6639 437.574 39.6661L438.407 37.848ZM432.647 33.24L434.22 32.0044C433.693 31.3339 432.799 31.0712 431.993 31.3499C431.188 31.6285 430.647 32.3874 430.647 33.24H432.647ZM432.647 52.968V54.968C433.752 54.968 434.647 54.0726 434.647 52.968H432.647ZM425.735 52.968H423.735C423.735 54.0726 424.63 54.968 425.735 54.968V52.968ZM425.735 0.839998V-1.16C424.63 -1.16 423.735 -0.264572 423.735 0.839998H425.735ZM432.359 0.839998H434.359C434.359 -0.264572 433.464 -1.16 432.359 -1.16V0.839998ZM432.359 6.888H430.359C430.359 7.75428 430.917 8.52207 431.741 8.78996C432.564 9.05785 433.467 8.76493 433.977 8.06434L432.359 6.888ZM438.191 2.136L439.01 3.96054C439.021 3.95594 439.031 3.95125 439.041 3.94647L438.191 2.136ZM451.943 31.728L452.94 33.4618C452.944 33.4592 452.949 33.4566 452.953 33.454L451.943 31.728ZM456.551 26.976L454.805 26.0013C454.802 26.006 454.799 26.0107 454.797 26.0154L456.551 26.976ZM456.551 12.936L454.788 13.8793C454.796 13.8958 454.805 13.9121 454.815 13.9283L456.551 12.936ZM451.943 8.184L450.946 9.91781C450.952 9.92133 450.958 9.92482 450.965 9.92828L451.943 8.184ZM438.839 8.256L439.836 9.98981C439.84 9.98723 439.845 9.98464 439.849 9.98203L438.839 8.256ZM434.231 12.936L432.495 11.9437C432.489 11.9542 432.483 11.9648 432.477 11.9754L434.231 12.936ZM434.231 26.976L432.467 27.9193C432.471 27.9251 432.474 27.9309 432.477 27.9366L434.231 26.976ZM438.839 31.728L437.829 33.454C437.839 33.4602 437.85 33.4663 437.861 33.4723L438.839 31.728ZM445.967 2.48C449.358 2.48 452.329 3.22549 454.929 4.67496L456.877 1.18103C453.621 -0.633493 449.968 -1.52 445.967 -1.52V2.48ZM454.929 4.67496C457.533 6.12605 459.545 8.13829 460.996 10.7417L464.49 8.79428C462.677 5.54171 460.129 2.99395 456.877 1.18104L454.929 4.67496ZM461.008 10.7633C462.492 13.3487 463.263 16.3804 463.263 19.92H467.263C467.263 15.7796 466.354 12.0433 464.478 8.77266L461.008 10.7633ZM463.263 19.92C463.263 23.4589 462.492 26.5205 461.001 29.1608L464.485 31.1272C466.354 27.8155 467.263 24.0611 467.263 19.92H463.263ZM460.996 29.1703C459.545 31.7737 457.533 33.7859 454.929 35.237L456.877 38.731C460.129 36.9181 462.677 34.3703 464.49 31.1177L460.996 29.1703ZM454.929 35.237C452.329 36.6865 449.358 37.432 445.967 37.432V41.432C449.968 41.432 453.621 40.5455 456.877 38.731L454.929 35.237ZM445.967 37.432C443.495 37.432 441.263 36.9567 439.24 36.0299L437.574 39.6661C440.16 40.8513 442.967 41.432 445.967 41.432V37.432ZM439.255 36.0366C437.291 35.1172 435.616 33.7819 434.22 32.0044L431.074 34.4756C432.846 36.7301 435.011 38.4668 437.559 39.6594L439.255 36.0366ZM430.647 33.24V52.968H434.647V33.24H430.647ZM432.647 50.968H425.735V54.968H432.647V50.968ZM427.735 52.968V0.839998H423.735V52.968H427.735ZM425.735 2.84H432.359V-1.16H425.735V2.84ZM430.359 0.839998V6.888H434.359V0.839998H430.359ZM433.977 8.06434C435.31 6.23047 436.981 4.87182 439.01 3.96054L437.372 0.311459C434.698 1.51218 432.48 3.32153 430.742 5.71165L433.977 8.06434ZM439.041 3.94647C441.104 2.9782 443.402 2.48 445.967 2.48V-1.52C442.868 -1.52 439.982 -0.9142 437.341 0.325523L439.041 3.94647ZM445.391 35.384C448.151 35.384 450.686 34.7581 452.94 33.4618L450.946 29.9942C449.361 30.9059 447.527 31.384 445.391 31.384V35.384ZM452.953 33.454C455.237 32.1175 457.029 30.2678 458.305 27.9366L454.797 26.0154C453.865 27.7162 452.585 29.0345 450.933 30.002L452.953 33.454ZM458.297 27.9507C459.635 25.5552 460.279 22.8606 460.279 19.92H456.279C456.279 22.2594 455.772 24.2688 454.805 26.0013L458.297 27.9507ZM460.279 19.92C460.279 16.9804 459.635 14.3014 458.288 11.9437L454.815 13.9283C455.771 15.6026 456.279 17.5796 456.279 19.92H460.279ZM458.315 11.9927C457.038 9.60551 455.235 7.73757 452.922 6.43971L450.965 9.92828C452.587 10.8384 453.856 12.1385 454.788 13.8793L458.315 11.9927ZM452.94 6.45018C450.686 5.15387 448.151 4.528 445.391 4.528V8.528C447.527 8.528 449.361 9.00613 450.946 9.91781L452.94 6.45018ZM445.391 4.528C442.655 4.528 440.12 5.18901 437.829 6.52997L439.849 9.98203C441.495 9.01899 443.327 8.528 445.391 8.528V4.528ZM437.842 6.52219C435.599 7.81201 433.814 9.6348 432.495 11.9437L435.968 13.9283C436.952 12.2052 438.239 10.908 439.836 9.98981L437.842 6.52219ZM432.477 11.9754C431.189 14.3271 430.575 16.9946 430.575 19.92H434.575C434.575 17.5654 435.065 15.5769 435.985 13.8966L432.477 11.9754ZM430.575 19.92C430.575 22.8465 431.189 25.5297 432.467 27.9193L435.995 26.0327C435.065 24.2943 434.575 22.2735 434.575 19.92H430.575ZM432.477 27.9366C433.753 30.2678 435.545 32.1175 437.829 33.454L439.849 30.002C438.197 29.0345 436.917 27.7162 435.985 26.0154L432.477 27.9366ZM437.861 33.4723C440.146 34.7546 442.671 35.384 445.391 35.384V31.384C443.311 31.384 441.468 30.9094 439.818 29.9837L437.861 33.4723Z" fill="#D0011B" mask="url(#path-1-outside-1_501_6794)"/>
</svg>
