<svg fill="none" height="50" viewBox="0 0 132 50" width="132" xmlns="http://www.w3.org/2000/svg"><g clip-rule="evenodd" fill="#fff" fill-rule="evenodd"><path d="m104.413 2.5h4.745l20.8 45.5h-5.07l-5.46-12.155h-25.3497l-5.46 12.155h-5.005zm-9.0406 35.345-4.9297 10.9745c-.3227.7184-1.0369 1.1805-1.8244 1.1805h-5.005c-.6808 0-1.3148-.3463-1.6827-.919-.368-.5728-.4193-1.2934-.1363-1.9125l20.7997-45.50002c.326-.711872 1.037-1.16848 1.819-1.16848h4.745c.783 0 1.494.456608 1.819 1.16848l20.8 45.50002c.283.6191.232 1.3397-.136 1.9125-.368.5727-1.002.919-1.683.919h-5.07c-.787 0-1.501-.4621-1.824-1.1805l-4.93-10.9745zm11.3806-30.34-10.9197 24.44h21.8397zm0 4.9027-7.8355 17.5373h15.6715z"/><path d="m86.0631 1.40906c.369.56703.4264 1.28219.1524 1.90079l-20.15 45.50005c-.3204.7235-1.0374 1.1901-1.8287 1.1901h-4.745c-.7913 0-1.5083-.4666-1.8287-1.1901l-20.15-45.50005c-.2739-.6186-.2166-1.33376.1524-1.90079.3691-.567031.9998-.90906 1.6763-.90906h5.2c.7926 0 1.5104.46805 1.8301 1.19331l15.5967 35.38359 15.7153-35.38862c.3209-.722556 1.0373-1.18828 1.8279-1.18828h4.875c.6766 0 1.3072.342029 1.6763.90906zm-24.1013 40.61094-17.42-39.52h-5.2l20.15 45.5h4.745l20.15-45.5h-4.875z"/><path d="m34.5852 41.84c1.1045 0 2 .8954 2 2v4.16c0 1.1046-.8955 2-2 2h-32.17504c-1.10457 0-2.000004-.8954-2.000004-2v-45.5c0-1.10457.895434-2 2.000004-2h31.20004c1.1045 0 2 .89543 2 2v4.16c0 1.10457-.8955 2-2 2h-24.39004v12.185h21.53004c1.1045 0 2 .8954 2 2v4.095c0 1.1046-.8955 2-2 2h-21.53004v12.9zm-27.36504 2v-16.9h23.53004v-4.095h-23.53004v-16.185h26.39004v-4.16h-31.20004v45.5h32.17504v-4.16z"/></g></svg>