<svg fill="none" height="32" viewBox="0 0 42 32" width="42" xmlns="http://www.w3.org/2000/svg" xmlns:xlink="http://www.w3.org/1999/xlink"><clipPath id="a"><rect height="32" rx="8" width="42"/></clipPath><g clip-path="url(#a)"><path d="m0 30.9154v-9.8097c.36534-.8365 1.01013-1.1063 1.90746-1.0884 2.21255.0422 4.42766.014 6.64149.014h.47046v-1.4938c-.47174.1138-.38713-.2136-.38841-.4745-.00257-.6485 0-1.2956 0-1.9441 0-.4655 0-.9311 0-1.4401-.22562 0-.38457 0-.54353 0-.91527 0-1.83054.0064-2.74453-.0025-.97937-.0103-1.5793-.5487-1.58571-1.5118-.01923-3.23964-.01538-6.47929-.00256-9.71766.00256-.76866.42943-1.32246 1.09217-1.47849.23972-.05628.49738-.04733.74735-.04733 10.64101-.00255 21.28201-.00128 31.92301-.00128h.5756v-1.451634c-.2526-.015348-.4679-.028138-.7153-.043486.009-.166267.0166-.300559.0231-.42462h2.4612c-.0077.16243-.0154.296723-.0218.425899-.2654.017906-.4794.031975-.6986.047322v1.442689h1.055c1.2793.00128 1.7908.51287 1.7908 1.79568 0 8.81981-.0103 17.64091.0141 26.46071.0025 1.0731-.5512 1.8277-1.8344 1.8251-12.751-.0255-25.502-.0217-38.25431-.0012-.89605.0012-1.539559-.2546-1.91130811-1.0821zm9.53473-10.8841h5.94157c3.3637 0 6.7274.0026 10.0898-.0012 1.0781-.0013 1.6549-.5615 1.6613-1.6231.0103-1.5744.0231-3.1501-.0025-4.7245-.0334-2.0502-1.405-3.4878-3.4163-3.5185-2.492-.0383-4.9853-.0051-7.4785 0-.0257 0-.0513.0231-.1205.055 0 .9324.0038 1.8852 0 2.8381-.0052 1.0436-.5654 1.6128-1.6101 1.6204-1.2537.009-2.5074.0026-3.7611.0026-.291 0-.5832 0-.89859 0v2.0937c.38709 0 .75379-.0103 1.11779.0077.0859.0038.168.101.2513.156-.0872.0652-.1718.1816-.2628.1867-.3628.0218-.7281.009-1.13193.009v1.348c-.15767.0461-.2756.0793-.37816.11v1.444zm22.95617-7.9936v2.5861h6.8697v-2.5861zm1.1729-2.74465c-.0089-.46171-.4038-.83773-.8652-.82111-.4359.01535-.814.4016-.8179.83262-.0026.44764.4.84794.8512.84414.4627-.0039.8396-.39139.8319-.85565zm1.8203.85565c.4615.0102.8486-.36836.8525-.83135.0038-.46427-.3769-.84797-.8384-.84541-.4358.00128-.8204.37218-.8396.80959-.0192.44381.3743.85817.8255.86847zm-1.8215-4.424c-.0026-.46555-.3885-.84029-.8538-.83006-.4422.01024-.8178.38242-.8268.82111-.009.45275.3833.85307.8396.85563.4628.00256.8435-.38113.841-.84668zm2.6727.0243c.009-.4681-.3474-.84029-.8153-.8518-.4576-.01023-.8512.36195-.8614.81599-.0103.44764.3743.84668.8268.85563.4628.00896.8409-.35683.8499-.8211zm2.6817 3.53893c-.0128-.45787-.414-.83517-.8717-.81599-.4422.01791-.8076.39776-.8076.83645 0 .45532.3961.84541.8512.83901.4589-.0064.8409-.40288.8281-.85947zm0-3.56962c-.0077-.46427-.3961-.83262-.8627-.81983-.4512.01279-.8063.37474-.8101.82494-.0039.46683.3717.84668.8383.84413.4641-.00128.8435-.38753.8358-.84924z" fill="#fff"/></g></svg>