<svg fill="none" height="110" viewBox="0 0 114 110" width="114" xmlns="http://www.w3.org/2000/svg"><path clip-rule="evenodd" d="m17.5454.00212422c.5568-.02223542 1.4479.13341278 2.0048.31129578.5569.200119 1.3365.600356 1.7375.91165.3787.28906.9579.93389 1.2697 1.42307.3119.48918.6906 1.40083 1.1138 3.11295h7.6852l.1337-.60035c.0668-.35577.2673-1.02283.4232-1.51201.1782-.48918.6906-1.28965 1.1584-1.77883.4677-.48918 1.2474-1.089536 1.7375-1.311891.49-.244589 1.4034-.4891786 2.0048-.5336494.7351-.0667062 1.537.0444708 2.339.3112954.6683.222354 1.6038.756005 2.0939 1.178475.4678.44471 1.047 1.17848 1.2697 1.64542.2451.44471.4901 1.22295.7574 2.60154h3.9651c3.9429 0 3.9429 0 3.9429-.48917 0-.28906.0891-.86719.2227-1.28966.1114-.42247.6237-1.26742 1.1584-1.86777.5346-.60036 1.3588-1.289656 1.8489-1.556481.6682-.333531 1.292-.4669432 2.5617-.4669432s1.8934.1334122 2.5617.4669432c.4901.266825 1.3143.956121 1.8489 1.556481.5346.60035 1.047 1.4453 1.1584 1.86777.1336.42247.2227 1.0006.2227 1.28966 0 .48917 0 .48917 7.908.48917l.1559-.88941c.1114-.48918.3564-1.26742.6015-1.71213.2227-.46694.8019-1.20071 1.2697-1.64542.4901-.42247 1.4256-.956121 2.0939-1.178475.802-.2668246 1.6039-.3780016 2.339-.3112954.6014.0444708 1.5147.2890604 2.0048.5336494.4901.222355 1.2475.778241 1.6707 1.200711.4455.42247.9579 1.22295 1.1584 1.77883.2004.55589.4232 1.26742.6237 2.22354l3.4973.06671c3.1632.06671 3.6532.13341 4.7225.62259.6683.28906 1.5593.93389 1.9825 1.42307.4456.48918.9579 1.24518 1.1361 1.66765.3119.68929.3564 2.97959.401 18.74449.0445 9.8725.1336 17.9439.2227 17.9439.1114 0 1.0916.5114 2.1831 1.134s2.8958 1.8011 3.9878 2.6238c1.091.8005 2.94 2.4681 4.098 3.6911 1.159 1.2229 2.74 3.1797 3.52 4.3359.757 1.1562 1.849 3.0685 2.383 4.2247.557 1.1563 1.248 2.8684 1.56 3.78.289.9117.713 2.5126.935 3.5577.201 1.0451.468 2.2458.58 2.6683.111.4224.2 2.2902.2 4.1135 0 2.6905-.111 3.869-.557 6.1147-.312 1.5343-.869 3.6911-1.247 4.7807-.379 1.0895-1.136 2.9128-1.693 4.0023-.535 1.0896-1.537 2.8017-2.183 3.7801-.646.9783-1.805 2.5348-2.607 3.4464-.779.9117-2.272 2.3793-3.296 3.2463-1.047.867-2.8072 2.179-3.8988 2.891-1.0915.711-2.8067 1.645-3.7869 2.112-.9801.445-2.584 1.067-3.5641 1.379-.9801.333-2.6954.8-3.7869 1.022-1.0915.245-3.1632.556-4.5666.712-2.2275.222-2.9404.222-5.3462-.111-1.537-.2-3.5864-.578-4.5665-.801-.9802-.222-2.4727-.644-3.3414-.956-.8688-.311-2.2053-.845-3.0073-1.2-.8019-.378-2.2276-1.134-4.9007-2.735h-25.9514c-20.9171 0-26.08507-.067-26.68652-.289-.49007-.201-.80193-.534-1.00241-1.068-.17821-.467-.26731-1.868-.26731-6.6482h-3.34139c-3.0518 0-3.38594-.0444-3.786903-.4447-.245035-.2446-.49007-.667-.5568974-.9561-.0668277-.2668-.0891036-19.4115 0-84.539l.4677944-.88942c.26731-.48918.824206-1.22295 1.225176-1.64542.42324-.40024 1.2029-.95612 1.75979-1.20071.82421-.378 1.62615-.46694 4.63339-.57812 3.00728-.11118 3.60868-.20012 3.60868-.46694 0-.17789.1559-.84495.3787-1.4453.2228-.71154.7574-1.48978 1.3811-2.1346.5792-.57812 1.4479-1.156245 2.0271-1.356364.5569-.200119 1.448-.37800178 2.0049-.37800178zm-1.7821 8.42721578v3.33536h3.7869c0-6.60396-.0223-6.6929-.5569-7.22655-.3787-.378-.8019-.55589-1.3366-.55589-.5569 0-.9578.17789-1.3365.55589-.5124.51141-.5346.64482-.5569 3.89119zm19.625.02224-.0222 3.31312 3.8983-.1112v-6.60394c-1.0025-.88941-1.4925-1.0673-2.0049-1.0673-.5791 0-.9578.15565-1.3365.57812-.5124.57812-.5347.73377-.5347 3.8912zm19.6474 0-.0668 3.31312h4.0096c-.1114-6.51502-.1336-6.64843-.6683-7.20432-.4009-.42247-.7796-.57812-1.3588-.57812-.5569 0-.9578.17789-1.3365.57812-.5124.53365-.5347.71154-.6015 3.8912zm19.6696-3.40202v6.60394l3.8983.1112c.0223-6.49278 0-6.58173-.5569-7.18208-.401-.42247-.7797-.60036-1.3143-.60036-.49 0-1.0024.20012-1.4034.53365zm-70.74825 5.87014.02228 10.6285h86.43047c0-10.4284 0-10.4506-.5346-11.0732-.5346-.60035-.5346-.60035-3.8983-.66706l-3.3636-.04447c-.1114 4.53603-.1337 4.69163-.7351 5.26983l-.6015.6226c-5.7917.1111-7.9079.0667-8.4648-.0223-.6015-.0889-1.2029-.3558-1.4925-.667-.4678-.4892-.5124-.7561-.5124-2.8684v-2.33473h-7.6852c-.2227 4.49153-.2673 4.69163-.8464 5.26983l-.6015.6226h-9.3113c-1.1138-1.0896-1.1584-1.2675-1.2029-3.4465l-.0668-2.33475-7.908-.11118c0 4.44703-.0445 4.71393-.4901 5.20313-.3118.3112-.9133.5781-1.5147.667-.5569.089-2.6731.1334-4.7225.089l-3.7201-.0667c-1.2252-1.2008-1.2474-1.3564-1.292-3.5577l-.0668-2.33473h-7.7966c0 3.53543-.1114 4.44703-.3341 4.89183-.2228.4669-.5792.7337-1.1584.8894-.4678.1112-2.4503.2223-4.4106.2223s-3.9428-.1111-4.3883-.2223c-.6015-.1557-.9356-.4225-1.1807-.8894-.2227-.4448-.3341-1.3564-.3341-2.7795v-2.11233c-6.32636 0-6.43774.02223-7.12829.57813zm.04455 81.3371c42.1906 0 46.9799-.0667 46.8908-.289-.0669-.1334-.5569-1.3786-1.1138-2.7128-.5569-1.3563-1.2475-3.402-1.5371-4.5582-.3118-1.1562-.6682-3.1574-.8242-4.4471-.1559-1.4453-.2227-3.4909-.1336-5.3365.0668-1.6454.3341-3.9579.5792-5.1141.245-1.1563.7573-3.0241 1.136-4.1136.401-1.1118 1.1584-2.9128 1.693-4.0024.5569-1.1117 1.537-2.8016 2.2053-3.78.646-.9783 1.8712-2.557 2.6954-3.4909.8465-.9339 2.2276-2.3125 3.0963-3.0685.8465-.7338 2.3613-1.8678 3.3414-2.5349.9802-.6448 2.584-1.5787 3.5642-2.0901.9801-.4892 2.7845-1.2452 4.0096-1.6676 1.2252-.4225 3.3191-1.0006 4.678-1.2452 1.3365-.2668 3.5864-.5559 5.0121-.6226 1.7375-.0667 3.4082 0 5.2348.2446 1.4702.1779 3.3859.5559 4.277.8004l1.6261.4448v-19.1225h-86.4305zm67.7633-43.7815c-1.2029.378-3.0295 1.1118-4.0542 1.6232-1.047.5114-2.6063 1.3786-3.4528 1.9567-.8687.5559-2.2276 1.601-3.0295 2.3347-.8019.7116-1.9603 1.8456-2.5617 2.5126-.6238.6671-1.5816 1.8678-2.1385 2.6683-.5792.8005-1.3811 2.0901-1.8266 2.8906-.4456.8005-1.047 2.0901-1.3812 2.8906-.3118.8005-.8019 2.2902-1.0915 3.3353s-.646 2.7349-.8019 3.78c-.1782 1.1785-.2228 3.1352-.1559 5.2253.0668 1.8456.2895 4.0914.5123 5.003.2005.9117.646 2.4681.9802 3.4465.3341.9783 1.0915 2.7349 1.6929 3.8912.6015 1.1562 1.693 2.9128 2.4281 3.8912.7128.9783 2.0271 2.4903 2.8959 3.3575.8687.8672 2.3835 2.1569 3.3636 2.891.9802.733 2.6731 1.778 3.7869 2.357 1.0915.555 2.6509 1.267 3.4528 1.578.7796.289 2.339.756 3.4528 1.001 1.0915.267 3.0518.578 4.3438.689 1.3588.111 3.3413.111 4.7893 0 1.3365-.111 3.2968-.4 4.3438-.667 1.0247-.244 2.5394-.667 3.3414-.956.7796-.289 2.183-.889 3.1186-1.356.9133-.467 2.3167-1.268 3.1186-1.801.7797-.512 2.2499-1.6458 3.2299-2.4908.98-.8449 2.317-2.2235 3.007-3.024.669-.8227 1.582-2.0679 2.05-2.7572s1.225-2.0234 1.715-2.9351c.468-.9116 1.158-2.5793 1.537-3.6688.379-1.1118.847-2.8461 1.069-3.8912.312-1.4231.424-2.8684.424-5.7812 0-2.9129-.112-4.3582-.424-5.7812-.222-1.0451-.646-2.646-.958-3.5577-.334-.9116-1.069-2.6238-1.648-3.78s-1.693-3.0018-2.473-4.0913c-.779-1.0673-2.316-2.8239-3.408-3.8912-1.1136-1.0673-2.8734-2.4904-3.8981-3.1797-1.047-.6893-2.8513-1.7121-4.0097-2.268-1.1806-.5559-3.0295-1.2674-4.121-1.5787-1.1138-.3335-2.9182-.7338-4.0097-.9117-1.1138-.1556-3.2077-.289-4.6779-.289-1.4702.0222-3.5196.1779-4.522.3335-1.0025.1779-2.8068.6226-4.0097 1.0006zm-59.9667 51.5637h44.9973c-.7797-.9781-1.5148-1.8898-2.1162-2.6236l-1.1138-1.3786h-41.7673zm5.6135-66.6838c.4678-.0222 1.2697.089 1.7821.2224.5123.1112 1.4034.5559 1.9602.9561.5569.4002 1.2698 1.2007 1.6039 1.8233.3342.6004.6683 1.5787.7351 2.2013.0891.6004.0446 1.512-.0891 2.0012-.1336.4892-.5346 1.3564-.9133 1.9345-.4455.7115-1.0692 1.2896-1.8489 1.7343-.646.3558-1.6261.7116-2.1608.8005-.5569.089-1.5147.0223-2.1162-.1112-.6682-.1556-1.5816-.6003-2.2053-1.0895-.6683-.4892-1.3143-1.2674-1.6707-1.9345-.3118-.6226-.6014-1.6232-.6683-2.2235-.0445-.6226.0446-1.512.1783-2.0012.1559-.4892.5346-1.2897.8687-1.7788.3342-.4892 1.0024-1.1563 1.4925-1.4676s1.1806-.6893 1.5593-.8227c.3564-.1334 1.0247-.2446 1.4925-.2446zm-1.6039 5.8702c0 .5336.156.9339.5569 1.3341.3787.378.802.5559 1.3366.5559.5569 0 .9578-.1779 1.3365-.5559s.5569-.8005.5569-1.3341c0-.5337-.1782-.9561-.5569-1.3341-.4009-.378-.8019-.5559-1.3588-.5559-.5346 0-.9579.1779-1.3143.5559-.3712.3557-.5569.8004-.5569 1.3341zm21.4963-5.8924c.49 0 1.3365.1334 1.8934.3335.5346.1779 1.4257.7116 1.9603 1.1563.5569.4669 1.2029 1.2452 1.4479 1.7343.3565.6893.4678 1.2897.4678 2.6683.0223 1.512-.0668 1.9345-.5791 2.7794-.3119.5559-.9579 1.3341-1.448 1.7344-.4678.4002-1.3588.8671-1.9603 1.045-.6237.2002-1.4256.3336-1.782.3336-.3787 0-1.0247-.089-1.448-.2224-.4455-.1112-1.2251-.4892-1.7375-.8227-.5346-.3335-1.2474-1.0673-1.6261-1.6232-.3564-.5559-.7574-1.512-.8911-2.1123-.1559-.7561-.1559-1.4676 0-2.2236.1337-.6226.5347-1.5565.8911-2.1124.3564-.5558 1.0024-1.2229 1.4034-1.512.4009-.2668 1.136-.6448 1.6261-.8227s1.292-.3113 1.7821-.3335zm-1.8044 5.381c-.0891.289-.0891.7337 0 1.0006.0669.289.3564.7115.6238.9561.2895.2668.8019.4447 1.2251.4447.4901 0 .9356-.2001 1.292-.5559.2896-.3113.5569-.7338.5792-.9561 0-.2001 0-.5781-.0223-.8227-.0222-.2446-.2896-.6671-.5791-.9561-.3342-.2891-.8243-.4892-1.292-.4892-.4233 0-.9356.1779-1.2252.4447-.2673.2446-.5346.667-.6015.9339zm21.4517-5.3588c.5124-.0222 1.4702.1779 2.1162.4003.8465.3113 1.4702.7782 2.2499 1.6232.5792.6448 1.1583 1.5342 1.2697 1.9567.1114.4224.2005 1.3341.2005 2.0012 0 .756-.1782 1.6231-.4455 2.2235-.245.5559-.8242 1.3786-1.292 1.8455-.4455.467-1.3366 1.0229-1.9826 1.2675-.646.2445-1.5593.4447-2.0494.4447-.49 0-1.4256-.2002-2.0716-.4447-.646-.2446-1.537-.8005-1.9826-1.2675-.4678-.4669-1.0469-1.2896-1.292-1.8455-.2673-.6004-.4455-1.4675-.4455-2.2235 0-.6671.0891-1.5788.2005-2.0012.1114-.4225.6905-1.3119 1.2697-1.9567.7574-.8228 1.4257-1.3119 2.2053-1.601.6015-.2446 1.5371-.4225 2.0494-.4225zm-1.8266 5.8702c0 .4892.1782.9339.5569 1.3119.3787.4224.7796.6003 1.3365.6003.5347 0 .9356-.1779 1.3366-.6003.3564-.378.5569-.8227.5569-1.3119s-.2005-.9339-.5569-1.3119c-.401-.4225-.8019-.5781-1.3588-.5781-.5792 0-.9579.1779-1.3366.5781-.3564.3558-.5346.8227-.5346 1.3119zm-37.4235 9.8947c.9133 0 1.6707.1557 2.4503.5337.6015.2668 1.4702.9339 1.938 1.4231.5124.5781.9802 1.4008 1.1807 2.0901.1782.6448.3341 1.423.3341 1.7343s-.1559 1.0896-.3341 1.7122c-.2228.7782-.6683 1.5342-1.292 2.2013-.5124.5559-1.3366 1.2007-1.8267 1.4453-.6014.289-1.4033.4447-2.3389.4447-1.0025.0222-1.7821-.1112-2.4504-.4225-.5569-.2446-1.3588-.7782-1.7598-1.1785-.4232-.4224-.9578-1.1562-1.2029-1.6454-.245-.4892-.4901-1.4008-.5569-2.0012-.0891-.756.0223-1.512.2896-2.3347.2228-.6671.7574-1.6232 1.2029-2.0901.4455-.4892 1.292-1.1118 1.9157-1.3786.7574-.378 1.5148-.5337 2.4504-.5337zm-1.4034 4.5361c-.3564.3113-.5123.7115-.4901 1.2451 0 .4225.1337.9339.2673 1.1341.156.2001.5124.4669.7797.6003.2673.1557.7128.2668.9579.2668.245 0 .7351-.2446 1.1138-.5559.49-.4224.6682-.7337.6682-1.3341 0-.4892-.2004-.9783-.5123-1.3341-.2673-.2891-.7574-.5781-1.047-.6448-.3118-.0667-.7128-.0445-.891.0222-.2005.0667-.5792.3335-.8465.6004zm21.2289-4.4694c.8465.0223 1.8935.2224 2.339.4447.4232.2002 1.1138.6894 1.537 1.0896.401.4002 1.0025 1.2896 1.3143 1.9567.4455 1.0006.5346 1.4675.4455 2.5571-.0668.7337-.2895 1.7343-.5346 2.2235-.245.4892-.7574 1.2007-1.1583 1.601-.401.4002-1.0247.8894-1.3811 1.0673-.3787.1778-1.1138.4224-1.6262.5336-.5346.1112-1.4702.089-2.1607-.0222-.6906-.1112-1.6262-.467-2.1163-.8227-.49-.3336-1.2028-1.0006-1.5815-1.4898-.401-.5114-.802-1.3786-.9579-2.0901-.2005-.8894-.2005-1.5565-.0446-2.4015.1337-.6225.4678-1.5342.7574-2.0011.2896-.4448.7797-1.0451 1.0693-1.3119.2896-.2669.9801-.6893 1.537-.9562.7797-.3557 1.3366-.4447 2.5617-.378zm-1.6707 4.5583c-.2673.3335-.4678.8449-.4678 1.1562s.2005.8228.4456 1.1563c.2673.3558.7351.667 1.136.7338.3565.0667.9356-.0223 1.2698-.2002.3341-.1556.6905-.4669.7796-.667s.1782-.6893.1782-1.0896c0-.4669-.1782-.8671-.5123-1.1784-.2673-.2669-.6906-.5337-.9356-.5782-.245-.0667-.6683-.0667-.9579-.0222-.2673.0445-.6905.3558-.9356.6893zm46.1112-2.6682c.7796.0444 2.2944.2223 3.3413.4002 1.0247.2001 2.6286.6003 3.5642.9116.9133.3113 2.4726.9784 3.4528 1.4898.9801.4892 2.5171 1.4676 3.4527 2.1569.9133.6892 2.4058 2.0234 3.3414 3.0017.9133.9562 2.1383 2.4459 2.6953 3.3131.579.8449 1.448 2.4014 1.938 3.4465s1.158 2.8461 1.47 4.0024c.312 1.1562.646 3.1574.78 4.447.134 1.5565.134 3.1352-.022 4.7807-.134 1.3341-.468 3.2908-.78 4.3359-.29 1.045-.869 2.5793-1.247 3.4465-.401.8449-1.137 2.2457-1.649 3.1129-.512.845-1.581 2.3125-2.3611 3.2241-.7796.9117-2.2276 2.3125-3.1854 3.0908-.9802.7782-2.4281 1.801-3.2078 2.268-.8019.4669-2.1607 1.1562-3.0072 1.512-.8688.334-2.3167.845-3.23 1.09-.9356.244-2.7845.578-4.1211.733-1.938.223-3.0072.223-5.012.023-1.4257-.156-3.3192-.49-4.2325-.734-.9356-.267-2.3835-.778-3.23-1.112-.8687-.3558-2.3612-1.1118-3.3191-1.7121-.9356-.5782-2.4503-1.6455-3.3191-2.3792-.8688-.7338-2.2053-2.0457-2.9404-2.9351s-1.8266-2.3792-2.4058-3.3353-1.3588-2.4904-1.7375-3.402c-.3787-.9117-.8688-2.4237-1.1138-3.3353-.2228-.9117-.5346-2.7128-.6683-4.0024-.1782-1.7344-.1782-2.9796.0223-4.8918.1336-1.4008.5123-3.402.8019-4.4471.3119-1.0451.9579-2.7349 1.4479-3.78.4901-1.0451 1.4257-2.6905 2.0717-3.6689.6683-.9783 1.8934-2.4681 2.7177-3.313.8464-.845 2.2721-2.0902 3.2077-2.7794.9133-.6893 2.3612-1.6232 3.23-2.0679.8465-.4448 2.2053-1.0451 3.0072-1.3564.7797-.2891 2.1831-.7115 3.1187-.9339.9133-.2001 2.5617-.4447 3.6755-.5114 1.0915-.0889 2.6508-.1334 3.4528-.0889zm-9.5787 5.5143c-.8019.3336-2.1607 1.0229-3.0072 1.512-.8465.5115-2.4727 1.8011-3.631 2.9129-1.3143 1.2452-2.5172 2.6682-3.23 3.78-.6237.9784-1.3588 2.3125-1.6484 2.9351-.2896.6448-.7797 2.0456-1.0915 3.1129-.3119 1.0896-.6238 2.7795-.7129 3.7801l-.1559 1.801c4.5443.1557 4.7893.2001 5.3239.7115.401.4003.5792.7783.5792 1.3342s-.1782.9339-.5792 1.3341c-.5346.5114-.7796.5559-2.6731.6004-1.5147.0444-2.0939.1556-2.0939.3335 0 .1556.2005.9783.4455 1.8455.2451.845.7797 2.2458 1.1806 3.113.401.8449 1.1807 2.2013 1.7153 3.0018.5346.8004 1.6707 2.1568 2.5394 3.024.8688.8672 2.2276 2.0012 3.0296 2.5348.7796.5337 2.2498 1.3564 3.23 1.8011.9801.4669 2.5171 1.045 3.4527 1.2674.9133.2446 2.094.4892 2.6063.5781l.9579.1334c.0891-4.6027.1336-4.7361.7128-5.2475.3564-.3113.891-.5337 1.292-.5337.3787 0 .9133.2224 1.2697.5337.5792.5114.6238.6448.6683 2.8906l.0668 2.3569c1.292-.2001 2.4727-.4669 3.4528-.7115.9801-.2224 2.584-.8005 3.5641-1.2674.9802-.4447 2.2722-1.1563 2.8959-1.5787.6015-.4003 1.6484-1.2007 2.2944-1.7566.6683-.5559 1.7821-1.7344 2.4727-2.5793.6905-.8672 1.6484-2.2681 2.1384-3.113.4678-.8672 1.2032-2.5126 1.6042-3.6688.401-1.1563.713-2.2903.713-2.5126.022-.3336-.223-.378-1.76-.378-.9804 0-2.0719-.1112-2.4061-.2446-.3341-.1334-.7351-.4003-.891-.6004-.1337-.2223-.2673-.7338-.2673-1.1562-.0223-.5559.1337-.9339.5569-1.3342.5346-.5114.7796-.5558 2.9627-.6225l2.3838-.089c-.245-2.4681-.49-3.8912-.691-4.7361-.2-.8672-.601-2.2013-.913-3.0018-.334-.8005-1.0471-2.2458-1.604-3.2019-.5792-.9784-1.8266-2.6015-2.8068-3.6466-.9801-1.0451-2.3835-2.3125-3.1186-2.8239-.7351-.5337-2.0494-1.3119-2.8959-1.7344-.8687-.4224-2.4058-1.045-3.4082-1.3563s-2.3835-.6449-3.0741-.756l-1.2251-.1557c.0222 2.9351-.0891 4.0691-.2005 4.4471-.1337.3558-.4455.7782-.7351.9339-.2673.1556-.646.2891-.8242.3335-.2005.0223-.6238-.0222-.9579-.1112-.3564-.0889-.7574-.4224-.9356-.8227-.2227-.4447-.3341-1.3341-.3341-2.6682v-2.0012c-1.1361.0222-2.2053.2224-3.1187.4447-.9355.2224-2.3389.6893-3.1186 1.0228zm-54.1304 8.2271c.5346.0667 1.4034.3113 1.8934.5115.4901.2223 1.2252.7337 1.6262 1.1562.4232.4225.9578 1.1562 1.2029 1.6454.245.4892.49 1.3341.5569 1.89.0668.6004-.0223 1.4898-.2451 2.2236-.2004.667-.6905 1.6231-1.0915 2.0901-.401.4669-1.1806 1.134-1.7152 1.4453-.8688.4892-1.2698.5781-2.7845.5781-1.3811 0-2.0048-.1112-2.6731-.4669-.4901-.2669-1.2698-.9117-1.7375-1.4453-.4678-.5337-1.0025-1.4898-1.2029-2.0902-.2451-.7782-.3119-1.4897-.2228-2.3347.0891-.7115.401-1.6676.7574-2.2902.3341-.6004 1.0247-1.3786 1.5147-1.7344.4901-.378 1.3811-.8005 2.0049-.9783.6237-.1779 1.537-.2669 2.1162-.2002zm-2.4949 5.7812c.0223.4448.245.9784.5346 1.2897.2673.3113.7128.5781.9579.6003.245.0223.6237.0223.8242 0 .2227 0 .646-.2668.9578-.5781.3565-.3557.5347-.8004.5347-1.2896 0-.378-.1337-.8672-.2674-1.0673-.1559-.2001-.5123-.467-.7796-.6004-.2673-.1556-.7351-.2668-1.0247-.2668s-.8019.2668-1.1361.5781c-.4678.4447-.6237.8005-.6014 1.3341zm22.0977-5.7812c.5346.0667 1.4925.3558 2.1162.6449.6014.2668 1.4256.8894 1.8266 1.3563.401.4892.8688 1.3119 1.0693 1.8678.1782.5559.3341 1.4898.3118 2.1124 0 .6225-.2005 1.5564-.4455 2.1123s-.7797 1.3341-1.1806 1.7566c-.3787.4003-1.2029.9784-1.8044 1.2674-.7128.3336-1.537.5337-2.2276.5337-.6237 0-1.5816-.1557-2.1162-.3335-.5569-.1779-1.4034-.6671-1.8712-1.0451-.4677-.4002-1.1137-1.2897-1.4256-1.9567-.4233-.845-.5792-1.601-.5792-2.4459 0-.6671.1337-1.6232.2896-2.1124.1782-.4892.7128-1.3341 1.2252-1.8678.49-.5336 1.1806-1.1117 1.5147-1.2674.3342-.1779.9802-.4002 1.448-.5114.4678-.1334 1.292-.1779 1.8489-.1112zm-2.4504 5.8479c0 .4448.1782.8895.5569 1.2452.2896.3113.7128.5781.9356.5781.2228.0223.6015 0 .8465-.0222s.646-.2446.9133-.5114.5124-.6893.5346-.9339c.0223-.2446.0223-.6226.0223-.8449-.0223-.2001-.2896-.6226-.5792-.9339-.3564-.3558-.8242-.5559-1.2474-.5559-.4678 0-.8911.2001-1.3143.6448-.4232.4225-.646.9117-.6683 1.3341zm56.8258-3.9801c.2228 0 .6683.0889.9802.2224.2896.1334.6905.5781.891 1.0006.2673.6448.2673.8894.0446 1.4453-.1782.4224-2.3613 2.3791-6.1704 5.581-3.2523 2.6905-6.215 5.0697-6.5714 5.2476-.4901.2446-.8688.2891-1.3366.1334-.5346-.1556-1.1583-.8894-2.9627-3.5799-1.8043-2.6905-2.2721-3.5354-2.2721-4.158 0-.5337.1559-.9561.5346-1.3341.3564-.3558.8019-.5559 1.2252-.5559.4009 0 .9355.2223 1.292.5336.3341.2891 1.1583 1.3342 1.8489 2.3347.6682 1.0006 1.292 1.8233 1.3811 1.8011.0891 0 2.2498-1.7343 4.7893-3.8467 2.5394-2.1124 4.923-4.0691 5.2794-4.3359s.8242-.4892 1.0469-.4892z" fill="#283044" fill-rule="evenodd"/></svg>